# Blender 4.2.8 LTS
# www.blender.org
mtllib hm_bank_access_panel_v2.mtl
o AC_Panel
v -0.171000 -0.005000 0.021000
v -0.171000 -0.001000 0.025000
v -0.175000 -0.001000 0.021000
v -0.171000 -0.003828 0.023828
v -0.173309 -0.003309 0.023309
v -0.173828 -0.001000 0.023828
v -0.173828 -0.003828 0.021000
v -0.171000 0.441000 0.025000
v -0.171000 0.445000 0.021000
v -0.175000 0.441000 0.021000
v -0.171000 0.443828 0.023828
v -0.173309 0.443309 0.023309
v -0.173828 0.443828 0.021000
v -0.173828 0.441000 0.023828
v -0.171000 -0.005000 -0.021000
v -0.175000 -0.001000 -0.021000
v -0.171000 -0.001000 -0.025000
v -0.173828 -0.003828 -0.021000
v -0.173309 -0.003309 -0.023309
v -0.173828 -0.001000 -0.023828
v -0.171000 -0.003828 -0.023828
v -0.171000 0.445000 -0.021000
v -0.171000 0.441000 -0.025000
v -0.175000 0.441000 -0.021000
v -0.171000 0.443828 -0.023828
v -0.173309 0.443309 -0.023309
v -0.173828 0.441000 -0.023828
v -0.173828 0.443828 -0.021000
v 0.171000 -0.005000 0.021000
v 0.175000 -0.001000 0.021000
v 0.171000 -0.001000 0.025000
v 0.173828 -0.003828 0.021000
v 0.173309 -0.003309 0.023309
v 0.173828 -0.001000 0.023828
v 0.171000 -0.003828 0.023828
v 0.171000 0.445000 0.021000
v 0.171000 0.441000 0.025000
v 0.175000 0.441000 0.021000
v 0.171000 0.443828 0.023828
v 0.173309 0.443309 0.023309
v 0.173828 0.441000 0.023828
v 0.173828 0.443828 0.021000
v 0.171000 -0.005000 -0.021000
v 0.171000 -0.001000 -0.025000
v 0.175000 -0.001000 -0.021000
v 0.171000 -0.003828 -0.023828
v 0.173309 -0.003309 -0.023309
v 0.173828 -0.001000 -0.023828
v 0.173828 -0.003828 -0.021000
v 0.171000 0.445000 -0.021000
v 0.175000 0.441000 -0.021000
v 0.171000 0.441000 -0.025000
v 0.173828 0.443828 -0.021000
v 0.173309 0.443309 -0.023309
v 0.173828 0.441000 -0.023828
v 0.171000 0.443828 -0.023828
vn -0.1794 -0.9673 0.1794
vn -0.1794 -0.1794 0.9673
vn -0.9673 -0.1794 0.1794
vn -0.1479 -0.6993 0.6993
vn -0.5773 -0.5774 0.5773
vn -0.6993 -0.1479 0.6993
vn -0.6993 -0.6993 0.1479
vn -0.1794 0.1794 0.9673
vn -0.1794 0.9673 0.1794
vn -0.9673 0.1794 0.1794
vn -0.1479 0.6993 0.6993
vn -0.5773 0.5774 0.5774
vn -0.6993 0.6993 0.1479
vn -0.6993 0.1479 0.6993
vn -0.1794 -0.9673 -0.1794
vn -0.9673 -0.1794 -0.1794
vn -0.1794 -0.1794 -0.9673
vn -0.6993 -0.6993 -0.1479
vn -0.5773 -0.5774 -0.5774
vn -0.6993 -0.1479 -0.6993
vn -0.1479 -0.6993 -0.6993
vn -0.1794 0.9673 -0.1794
vn -0.1794 0.1794 -0.9673
vn -0.9673 0.1794 -0.1794
vn -0.1479 0.6993 -0.6993
vn -0.5773 0.5774 -0.5774
vn -0.6993 0.1479 -0.6993
vn -0.6993 0.6993 -0.1479
vn 0.1794 -0.9673 0.1794
vn 0.9673 -0.1794 0.1794
vn 0.1794 -0.1794 0.9673
vn 0.6993 -0.6993 0.1479
vn 0.5773 -0.5774 0.5773
vn 0.6993 -0.1479 0.6993
vn 0.1479 -0.6993 0.6993
vn 0.1794 0.9673 0.1794
vn 0.1794 0.1794 0.9673
vn 0.9673 0.1794 0.1794
vn 0.1479 0.6993 0.6993
vn 0.5773 0.5774 0.5773
vn 0.6993 0.1479 0.6993
vn 0.6993 0.6993 0.1479
vn 0.1794 -0.9673 -0.1794
vn 0.1794 -0.1794 -0.9673
vn 0.9673 -0.1794 -0.1794
vn 0.1479 -0.6993 -0.6993
vn 0.5773 -0.5774 -0.5774
vn 0.6993 -0.1479 -0.6993
vn 0.6993 -0.6993 -0.1479
vn 0.1794 0.9673 -0.1794
vn 0.9673 0.1794 -0.1794
vn 0.1794 0.1794 -0.9673
vn 0.6993 0.6993 -0.1479
vn 0.5773 0.5774 -0.5774
vn 0.6993 0.1479 -0.6993
vn 0.1479 0.6993 -0.6993
vt 0.622778 0.752857
vt 0.377222 0.997143
vt 0.377222 0.752857
vt 0.622778 0.520000
vt 0.377222 0.730000
vt 0.377222 0.520000
vt 0.872143 0.520000
vt 0.627857 0.730000
vt 0.627857 0.520000
vt 0.622778 0.020000
vt 0.377222 0.230000
vt 0.377222 0.020000
vt 0.622778 0.252857
vt 0.377222 0.497143
vt 0.377222 0.252857
vt 0.127857 0.730000
vt 0.126208 0.750000
vt 0.125000 0.730000
vt 0.375939 1.000000
vt 0.375000 0.997143
vt 0.375000 0.008453
vt 0.377222 0.000000
vt 0.622778 0.997143
vt 0.625000 0.998792
vt 0.622778 1.000000
vt 0.872143 0.730000
vt 0.875000 0.741547
vt 0.872143 0.750000
vt 0.624061 0.000000
vt 0.625000 0.020000
vt 0.127857 0.520000
vt 0.125000 0.508453
vt 0.127857 0.500000
vt 0.375939 0.250000
vt 0.375000 0.230000
vt 0.375000 0.251208
vt 0.377222 0.250000
vt 0.873792 0.500000
vt 0.875000 0.520000
vt 0.624061 0.250000
vt 0.625000 0.252857
vt 0.622778 0.230000
vt 0.625000 0.241547
vt 0.622778 0.250000
vt 0.372143 0.730000
vt 0.375313 0.747585
vt 0.372143 0.750000
vt 0.375000 0.730000
vt 0.377222 0.750000
vt 0.625089 0.747182
vt 0.625000 0.730000
vt 0.625000 0.752857
vt 0.622778 0.730000
vt 0.622778 0.750000
vt 0.372143 0.520000
vt 0.374911 0.502818
vt 0.375000 0.520000
vt 0.375000 0.497143
vt 0.377222 0.500000
vt 0.624687 0.502415
vt 0.627857 0.500000
vt 0.625000 0.520000
vt 0.622778 0.497143
vt 0.622778 0.500000
vt 0.125000 0.520000
vt 0.375000 0.020000
vt 0.377222 1.000000
vt 0.622778 0.000000
vt 0.875000 0.730000
vt 0.625000 0.230000
vt 0.372143 0.500000
vt 0.375000 0.252857
vt 0.872143 0.500000
vt 0.625000 0.497143
vt 0.375000 0.730000
vt 0.127857 0.750000
vt 0.375000 0.752857
vt 0.627857 0.750000
vt 0.625000 0.997143
s 1
usemtl MM2_GraphiteSteel
f 37/1/37 2/2/2 31/3/31
f 51/4/51 30/5/30 45/6/45
f 22/7/22 36/8/36 50/9/50
f 10/10/10 16/11/16 3/12/3
f 23/13/23 44/14/44 17/15/17
f 1/16/1 5/17/5 7/18/7
f 2/2/2 5/19/5 4/20/4
f 3/12/3 5/21/5 6/22/6
f 8/23/8 12/24/12 14/25/14
f 9/26/9 12/27/12 11/28/11
f 10/10/10 12/29/12 13/30/13
f 15/31/15 19/32/19 21/33/21
f 16/11/16 19/34/19 18/35/18
f 17/15/17 19/36/19 20/37/20
f 22/7/22 26/38/26 28/39/28
f 23/13/23 26/40/26 25/41/25
f 24/42/24 26/43/26 27/44/27
f 29/45/29 33/46/33 35/47/35
f 30/5/30 33/46/33 32/48/32
f 31/3/31 33/46/33 34/49/34
f 36/8/36 40/50/40 42/51/42
f 37/1/37 40/50/40 39/52/39
f 38/53/38 40/50/40 41/54/41
f 43/55/43 47/56/47 49/57/49
f 44/14/44 47/56/47 46/58/46
f 45/6/45 47/56/47 48/59/48
f 50/9/50 54/60/54 56/61/56
f 51/4/51 54/60/54 53/62/53
f 52/63/52 54/60/54 55/64/55
f 1/16/1 18/65/18 15/31/15
f 7/66/7 16/11/16 18/35/18
f 8/23/8 6/67/6 2/2/2
f 14/68/14 3/12/3 6/22/6
f 22/7/22 13/69/13 9/26/9
f 28/70/28 10/10/10 13/30/13
f 17/15/17 27/44/27 23/13/23
f 20/37/20 24/42/24 27/44/27
f 15/31/15 46/71/46 43/55/43
f 21/72/21 44/14/44 46/58/46
f 50/9/50 25/73/25 22/7/22
f 56/74/56 23/13/23 25/41/25
f 45/6/45 55/64/55 51/4/51
f 48/59/48 52/63/52 55/64/55
f 43/55/43 32/75/32 29/45/29
f 49/57/49 30/5/30 32/75/32
f 36/8/36 53/62/53 50/9/50
f 42/51/42 51/4/51 53/62/53
f 31/3/31 41/54/41 37/1/37
f 34/49/34 38/53/38 41/54/41
f 29/45/29 4/76/4 1/16/1
f 35/77/35 2/2/2 4/20/4
f 9/26/9 39/78/39 36/8/36
f 11/79/11 37/1/37 39/52/39
f 43/55/43 1/16/1 15/31/15
f 37/1/37 8/23/8 2/2/2
f 51/4/51 38/53/38 30/5/30
f 22/7/22 9/26/9 36/8/36
f 10/10/10 24/42/24 16/11/16
f 23/13/23 52/63/52 44/14/44
f 1/16/1 4/76/4 5/17/5
f 2/2/2 6/67/6 5/19/5
f 3/12/3 7/66/7 5/21/5
f 8/23/8 11/79/11 12/24/12
f 9/26/9 13/69/13 12/27/12
f 10/10/10 14/68/14 12/29/12
f 15/31/15 18/65/18 19/32/19
f 16/11/16 20/37/20 19/34/19
f 17/15/17 21/72/21 19/36/19
f 22/7/22 25/73/25 26/38/26
f 23/13/23 27/44/27 26/40/26
f 24/42/24 28/70/28 26/43/26
f 29/45/29 32/75/32 33/46/33
f 30/5/30 34/49/34 33/46/33
f 31/3/31 35/77/35 33/46/33
f 36/8/36 39/78/39 40/50/40
f 37/1/37 41/54/41 40/50/40
f 38/53/38 42/51/42 40/50/40
f 43/55/43 46/71/46 47/56/47
f 44/14/44 48/59/48 47/56/47
f 45/6/45 49/57/49 47/56/47
f 50/9/50 53/62/53 54/60/54
f 51/4/51 55/64/55 54/60/54
f 52/63/52 56/74/56 54/60/54
f 1/16/1 7/18/7 18/65/18
f 7/66/7 3/12/3 16/11/16
f 8/23/8 14/25/14 6/67/6
f 14/68/14 10/10/10 3/12/3
f 22/7/22 28/39/28 13/69/13
f 28/70/28 24/42/24 10/10/10
f 17/15/17 20/37/20 27/44/27
f 20/37/20 16/11/16 24/42/24
f 15/31/15 21/33/21 46/71/46
f 21/72/21 17/15/17 44/14/44
f 50/9/50 56/61/56 25/73/25
f 56/74/56 52/63/52 23/13/23
f 45/6/45 48/59/48 55/64/55
f 48/59/48 44/14/44 52/63/52
f 43/55/43 49/57/49 32/75/32
f 49/57/49 45/6/45 30/5/30
f 36/8/36 42/51/42 53/62/53
f 42/51/42 38/53/38 51/4/51
f 31/3/31 34/49/34 41/54/41
f 34/49/34 30/5/30 38/53/38
f 29/45/29 35/47/35 4/76/4
f 35/77/35 31/3/31 2/2/2
f 9/26/9 11/28/11 39/78/39
f 11/79/11 8/23/8 37/1/37
f 43/55/43 29/45/29 1/16/1
o AC_Door
v -0.150000 0.030000 -0.020000
v -0.150000 0.410000 -0.020000
v -0.150000 0.030000 -0.040000
v -0.150000 0.410000 -0.040000
v 0.150000 0.030000 -0.020000
v 0.150000 0.410000 -0.020000
v 0.150000 0.030000 -0.040000
v 0.150000 0.410000 -0.040000
vn -1.0000 -0.0000 -0.0000
vn -0.0000 -0.0000 -1.0000
vn 1.0000 -0.0000 -0.0000
vn -0.0000 -0.0000 1.0000
vn -0.0000 -1.0000 -0.0000
vn -0.0000 1.0000 -0.0000
vt 0.625000 0.000000
vt 0.375000 0.250000
vt 0.375000 0.000000
vt 0.625000 0.250000
vt 0.375000 0.500000
vt 0.625000 0.500000
vt 0.375000 0.750000
vt 0.625000 0.750000
vt 0.375000 1.000000
vt 0.125000 0.750000
vt 0.125000 0.500000
vt 0.875000 0.500000
vt 0.625000 1.000000
vt 0.875000 0.750000
s 0
usemtl MM2_Slate
f 58/80/57 59/81/57 57/82/57
f 60/83/58 63/84/58 59/81/58
f 64/85/59 61/86/59 63/84/59
f 62/87/60 57/88/60 61/86/60
f 63/84/61 57/89/61 59/90/61
f 60/91/62 62/87/62 64/85/62
f 58/80/57 60/83/57 59/81/57
f 60/83/58 64/85/58 63/84/58
f 64/85/59 62/87/59 61/86/59
f 62/87/60 58/92/60 57/88/60
f 63/84/61 61/86/61 57/89/61
f 60/91/62 58/93/62 62/87/62
o AC_Lock
v 0.100000 0.235000 -0.062500
v 0.100000 0.235000 -0.037500
v 0.108817 0.232135 -0.062500
v 0.108817 0.232135 -0.037500
v 0.114266 0.224635 -0.062500
v 0.114266 0.224635 -0.037500
v 0.114266 0.215365 -0.062500
v 0.114266 0.215365 -0.037500
v 0.108817 0.207865 -0.062500
v 0.108817 0.207865 -0.037500
v 0.100000 0.205000 -0.062500
v 0.100000 0.205000 -0.037500
v 0.091183 0.207865 -0.062500
v 0.091183 0.207865 -0.037500
v 0.085734 0.215365 -0.062500
v 0.085734 0.215365 -0.037500
v 0.085734 0.224635 -0.062500
v 0.085734 0.224635 -0.037500
v 0.091183 0.232135 -0.062500
v 0.091183 0.232135 -0.037500
vn 0.3090 0.9511 -0.0000
vn 0.8090 0.5878 -0.0000
vn 1.0000 -0.0000 -0.0000
vn 0.8090 -0.5878 -0.0000
vn 0.3090 -0.9511 -0.0000
vn -0.3090 -0.9511 -0.0000
vn -0.8090 -0.5878 -0.0000
vn -1.0000 -0.0000 -0.0000
vn -0.0000 -0.0000 1.0000
vn -0.8090 0.5878 -0.0000
vn -0.3090 0.9511 -0.0000
vn -0.0000 -0.0000 -1.0000
vt 1.000000 1.000000
vt 0.900000 0.500000
vt 1.000000 0.500000
vt 0.900000 1.000000
vt 0.800000 0.500000
vt 0.800000 1.000000
vt 0.700000 0.500000
vt 0.700000 1.000000
vt 0.600000 0.500000
vt 0.600000 1.000000
vt 0.500000 0.500000
vt 0.500000 1.000000
vt 0.400000 0.500000
vt 0.400000 1.000000
vt 0.300000 0.500000
vt 0.300000 1.000000
vt 0.200000 0.500000
vt 0.021746 0.324164
vt 0.391068 0.055836
vt 0.478254 0.324164
vt 0.200000 1.000000
vt 0.100000 0.500000
vt 0.100000 1.000000
vt -0.000000 0.500000
vt 0.978254 0.175836
vt 0.521746 0.175836
vt 0.608932 0.444164
vt 0.391068 0.444164
vt 0.250000 0.490000
vt 0.108932 0.444164
vt 0.021746 0.175836
vt 0.108932 0.055836
vt 0.250000 0.010000
vt 0.478254 0.175836
vt -0.000000 1.000000
vt 0.750000 0.490000
vt 0.891068 0.444164
vt 0.978254 0.324164
vt 0.891068 0.055836
vt 0.750000 0.010000
vt 0.608932 0.055836
vt 0.521746 0.324164
s 0
usemtl MM2_WarmBrass
f 66/94/63 67/95/63 65/96/63
f 68/97/64 69/98/64 67/95/64
f 70/99/65 71/100/65 69/98/65
f 72/101/66 73/102/66 71/100/66
f 74/103/67 75/104/67 73/102/67
f 76/105/68 77/106/68 75/104/68
f 78/107/69 79/108/69 77/106/69
f 80/109/70 81/110/70 79/108/70
f 82/111/71 74/112/71 70/113/71
f 82/114/72 83/115/72 81/110/72
f 84/116/73 65/117/73 83/115/73
f 71/118/74 79/119/74 83/120/74
f 66/94/63 68/97/63 67/95/63
f 68/97/64 70/99/64 69/98/64
f 70/99/65 72/101/65 71/100/65
f 72/101/66 74/103/66 73/102/66
f 74/103/67 76/105/67 75/104/67
f 76/105/68 78/107/68 77/106/68
f 78/107/69 80/109/69 79/108/69
f 80/109/70 82/114/70 81/110/70
f 70/113/71 68/121/71 66/122/71
f 66/122/71 84/123/71 82/111/71
f 82/111/71 80/124/71 78/125/71
f 78/125/71 76/126/71 74/112/71
f 74/112/71 72/127/71 70/113/71
f 70/113/71 66/122/71 82/111/71
f 82/111/71 78/125/71 74/112/71
f 82/114/72 84/116/72 83/115/72
f 84/116/73 66/128/73 65/117/73
f 83/120/74 65/129/74 67/130/74
f 67/130/74 69/131/74 71/118/74
f 71/118/74 73/132/74 75/133/74
f 75/133/74 77/134/74 79/119/74
f 79/119/74 81/135/74 83/120/74
f 83/120/74 67/130/74 71/118/74
f 71/118/74 75/133/74 79/119/74
o AC_Warn
v -0.110000 0.350000 -0.036000
v -0.110000 0.410000 -0.036000
v -0.110000 0.350000 -0.044000
v -0.110000 0.410000 -0.044000
v 0.110000 0.350000 -0.036000
v 0.110000 0.410000 -0.036000
v 0.110000 0.350000 -0.044000
v 0.110000 0.410000 -0.044000
vn -1.0000 -0.0000 -0.0000
vn -0.0000 -0.0000 -1.0000
vn 1.0000 -0.0000 -0.0000
vn -0.0000 -0.0000 1.0000
vn -0.0000 -1.0000 -0.0000
vn -0.0000 1.0000 -0.0000
vt 0.625000 0.000000
vt 0.375000 0.250000
vt 0.375000 0.000000
vt 0.625000 0.250000
vt 0.375000 0.500000
vt 0.625000 0.500000
vt 0.375000 0.750000
vt 0.625000 0.750000
vt 0.375000 1.000000
vt 0.125000 0.750000
vt 0.125000 0.500000
vt 0.875000 0.500000
vt 0.625000 1.000000
vt 0.875000 0.750000
s 0
usemtl MM2_SignWarn
f 86/136/75 87/137/75 85/138/75
f 88/139/76 91/140/76 87/137/76
f 92/141/77 89/142/77 91/140/77
f 90/143/78 85/144/78 89/142/78
f 91/140/79 85/145/79 87/146/79
f 88/147/80 90/143/80 92/141/80
f 86/136/75 88/139/75 87/137/75
f 88/139/76 92/141/76 91/140/76
f 92/141/77 90/143/77 89/142/77
f 90/143/78 86/148/78 85/144/78
f 91/140/79 89/142/79 85/145/79
f 88/147/80 86/149/80 90/143/80
o AC_Bolt_-0.14_0.08
v -0.140000 0.088000 -0.036000
v -0.140000 0.088000 -0.024000
v -0.135298 0.086472 -0.036000
v -0.135298 0.086472 -0.024000
v -0.132392 0.082472 -0.036000
v -0.132392 0.082472 -0.024000
v -0.132392 0.077528 -0.036000
v -0.132392 0.077528 -0.024000
v -0.135298 0.073528 -0.036000
v -0.135298 0.073528 -0.024000
v -0.140000 0.072000 -0.036000
v -0.140000 0.072000 -0.024000
v -0.144702 0.073528 -0.036000
v -0.144702 0.073528 -0.024000
v -0.147608 0.077528 -0.036000
v -0.147608 0.077528 -0.024000
v -0.147608 0.082472 -0.036000
v -0.147608 0.082472 -0.024000
v -0.144702 0.086472 -0.036000
v -0.144702 0.086472 -0.024000
vn 0.3090 0.9511 -0.0000
vn 0.8090 0.5878 -0.0000
vn 1.0000 -0.0000 -0.0000
vn 0.8090 -0.5878 -0.0000
vn 0.3090 -0.9511 -0.0000
vn -0.3090 -0.9511 -0.0000
vn -0.8090 -0.5878 -0.0000
vn -1.0000 -0.0000 -0.0000
vn -0.0000 -0.0000 1.0000
vn -0.8090 0.5878 -0.0000
vn -0.3090 0.9511 -0.0000
vn -0.0000 -0.0000 -1.0000
vt 1.000000 1.000000
vt 0.900000 0.500000
vt 1.000000 0.500000
vt 0.900000 1.000000
vt 0.800000 0.500000
vt 0.800000 1.000000
vt 0.700000 0.500000
vt 0.700000 1.000000
vt 0.600000 0.500000
vt 0.600000 1.000000
vt 0.500000 0.500000
vt 0.500000 1.000000
vt 0.400000 0.500000
vt 0.400000 1.000000
vt 0.300000 0.500000
vt 0.300000 1.000000
vt 0.200000 0.500000
vt 0.021746 0.324164
vt 0.391068 0.055836
vt 0.478254 0.324164
vt 0.200000 1.000000
vt 0.100000 0.500000
vt 0.100000 1.000000
vt -0.000000 0.500000
vt 0.978254 0.175836
vt 0.521746 0.175836
vt 0.608932 0.444164
vt 0.391068 0.444164
vt 0.250000 0.490000
vt 0.108932 0.444164
vt 0.021746 0.175836
vt 0.108932 0.055836
vt 0.250000 0.010000
vt 0.478254 0.175836
vt -0.000000 1.000000
vt 0.750000 0.490000
vt 0.891068 0.444164
vt 0.978254 0.324164
vt 0.891068 0.055836
vt 0.750000 0.010000
vt 0.608932 0.055836
vt 0.521746 0.324164
s 0
usemtl MM2_Bolt
f 94/150/81 95/151/81 93/152/81
f 96/153/82 97/154/82 95/151/82
f 98/155/83 99/156/83 97/154/83
f 100/157/84 101/158/84 99/156/84
f 102/159/85 103/160/85 101/158/85
f 104/161/86 105/162/86 103/160/86
f 106/163/87 107/164/87 105/162/87
f 108/165/88 109/166/88 107/164/88
f 110/167/89 102/168/89 98/169/89
f 110/170/90 111/171/90 109/166/90
f 112/172/91 93/173/91 111/171/91
f 99/174/92 107/175/92 111/176/92
f 94/150/81 96/153/81 95/151/81
f 96/153/82 98/155/82 97/154/82
f 98/155/83 100/157/83 99/156/83
f 100/157/84 102/159/84 101/158/84
f 102/159/85 104/161/85 103/160/85
f 104/161/86 106/163/86 105/162/86
f 106/163/87 108/165/87 107/164/87
f 108/165/88 110/170/88 109/166/88
f 98/169/89 96/177/89 94/178/89
f 94/178/89 112/179/89 110/167/89
f 110/167/89 108/180/89 106/181/89
f 106/181/89 104/182/89 102/168/89
f 102/168/89 100/183/89 98/169/89
f 98/169/89 94/178/89 110/167/89
f 110/167/89 106/181/89 102/168/89
f 110/170/90 112/172/90 111/171/90
f 112/172/91 94/184/91 93/173/91
f 111/176/92 93/185/92 95/186/92
f 95/186/92 97/187/92 99/174/92
f 99/174/92 101/188/92 103/189/92
f 103/189/92 105/190/92 107/175/92
f 107/175/92 109/191/92 111/176/92
f 111/176/92 95/186/92 99/174/92
f 99/174/92 103/189/92 107/175/92
o AC_Bolt_0.14_0.08
v 0.140000 0.088000 -0.036000
v 0.140000 0.088000 -0.024000
v 0.144702 0.086472 -0.036000
v 0.144702 0.086472 -0.024000
v 0.147608 0.082472 -0.036000
v 0.147608 0.082472 -0.024000
v 0.147608 0.077528 -0.036000
v 0.147608 0.077528 -0.024000
v 0.144702 0.073528 -0.036000
v 0.144702 0.073528 -0.024000
v 0.140000 0.072000 -0.036000
v 0.140000 0.072000 -0.024000
v 0.135298 0.073528 -0.036000
v 0.135298 0.073528 -0.024000
v 0.132392 0.077528 -0.036000
v 0.132392 0.077528 -0.024000
v 0.132392 0.082472 -0.036000
v 0.132392 0.082472 -0.024000
v 0.135298 0.086472 -0.036000
v 0.135298 0.086472 -0.024000
vn 0.3090 0.9511 -0.0000
vn 0.8090 0.5878 -0.0000
vn 1.0000 -0.0000 -0.0000
vn 0.8090 -0.5878 -0.0000
vn 0.3090 -0.9511 -0.0000
vn -0.3090 -0.9511 -0.0000
vn -0.8090 -0.5878 -0.0000
vn -1.0000 -0.0000 -0.0000
vn -0.0000 -0.0000 1.0000
vn -0.8090 0.5878 -0.0000
vn -0.3090 0.9511 -0.0000
vn -0.0000 -0.0000 -1.0000
vt 1.000000 1.000000
vt 0.900000 0.500000
vt 1.000000 0.500000
vt 0.900000 1.000000
vt 0.800000 0.500000
vt 0.800000 1.000000
vt 0.700000 0.500000
vt 0.700000 1.000000
vt 0.600000 0.500000
vt 0.600000 1.000000
vt 0.500000 0.500000
vt 0.500000 1.000000
vt 0.400000 0.500000
vt 0.400000 1.000000
vt 0.300000 0.500000
vt 0.300000 1.000000
vt 0.200000 0.500000
vt 0.021746 0.324164
vt 0.391068 0.055836
vt 0.478254 0.324164
vt 0.200000 1.000000
vt 0.100000 0.500000
vt 0.100000 1.000000
vt -0.000000 0.500000
vt 0.978254 0.175836
vt 0.521746 0.175836
vt 0.608932 0.444164
vt 0.391068 0.444164
vt 0.250000 0.490000
vt 0.108932 0.444164
vt 0.021746 0.175836
vt 0.108932 0.055836
vt 0.250000 0.010000
vt 0.478254 0.175836
vt -0.000000 1.000000
vt 0.750000 0.490000
vt 0.891068 0.444164
vt 0.978254 0.324164
vt 0.891068 0.055836
vt 0.750000 0.010000
vt 0.608932 0.055836
vt 0.521746 0.324164
s 0
usemtl MM2_Bolt
f 114/192/93 115/193/93 113/194/93
f 116/195/94 117/196/94 115/193/94
f 118/197/95 119/198/95 117/196/95
f 120/199/96 121/200/96 119/198/96
f 122/201/97 123/202/97 121/200/97
f 124/203/98 125/204/98 123/202/98
f 126/205/99 127/206/99 125/204/99
f 128/207/100 129/208/100 127/206/100
f 130/209/101 122/210/101 118/211/101
f 130/212/102 131/213/102 129/208/102
f 132/214/103 113/215/103 131/213/103
f 119/216/104 127/217/104 131/218/104
f 114/192/93 116/195/93 115/193/93
f 116/195/94 118/197/94 117/196/94
f 118/197/95 120/199/95 119/198/95
f 120/199/96 122/201/96 121/200/96
f 122/201/97 124/203/97 123/202/97
f 124/203/98 126/205/98 125/204/98
f 126/205/99 128/207/99 127/206/99
f 128/207/100 130/212/100 129/208/100
f 118/211/101 116/219/101 114/220/101
f 114/220/101 132/221/101 130/209/101
f 130/209/101 128/222/101 126/223/101
f 126/223/101 124/224/101 122/210/101
f 122/210/101 120/225/101 118/211/101
f 118/211/101 114/220/101 130/209/101
f 130/209/101 126/223/101 122/210/101
f 130/212/102 132/214/102 131/213/102
f 132/214/103 114/226/103 113/215/103
f 131/218/104 113/227/104 115/228/104
f 115/228/104 117/229/104 119/216/104
f 119/216/104 121/230/104 123/231/104
f 123/231/104 125/232/104 127/217/104
f 127/217/104 129/233/104 131/218/104
f 131/218/104 115/228/104 119/216/104
f 119/216/104 123/231/104 127/217/104
o AC_Bolt_-0.14_0.36
v -0.140000 0.368000 -0.036000
v -0.140000 0.368000 -0.024000
v -0.135298 0.366472 -0.036000
v -0.135298 0.366472 -0.024000
v -0.132392 0.362472 -0.036000
v -0.132392 0.362472 -0.024000
v -0.132392 0.357528 -0.036000
v -0.132392 0.357528 -0.024000
v -0.135298 0.353528 -0.036000
v -0.135298 0.353528 -0.024000
v -0.140000 0.352000 -0.036000
v -0.140000 0.352000 -0.024000
v -0.144702 0.353528 -0.036000
v -0.144702 0.353528 -0.024000
v -0.147608 0.357528 -0.036000
v -0.147608 0.357528 -0.024000
v -0.147608 0.362472 -0.036000
v -0.147608 0.362472 -0.024000
v -0.144702 0.366472 -0.036000
v -0.144702 0.366472 -0.024000
vn 0.3090 0.9511 -0.0000
vn 0.8090 0.5878 -0.0000
vn 1.0000 -0.0000 -0.0000
vn 0.8090 -0.5878 -0.0000
vn 0.3090 -0.9511 -0.0000
vn -0.3090 -0.9511 -0.0000
vn -0.8090 -0.5878 -0.0000
vn -1.0000 -0.0000 -0.0000
vn -0.0000 -0.0000 1.0000
vn -0.8090 0.5878 -0.0000
vn -0.3090 0.9511 -0.0000
vn -0.0000 -0.0000 -1.0000
vt 1.000000 1.000000
vt 0.900000 0.500000
vt 1.000000 0.500000
vt 0.900000 1.000000
vt 0.800000 0.500000
vt 0.800000 1.000000
vt 0.700000 0.500000
vt 0.700000 1.000000
vt 0.600000 0.500000
vt 0.600000 1.000000
vt 0.500000 0.500000
vt 0.500000 1.000000
vt 0.400000 0.500000
vt 0.400000 1.000000
vt 0.300000 0.500000
vt 0.300000 1.000000
vt 0.200000 0.500000
vt 0.021746 0.324164
vt 0.391068 0.055836
vt 0.478254 0.324164
vt 0.200000 1.000000
vt 0.100000 0.500000
vt 0.100000 1.000000
vt -0.000000 0.500000
vt 0.978254 0.175836
vt 0.521746 0.175836
vt 0.608932 0.444164
vt 0.391068 0.444164
vt 0.250000 0.490000
vt 0.108932 0.444164
vt 0.021746 0.175836
vt 0.108932 0.055836
vt 0.250000 0.010000
vt 0.478254 0.175836
vt -0.000000 1.000000
vt 0.750000 0.490000
vt 0.891068 0.444164
vt 0.978254 0.324164
vt 0.891068 0.055836
vt 0.750000 0.010000
vt 0.608932 0.055836
vt 0.521746 0.324164
s 0
usemtl MM2_Bolt
f 134/234/105 135/235/105 133/236/105
f 136/237/106 137/238/106 135/235/106
f 138/239/107 139/240/107 137/238/107
f 140/241/108 141/242/108 139/240/108
f 142/243/109 143/244/109 141/242/109
f 144/245/110 145/246/110 143/244/110
f 146/247/111 147/248/111 145/246/111
f 148/249/112 149/250/112 147/248/112
f 150/251/113 142/252/113 138/253/113
f 150/254/114 151/255/114 149/250/114
f 152/256/115 133/257/115 151/255/115
f 139/258/116 147/259/116 151/260/116
f 134/234/105 136/237/105 135/235/105
f 136/237/106 138/239/106 137/238/106
f 138/239/107 140/241/107 139/240/107
f 140/241/108 142/243/108 141/242/108
f 142/243/109 144/245/109 143/244/109
f 144/245/110 146/247/110 145/246/110
f 146/247/111 148/249/111 147/248/111
f 148/249/112 150/254/112 149/250/112
f 138/253/113 136/261/113 134/262/113
f 134/262/113 152/263/113 150/251/113
f 150/251/113 148/264/113 146/265/113
f 146/265/113 144/266/113 142/252/113
f 142/252/113 140/267/113 138/253/113
f 138/253/113 134/262/113 150/251/113
f 150/251/113 146/265/113 142/252/113
f 150/254/114 152/256/114 151/255/114
f 152/256/115 134/268/115 133/257/115
f 151/260/116 133/269/116 135/270/116
f 135/270/116 137/271/116 139/258/116
f 139/258/116 141/272/116 143/273/116
f 143/273/116 145/274/116 147/259/116
f 147/259/116 149/275/116 151/260/116
f 151/260/116 135/270/116 139/258/116
f 139/258/116 143/273/116 147/259/116
o AC_Bolt_0.14_0.36
v 0.140000 0.368000 -0.036000
v 0.140000 0.368000 -0.024000
v 0.144702 0.366472 -0.036000
v 0.144702 0.366472 -0.024000
v 0.147608 0.362472 -0.036000
v 0.147608 0.362472 -0.024000
v 0.147608 0.357528 -0.036000
v 0.147608 0.357528 -0.024000
v 0.144702 0.353528 -0.036000
v 0.144702 0.353528 -0.024000
v 0.140000 0.352000 -0.036000
v 0.140000 0.352000 -0.024000
v 0.135298 0.353528 -0.036000
v 0.135298 0.353528 -0.024000
v 0.132392 0.357528 -0.036000
v 0.132392 0.357528 -0.024000
v 0.132392 0.362472 -0.036000
v 0.132392 0.362472 -0.024000
v 0.135298 0.366472 -0.036000
v 0.135298 0.366472 -0.024000
vn 0.3090 0.9511 -0.0000
vn 0.8090 0.5878 -0.0000
vn 1.0000 -0.0000 -0.0000
vn 0.8090 -0.5878 -0.0000
vn 0.3090 -0.9511 -0.0000
vn -0.3090 -0.9511 -0.0000
vn -0.8090 -0.5878 -0.0000
vn -1.0000 -0.0000 -0.0000
vn -0.0000 -0.0000 1.0000
vn -0.8090 0.5878 -0.0000
vn -0.3090 0.9511 -0.0000
vn -0.0000 -0.0000 -1.0000
vt 1.000000 1.000000
vt 0.900000 0.500000
vt 1.000000 0.500000
vt 0.900000 1.000000
vt 0.800000 0.500000
vt 0.800000 1.000000
vt 0.700000 0.500000
vt 0.700000 1.000000
vt 0.600000 0.500000
vt 0.600000 1.000000
vt 0.500000 0.500000
vt 0.500000 1.000000
vt 0.400000 0.500000
vt 0.400000 1.000000
vt 0.300000 0.500000
vt 0.300000 1.000000
vt 0.200000 0.500000
vt 0.021746 0.324164
vt 0.391068 0.055836
vt 0.478254 0.324164
vt 0.200000 1.000000
vt 0.100000 0.500000
vt 0.100000 1.000000
vt -0.000000 0.500000
vt 0.978254 0.175836
vt 0.521746 0.175836
vt 0.608932 0.444164
vt 0.391068 0.444164
vt 0.250000 0.490000
vt 0.108932 0.444164
vt 0.021746 0.175836
vt 0.108932 0.055836
vt 0.250000 0.010000
vt 0.478254 0.175836
vt -0.000000 1.000000
vt 0.750000 0.490000
vt 0.891068 0.444164
vt 0.978254 0.324164
vt 0.891068 0.055836
vt 0.750000 0.010000
vt 0.608932 0.055836
vt 0.521746 0.324164
s 0
usemtl MM2_Bolt
f 154/276/117 155/277/117 153/278/117
f 156/279/118 157/280/118 155/277/118
f 158/281/119 159/282/119 157/280/119
f 160/283/120 161/284/120 159/282/120
f 162/285/121 163/286/121 161/284/121
f 164/287/122 165/288/122 163/286/122
f 166/289/123 167/290/123 165/288/123
f 168/291/124 169/292/124 167/290/124
f 170/293/125 162/294/125 158/295/125
f 170/296/126 171/297/126 169/292/126
f 172/298/127 153/299/127 171/297/127
f 159/300/128 167/301/128 171/302/128
f 154/276/117 156/279/117 155/277/117
f 156/279/118 158/281/118 157/280/118
f 158/281/119 160/283/119 159/282/119
f 160/283/120 162/285/120 161/284/120
f 162/285/121 164/287/121 163/286/121
f 164/287/122 166/289/122 165/288/122
f 166/289/123 168/291/123 167/290/123
f 168/291/124 170/296/124 169/292/124
f 158/295/125 156/303/125 154/304/125
f 154/304/125 172/305/125 170/293/125
f 170/293/125 168/306/125 166/307/125
f 166/307/125 164/308/125 162/294/125
f 162/294/125 160/309/125 158/295/125
f 158/295/125 154/304/125 170/293/125
f 170/293/125 166/307/125 162/294/125
f 170/296/126 172/298/126 171/297/126
f 172/298/127 154/310/127 153/299/127
f 171/302/128 153/311/128 155/312/128
f 155/312/128 157/313/128 159/300/128
f 159/300/128 161/314/128 163/315/128
f 163/315/128 165/316/128 167/301/128
f 167/301/128 169/317/128 171/302/128
f 171/302/128 155/312/128 159/300/128
f 159/300/128 163/315/128 167/301/128
