# Blender 4.2.8 LTS
# www.blender.org
mtllib hm_bank_alarm_panel_v2.mtl
o AP_Body
v -0.136000 0.000000 0.026000
v -0.136000 0.004000 0.030000
v -0.140000 0.004000 0.026000
v -0.136000 0.001172 0.028828
v -0.138309 0.001691 0.028309
v -0.138828 0.004000 0.028828
v -0.138828 0.001172 0.026000
v -0.136000 0.376000 0.030000
v -0.136000 0.380000 0.026000
v -0.140000 0.376000 0.026000
v -0.136000 0.378828 0.028828
v -0.138309 0.378309 0.028309
v -0.138828 0.378828 0.026000
v -0.138828 0.376000 0.028828
v -0.136000 0.000000 -0.026000
v -0.140000 0.004000 -0.026000
v -0.136000 0.004000 -0.030000
v -0.138828 0.001172 -0.026000
v -0.138309 0.001691 -0.028309
v -0.138828 0.004000 -0.028828
v -0.136000 0.001172 -0.028828
v -0.136000 0.380000 -0.026000
v -0.136000 0.376000 -0.030000
v -0.140000 0.376000 -0.026000
v -0.136000 0.378828 -0.028828
v -0.138309 0.378309 -0.028309
v -0.138828 0.376000 -0.028828
v -0.138828 0.378828 -0.026000
v 0.136000 0.000000 0.026000
v 0.140000 0.004000 0.026000
v 0.136000 0.004000 0.030000
v 0.138828 0.001172 0.026000
v 0.138309 0.001691 0.028309
v 0.138828 0.004000 0.028828
v 0.136000 0.001172 0.028828
v 0.136000 0.380000 0.026000
v 0.136000 0.376000 0.030000
v 0.140000 0.376000 0.026000
v 0.136000 0.378828 0.028828
v 0.138309 0.378309 0.028309
v 0.138828 0.376000 0.028828
v 0.138828 0.378828 0.026000
v 0.136000 0.000000 -0.026000
v 0.136000 0.004000 -0.030000
v 0.140000 0.004000 -0.026000
v 0.136000 0.001172 -0.028828
v 0.138309 0.001691 -0.028309
v 0.138828 0.004000 -0.028828
v 0.138828 0.001172 -0.026000
v 0.136000 0.380000 -0.026000
v 0.140000 0.376000 -0.026000
v 0.136000 0.376000 -0.030000
v 0.138828 0.378828 -0.026000
v 0.138309 0.378309 -0.028309
v 0.138828 0.376000 -0.028828
v 0.136000 0.378828 -0.028828
vn -0.1794 -0.9673 0.1794
vn -0.1794 -0.1794 0.9673
vn -0.9673 -0.1794 0.1794
vn -0.1479 -0.6993 0.6993
vn -0.5774 -0.5773 0.5774
vn -0.6993 -0.1479 0.6993
vn -0.6993 -0.6993 0.1479
vn -0.1794 0.1794 0.9673
vn -0.1794 0.9673 0.1794
vn -0.9673 0.1794 0.1794
vn -0.1479 0.6993 0.6993
vn -0.5774 0.5773 0.5774
vn -0.6993 0.6993 0.1479
vn -0.6993 0.1479 0.6993
vn -0.1794 -0.9673 -0.1794
vn -0.9673 -0.1794 -0.1794
vn -0.1794 -0.1794 -0.9673
vn -0.6993 -0.6993 -0.1479
vn -0.5774 -0.5773 -0.5774
vn -0.6993 -0.1479 -0.6993
vn -0.1479 -0.6993 -0.6993
vn -0.1794 0.9673 -0.1794
vn -0.1794 0.1794 -0.9673
vn -0.9673 0.1794 -0.1794
vn -0.1479 0.6993 -0.6993
vn -0.5774 0.5773 -0.5774
vn -0.6993 0.1479 -0.6993
vn -0.6993 0.6993 -0.1479
vn 0.1794 -0.9673 0.1794
vn 0.9673 -0.1794 0.1794
vn 0.1794 -0.1794 0.9673
vn 0.6993 -0.6993 0.1479
vn 0.5774 -0.5773 0.5774
vn 0.6993 -0.1479 0.6993
vn 0.1479 -0.6993 0.6993
vn 0.1794 0.9673 0.1794
vn 0.1794 0.1794 0.9673
vn 0.9673 0.1794 0.1794
vn 0.1479 0.6993 0.6993
vn 0.5774 0.5773 0.5774
vn 0.6993 0.1479 0.6993
vn 0.6993 0.6993 0.1479
vn 0.1794 -0.9673 -0.1794
vn 0.1794 -0.1794 -0.9673
vn 0.9673 -0.1794 -0.1794
vn 0.1479 -0.6993 -0.6993
vn 0.5774 -0.5773 -0.5774
vn 0.6993 -0.1479 -0.6993
vn 0.6993 -0.6993 -0.1479
vn 0.1794 0.9673 -0.1794
vn 0.9673 0.1794 -0.1794
vn 0.1794 0.1794 -0.9673
vn 0.6993 0.6993 -0.1479
vn 0.5774 0.5773 -0.5774
vn 0.6993 0.1479 -0.6993
vn 0.1479 0.6993 -0.6993
vt 0.622368 0.753571
vt 0.377632 0.996429
vt 0.377632 0.753571
vt 0.622368 0.516667
vt 0.377632 0.733333
vt 0.377632 0.516667
vt 0.871428 0.516667
vt 0.628571 0.733333
vt 0.628571 0.516667
vt 0.622368 0.016667
vt 0.377632 0.233333
vt 0.377632 0.016667
vt 0.622368 0.253571
vt 0.377632 0.496429
vt 0.377632 0.253571
vt 0.128571 0.733333
vt 0.126509 0.750000
vt 0.125000 0.733333
vt 0.376112 1.000000
vt 0.375000 0.996429
vt 0.375000 0.007044
vt 0.377632 0.000000
vt 0.622368 0.996429
vt 0.625000 0.998491
vt 0.622368 1.000000
vt 0.871428 0.733333
vt 0.875000 0.742956
vt 0.871429 0.750000
vt 0.623888 0.000000
vt 0.625000 0.016667
vt 0.128571 0.516667
vt 0.125000 0.507044
vt 0.128571 0.500000
vt 0.376112 0.250000
vt 0.375000 0.233333
vt 0.375000 0.251509
vt 0.377632 0.250000
vt 0.873491 0.500000
vt 0.875000 0.516667
vt 0.623888 0.250000
vt 0.625000 0.253571
vt 0.622368 0.233333
vt 0.625000 0.242956
vt 0.622368 0.250000
vt 0.371429 0.733333
vt 0.375371 0.748155
vt 0.371429 0.750000
vt 0.375000 0.733333
vt 0.377632 0.750000
vt 0.625132 0.747652
vt 0.625000 0.733333
vt 0.625000 0.753571
vt 0.622368 0.733333
vt 0.622368 0.750000
vt 0.371429 0.516667
vt 0.374868 0.502348
vt 0.375000 0.516667
vt 0.375000 0.496429
vt 0.377632 0.500000
vt 0.624629 0.501845
vt 0.628571 0.500000
vt 0.625000 0.516667
vt 0.622368 0.496429
vt 0.622368 0.500000
vt 0.125000 0.516667
vt 0.375000 0.016667
vt 0.377632 1.000000
vt 0.622368 0.000000
vt 0.875000 0.733333
vt 0.625000 0.233333
vt 0.377632 0.250000
vt 0.371429 0.500000
vt 0.375000 0.253571
vt 0.871429 0.500000
vt 0.625000 0.496429
vt 0.377632 0.500000
vt 0.375000 0.733333
vt 0.377632 0.750000
vt 0.128571 0.750000
vt 0.375000 0.753571
vt 0.628571 0.750000
vt 0.625000 0.996429
vt 0.625000 0.733333
vt 0.625000 0.516667
s 1
usemtl MM2_Slate
f 37/1/37 2/2/2 31/3/31
f 51/4/51 30/5/30 45/6/45
f 22/7/22 36/8/36 50/9/50
f 10/10/10 16/11/16 3/12/3
f 23/13/23 44/14/44 17/15/17
f 1/16/1 5/17/5 7/18/7
f 2/2/2 5/19/5 4/20/4
f 3/12/3 5/21/5 6/22/6
f 8/23/8 12/24/12 14/25/14
f 9/26/9 12/27/12 11/28/11
f 10/10/10 12/29/12 13/30/13
f 15/31/15 19/32/19 21/33/21
f 16/11/16 19/34/19 18/35/18
f 17/15/17 19/36/19 20/37/20
f 22/7/22 26/38/26 28/39/28
f 23/13/23 26/40/26 25/41/25
f 24/42/24 26/43/26 27/44/27
f 29/45/29 33/46/33 35/47/35
f 30/5/30 33/46/33 32/48/32
f 31/3/31 33/46/33 34/49/34
f 36/8/36 40/50/40 42/51/42
f 37/1/37 40/50/40 39/52/39
f 38/53/38 40/50/40 41/54/41
f 43/55/43 47/56/47 49/57/49
f 44/14/44 47/56/47 46/58/46
f 45/6/45 47/56/47 48/59/48
f 50/9/50 54/60/54 56/61/56
f 51/4/51 54/60/54 53/62/53
f 52/63/52 54/60/54 55/64/55
f 15/31/15 7/18/7 18/65/18
f 7/66/7 16/11/16 18/35/18
f 8/23/8 6/67/6 2/2/2
f 14/68/14 3/12/3 6/22/6
f 9/26/9 28/39/28 13/69/13
f 28/70/28 10/10/10 13/30/13
f 17/15/17 27/44/27 23/13/23
f 20/71/20 24/42/24 27/44/27
f 15/31/15 46/72/46 43/55/43
f 21/73/21 44/14/44 46/58/46
f 50/9/50 25/74/25 22/7/22
f 56/75/56 23/13/23 25/41/25
f 51/4/51 48/76/48 55/64/55
f 48/76/48 52/63/52 55/64/55
f 29/45/29 49/57/49 32/77/32
f 49/57/49 30/5/30 32/77/32
f 50/9/50 42/51/42 53/62/53
f 42/51/42 51/4/51 53/62/53
f 31/3/31 41/54/41 37/1/37
f 34/78/34 38/53/38 41/54/41
f 29/45/29 4/79/4 1/16/1
f 35/80/35 2/2/2 4/20/4
f 9/26/9 39/81/39 36/8/36
f 11/82/11 37/1/37 39/52/39
f 43/55/43 1/16/1 15/31/15
f 37/1/37 8/23/8 2/2/2
f 51/4/51 38/53/38 30/5/30
f 22/7/22 9/26/9 36/8/36
f 10/10/10 24/42/24 16/11/16
f 23/13/23 52/63/52 44/14/44
f 1/16/1 4/79/4 5/17/5
f 2/2/2 6/67/6 5/19/5
f 3/12/3 7/66/7 5/21/5
f 8/23/8 11/82/11 12/24/12
f 9/26/9 13/69/13 12/27/12
f 10/10/10 14/68/14 12/29/12
f 15/31/15 18/65/18 19/32/19
f 16/11/16 20/71/20 19/34/19
f 17/15/17 21/73/21 19/36/19
f 22/7/22 25/74/25 26/38/26
f 23/13/23 27/44/27 26/40/26
f 24/42/24 28/70/28 26/43/26
f 29/45/29 32/77/32 33/46/33
f 30/5/30 34/78/34 33/46/33
f 31/3/31 35/80/35 33/46/33
f 36/8/36 39/81/39 40/50/40
f 37/1/37 41/54/41 40/50/40
f 38/53/38 42/83/42 40/50/40
f 43/55/43 46/72/46 47/56/47
f 44/14/44 48/76/48 47/56/47
f 45/6/45 49/57/49 47/56/47
f 50/9/50 53/84/53 54/60/54
f 51/4/51 55/64/55 54/60/54
f 52/63/52 56/75/56 54/60/54
f 15/31/15 1/16/1 7/18/7
f 7/66/7 3/12/3 16/11/16
f 8/23/8 14/25/14 6/67/6
f 14/68/14 10/10/10 3/12/3
f 9/26/9 22/7/22 28/39/28
f 28/70/28 24/42/24 10/10/10
f 17/15/17 20/71/20 27/44/27
f 20/71/20 16/11/16 24/42/24
f 15/31/15 21/33/21 46/72/46
f 21/73/21 17/15/17 44/14/44
f 50/9/50 56/61/56 25/74/25
f 56/75/56 52/63/52 23/13/23
f 51/4/51 45/6/45 48/76/48
f 48/76/48 44/14/44 52/63/52
f 29/45/29 43/55/43 49/57/49
f 49/57/49 45/6/45 30/5/30
f 50/9/50 36/8/36 42/51/42
f 42/51/42 38/53/38 51/4/51
f 31/3/31 34/78/34 41/54/41
f 34/78/34 30/5/30 38/53/38
f 29/45/29 35/47/35 4/79/4
f 35/80/35 31/3/31 2/2/2
f 9/26/9 11/28/11 39/81/39
f 11/82/11 8/23/8 37/1/37
f 43/55/43 29/45/29 1/16/1
o AP_Key_0_0
v -0.080000 0.100000 -0.032500
v -0.080000 0.140000 -0.032500
v -0.080000 0.100000 -0.047500
v -0.080000 0.140000 -0.047500
v -0.040000 0.100000 -0.032500
v -0.040000 0.140000 -0.032500
v -0.040000 0.100000 -0.047500
v -0.040000 0.140000 -0.047500
vn -1.0000 -0.0000 -0.0000
vn -0.0000 -0.0000 -1.0000
vn 1.0000 -0.0000 -0.0000
vn -0.0000 -0.0000 1.0000
vn -0.0000 -1.0000 -0.0000
vn -0.0000 1.0000 -0.0000
vt 0.625000 0.000000
vt 0.375000 0.250000
vt 0.375000 0.000000
vt 0.625000 0.250000
vt 0.375000 0.500000
vt 0.625000 0.500000
vt 0.375000 0.750000
vt 0.625000 0.750000
vt 0.375000 1.000000
vt 0.125000 0.750000
vt 0.125000 0.500000
vt 0.875000 0.500000
vt 0.625000 1.000000
vt 0.875000 0.750000
s 0
usemtl MM2_Plastic
f 58/85/57 59/86/57 57/87/57
f 60/88/58 63/89/58 59/86/58
f 64/90/59 61/91/59 63/89/59
f 62/92/60 57/93/60 61/91/60
f 63/89/61 57/94/61 59/95/61
f 60/96/62 62/92/62 64/90/62
f 58/85/57 60/88/57 59/86/57
f 60/88/58 64/90/58 63/89/58
f 64/90/59 62/92/59 61/91/59
f 62/92/60 58/97/60 57/93/60
f 63/89/61 61/91/61 57/94/61
f 60/96/62 58/98/62 62/92/62
o AP_Key_0_1
v -0.020000 0.100000 -0.032500
v -0.020000 0.140000 -0.032500
v -0.020000 0.100000 -0.047500
v -0.020000 0.140000 -0.047500
v 0.020000 0.100000 -0.032500
v 0.020000 0.140000 -0.032500
v 0.020000 0.100000 -0.047500
v 0.020000 0.140000 -0.047500
vn -1.0000 -0.0000 -0.0000
vn -0.0000 -0.0000 -1.0000
vn 1.0000 -0.0000 -0.0000
vn -0.0000 -0.0000 1.0000
vn -0.0000 -1.0000 -0.0000
vn -0.0000 1.0000 -0.0000
vt 0.625000 0.000000
vt 0.375000 0.250000
vt 0.375000 0.000000
vt 0.625000 0.250000
vt 0.375000 0.500000
vt 0.625000 0.500000
vt 0.375000 0.750000
vt 0.625000 0.750000
vt 0.375000 1.000000
vt 0.125000 0.750000
vt 0.125000 0.500000
vt 0.875000 0.500000
vt 0.625000 1.000000
vt 0.875000 0.750000
s 0
usemtl MM2_Plastic
f 66/99/63 67/100/63 65/101/63
f 68/102/64 71/103/64 67/100/64
f 72/104/65 69/105/65 71/103/65
f 70/106/66 65/107/66 69/105/66
f 71/103/67 65/108/67 67/109/67
f 68/110/68 70/106/68 72/104/68
f 66/99/63 68/102/63 67/100/63
f 68/102/64 72/104/64 71/103/64
f 72/104/65 70/106/65 69/105/65
f 70/106/66 66/111/66 65/107/66
f 71/103/67 69/105/67 65/108/67
f 68/110/68 66/112/68 70/106/68
o AP_Key_0_2
v 0.040000 0.100000 -0.032500
v 0.040000 0.140000 -0.032500
v 0.040000 0.100000 -0.047500
v 0.040000 0.140000 -0.047500
v 0.080000 0.100000 -0.032500
v 0.080000 0.140000 -0.032500
v 0.080000 0.100000 -0.047500
v 0.080000 0.140000 -0.047500
vn -1.0000 -0.0000 -0.0000
vn -0.0000 -0.0000 -1.0000
vn 1.0000 -0.0000 -0.0000
vn -0.0000 -0.0000 1.0000
vn -0.0000 -1.0000 -0.0000
vn -0.0000 1.0000 -0.0000
vt 0.625000 0.000000
vt 0.375000 0.250000
vt 0.375000 0.000000
vt 0.625000 0.250000
vt 0.375000 0.500000
vt 0.625000 0.500000
vt 0.375000 0.750000
vt 0.625000 0.750000
vt 0.375000 1.000000
vt 0.125000 0.750000
vt 0.125000 0.500000
vt 0.875000 0.500000
vt 0.625000 1.000000
vt 0.875000 0.750000
s 0
usemtl MM2_Plastic
f 74/113/69 75/114/69 73/115/69
f 76/116/70 79/117/70 75/114/70
f 80/118/71 77/119/71 79/117/71
f 78/120/72 73/121/72 77/119/72
f 79/117/73 73/122/73 75/123/73
f 76/124/74 78/120/74 80/118/74
f 74/113/69 76/116/69 75/114/69
f 76/116/70 80/118/70 79/117/70
f 80/118/71 78/120/71 77/119/71
f 78/120/72 74/125/72 73/121/72
f 79/117/73 77/119/73 73/122/73
f 76/124/74 74/126/74 78/120/74
o AP_Key_1_0
v -0.080000 0.160000 -0.032500
v -0.080000 0.200000 -0.032500
v -0.080000 0.160000 -0.047500
v -0.080000 0.200000 -0.047500
v -0.040000 0.160000 -0.032500
v -0.040000 0.200000 -0.032500
v -0.040000 0.160000 -0.047500
v -0.040000 0.200000 -0.047500
vn -1.0000 -0.0000 -0.0000
vn -0.0000 -0.0000 -1.0000
vn 1.0000 -0.0000 -0.0000
vn -0.0000 -0.0000 1.0000
vn -0.0000 -1.0000 -0.0000
vn -0.0000 1.0000 -0.0000
vt 0.625000 0.000000
vt 0.375000 0.250000
vt 0.375000 0.000000
vt 0.625000 0.250000
vt 0.375000 0.500000
vt 0.625000 0.500000
vt 0.375000 0.750000
vt 0.625000 0.750000
vt 0.375000 1.000000
vt 0.125000 0.750000
vt 0.125000 0.500000
vt 0.875000 0.500000
vt 0.625000 1.000000
vt 0.875000 0.750000
s 0
usemtl MM2_Plastic
f 82/127/75 83/128/75 81/129/75
f 84/130/76 87/131/76 83/128/76
f 88/132/77 85/133/77 87/131/77
f 86/134/78 81/135/78 85/133/78
f 87/131/79 81/136/79 83/137/79
f 84/138/80 86/134/80 88/132/80
f 82/127/75 84/130/75 83/128/75
f 84/130/76 88/132/76 87/131/76
f 88/132/77 86/134/77 85/133/77
f 86/134/78 82/139/78 81/135/78
f 87/131/79 85/133/79 81/136/79
f 84/138/80 82/140/80 86/134/80
o AP_Key_1_1
v -0.020000 0.160000 -0.032500
v -0.020000 0.200000 -0.032500
v -0.020000 0.160000 -0.047500
v -0.020000 0.200000 -0.047500
v 0.020000 0.160000 -0.032500
v 0.020000 0.200000 -0.032500
v 0.020000 0.160000 -0.047500
v 0.020000 0.200000 -0.047500
vn -1.0000 -0.0000 -0.0000
vn -0.0000 -0.0000 -1.0000
vn 1.0000 -0.0000 -0.0000
vn -0.0000 -0.0000 1.0000
vn -0.0000 -1.0000 -0.0000
vn -0.0000 1.0000 -0.0000
vt 0.625000 0.000000
vt 0.375000 0.250000
vt 0.375000 0.000000
vt 0.625000 0.250000
vt 0.375000 0.500000
vt 0.625000 0.500000
vt 0.375000 0.750000
vt 0.625000 0.750000
vt 0.375000 1.000000
vt 0.125000 0.750000
vt 0.125000 0.500000
vt 0.875000 0.500000
vt 0.625000 1.000000
vt 0.875000 0.750000
s 0
usemtl MM2_Plastic
f 90/141/81 91/142/81 89/143/81
f 92/144/82 95/145/82 91/142/82
f 96/146/83 93/147/83 95/145/83
f 94/148/84 89/149/84 93/147/84
f 95/145/85 89/150/85 91/151/85
f 92/152/86 94/148/86 96/146/86
f 90/141/81 92/144/81 91/142/81
f 92/144/82 96/146/82 95/145/82
f 96/146/83 94/148/83 93/147/83
f 94/148/84 90/153/84 89/149/84
f 95/145/85 93/147/85 89/150/85
f 92/152/86 90/154/86 94/148/86
o AP_Key_1_2
v 0.040000 0.160000 -0.032500
v 0.040000 0.200000 -0.032500
v 0.040000 0.160000 -0.047500
v 0.040000 0.200000 -0.047500
v 0.080000 0.160000 -0.032500
v 0.080000 0.200000 -0.032500
v 0.080000 0.160000 -0.047500
v 0.080000 0.200000 -0.047500
vn -1.0000 -0.0000 -0.0000
vn -0.0000 -0.0000 -1.0000
vn 1.0000 -0.0000 -0.0000
vn -0.0000 -0.0000 1.0000
vn -0.0000 -1.0000 -0.0000
vn -0.0000 1.0000 -0.0000
vt 0.625000 0.000000
vt 0.375000 0.250000
vt 0.375000 0.000000
vt 0.625000 0.250000
vt 0.375000 0.500000
vt 0.625000 0.500000
vt 0.375000 0.750000
vt 0.625000 0.750000
vt 0.375000 1.000000
vt 0.125000 0.750000
vt 0.125000 0.500000
vt 0.875000 0.500000
vt 0.625000 1.000000
vt 0.875000 0.750000
s 0
usemtl MM2_Plastic
f 98/155/87 99/156/87 97/157/87
f 100/158/88 103/159/88 99/156/88
f 104/160/89 101/161/89 103/159/89
f 102/162/90 97/163/90 101/161/90
f 103/159/91 97/164/91 99/165/91
f 100/166/92 102/162/92 104/160/92
f 98/155/87 100/158/87 99/156/87
f 100/158/88 104/160/88 103/159/88
f 104/160/89 102/162/89 101/161/89
f 102/162/90 98/167/90 97/163/90
f 103/159/91 101/161/91 97/164/91
f 100/166/92 98/168/92 102/162/92
o AP_Key_2_0
v -0.080000 0.220000 -0.032500
v -0.080000 0.260000 -0.032500
v -0.080000 0.220000 -0.047500
v -0.080000 0.260000 -0.047500
v -0.040000 0.220000 -0.032500
v -0.040000 0.260000 -0.032500
v -0.040000 0.220000 -0.047500
v -0.040000 0.260000 -0.047500
vn -1.0000 -0.0000 -0.0000
vn -0.0000 -0.0000 -1.0000
vn 1.0000 -0.0000 -0.0000
vn -0.0000 -0.0000 1.0000
vn -0.0000 -1.0000 -0.0000
vn -0.0000 1.0000 -0.0000
vt 0.625000 0.000000
vt 0.375000 0.250000
vt 0.375000 0.000000
vt 0.625000 0.250000
vt 0.375000 0.500000
vt 0.625000 0.500000
vt 0.375000 0.750000
vt 0.625000 0.750000
vt 0.375000 1.000000
vt 0.125000 0.750000
vt 0.125000 0.500000
vt 0.875000 0.500000
vt 0.625000 1.000000
vt 0.875000 0.750000
s 0
usemtl MM2_Plastic
f 106/169/93 107/170/93 105/171/93
f 108/172/94 111/173/94 107/170/94
f 112/174/95 109/175/95 111/173/95
f 110/176/96 105/177/96 109/175/96
f 111/173/97 105/178/97 107/179/97
f 108/180/98 110/176/98 112/174/98
f 106/169/93 108/172/93 107/170/93
f 108/172/94 112/174/94 111/173/94
f 112/174/95 110/176/95 109/175/95
f 110/176/96 106/181/96 105/177/96
f 111/173/97 109/175/97 105/178/97
f 108/180/98 106/182/98 110/176/98
o AP_Key_2_1
v -0.020000 0.220000 -0.032500
v -0.020000 0.260000 -0.032500
v -0.020000 0.220000 -0.047500
v -0.020000 0.260000 -0.047500
v 0.020000 0.220000 -0.032500
v 0.020000 0.260000 -0.032500
v 0.020000 0.220000 -0.047500
v 0.020000 0.260000 -0.047500
vn -1.0000 -0.0000 -0.0000
vn -0.0000 -0.0000 -1.0000
vn 1.0000 -0.0000 -0.0000
vn -0.0000 -0.0000 1.0000
vn -0.0000 -1.0000 -0.0000
vn -0.0000 1.0000 -0.0000
vt 0.625000 0.000000
vt 0.375000 0.250000
vt 0.375000 0.000000
vt 0.625000 0.250000
vt 0.375000 0.500000
vt 0.625000 0.500000
vt 0.375000 0.750000
vt 0.625000 0.750000
vt 0.375000 1.000000
vt 0.125000 0.750000
vt 0.125000 0.500000
vt 0.875000 0.500000
vt 0.625000 1.000000
vt 0.875000 0.750000
s 0
usemtl MM2_Plastic
f 114/183/99 115/184/99 113/185/99
f 116/186/100 119/187/100 115/184/100
f 120/188/101 117/189/101 119/187/101
f 118/190/102 113/191/102 117/189/102
f 119/187/103 113/192/103 115/193/103
f 116/194/104 118/190/104 120/188/104
f 114/183/99 116/186/99 115/184/99
f 116/186/100 120/188/100 119/187/100
f 120/188/101 118/190/101 117/189/101
f 118/190/102 114/195/102 113/191/102
f 119/187/103 117/189/103 113/192/103
f 116/194/104 114/196/104 118/190/104
o AP_Key_2_2
v 0.040000 0.220000 -0.032500
v 0.040000 0.260000 -0.032500
v 0.040000 0.220000 -0.047500
v 0.040000 0.260000 -0.047500
v 0.080000 0.220000 -0.032500
v 0.080000 0.260000 -0.032500
v 0.080000 0.220000 -0.047500
v 0.080000 0.260000 -0.047500
vn -1.0000 -0.0000 -0.0000
vn -0.0000 -0.0000 -1.0000
vn 1.0000 -0.0000 -0.0000
vn -0.0000 -0.0000 1.0000
vn -0.0000 -1.0000 -0.0000
vn -0.0000 1.0000 -0.0000
vt 0.625000 0.000000
vt 0.375000 0.250000
vt 0.375000 0.000000
vt 0.625000 0.250000
vt 0.375000 0.500000
vt 0.625000 0.500000
vt 0.375000 0.750000
vt 0.625000 0.750000
vt 0.375000 1.000000
vt 0.125000 0.750000
vt 0.125000 0.500000
vt 0.875000 0.500000
vt 0.625000 1.000000
vt 0.875000 0.750000
s 0
usemtl MM2_Plastic
f 122/197/105 123/198/105 121/199/105
f 124/200/106 127/201/106 123/198/106
f 128/202/107 125/203/107 127/201/107
f 126/204/108 121/205/108 125/203/108
f 127/201/109 121/206/109 123/207/109
f 124/208/110 126/204/110 128/202/110
f 122/197/105 124/200/105 123/198/105
f 124/200/106 128/202/106 127/201/106
f 128/202/107 126/204/107 125/203/107
f 126/204/108 122/209/108 121/205/108
f 127/201/109 125/203/109 121/206/109
f 124/208/110 122/210/110 126/204/110
o AP_LED_0
v -0.100000 0.310000 -0.034000
v -0.100000 0.330000 -0.034000
v -0.100000 0.310000 -0.046000
v -0.100000 0.330000 -0.046000
v -0.060000 0.310000 -0.034000
v -0.060000 0.330000 -0.034000
v -0.060000 0.310000 -0.046000
v -0.060000 0.330000 -0.046000
vn -1.0000 -0.0000 -0.0000
vn -0.0000 -0.0000 -1.0000
vn 1.0000 -0.0000 -0.0000
vn -0.0000 -0.0000 1.0000
vn -0.0000 -1.0000 -0.0000
vn -0.0000 1.0000 -0.0000
vt 0.625000 0.000000
vt 0.375000 0.250000
vt 0.375000 0.000000
vt 0.625000 0.250000
vt 0.375000 0.500000
vt 0.625000 0.500000
vt 0.375000 0.750000
vt 0.625000 0.750000
vt 0.375000 1.000000
vt 0.125000 0.750000
vt 0.125000 0.500000
vt 0.875000 0.500000
vt 0.625000 1.000000
vt 0.875000 0.750000
s 0
usemtl MM2_LED_OK
f 130/211/111 131/212/111 129/213/111
f 132/214/112 135/215/112 131/212/112
f 136/216/113 133/217/113 135/215/113
f 134/218/114 129/219/114 133/217/114
f 135/215/115 129/220/115 131/221/115
f 132/222/116 134/218/116 136/216/116
f 130/211/111 132/214/111 131/212/111
f 132/214/112 136/216/112 135/215/112
f 136/216/113 134/218/113 133/217/113
f 134/218/114 130/223/114 129/219/114
f 135/215/115 133/217/115 129/220/115
f 132/222/116 130/224/116 134/218/116
o AP_LED_1
v -0.020000 0.310000 -0.034000
v -0.020000 0.330000 -0.034000
v -0.020000 0.310000 -0.046000
v -0.020000 0.330000 -0.046000
v 0.020000 0.310000 -0.034000
v 0.020000 0.330000 -0.034000
v 0.020000 0.310000 -0.046000
v 0.020000 0.330000 -0.046000
vn -1.0000 -0.0000 -0.0000
vn -0.0000 -0.0000 -1.0000
vn 1.0000 -0.0000 -0.0000
vn -0.0000 -0.0000 1.0000
vn -0.0000 -1.0000 -0.0000
vn -0.0000 1.0000 -0.0000
vt 0.625000 0.000000
vt 0.375000 0.250000
vt 0.375000 0.000000
vt 0.625000 0.250000
vt 0.375000 0.500000
vt 0.625000 0.500000
vt 0.375000 0.750000
vt 0.625000 0.750000
vt 0.375000 1.000000
vt 0.125000 0.750000
vt 0.125000 0.500000
vt 0.875000 0.500000
vt 0.625000 1.000000
vt 0.875000 0.750000
s 0
usemtl MM2_LED_Warn
f 138/225/117 139/226/117 137/227/117
f 140/228/118 143/229/118 139/226/118
f 144/230/119 141/231/119 143/229/119
f 142/232/120 137/233/120 141/231/120
f 143/229/121 137/234/121 139/235/121
f 140/236/122 142/232/122 144/230/122
f 138/225/117 140/228/117 139/226/117
f 140/228/118 144/230/118 143/229/118
f 144/230/119 142/232/119 141/231/119
f 142/232/120 138/237/120 137/233/120
f 143/229/121 141/231/121 137/234/121
f 140/236/122 138/238/122 142/232/122
o AP_LED_2
v 0.060000 0.310000 -0.034000
v 0.060000 0.330000 -0.034000
v 0.060000 0.310000 -0.046000
v 0.060000 0.330000 -0.046000
v 0.100000 0.310000 -0.034000
v 0.100000 0.330000 -0.034000
v 0.100000 0.310000 -0.046000
v 0.100000 0.330000 -0.046000
vn -1.0000 -0.0000 -0.0000
vn -0.0000 -0.0000 -1.0000
vn 1.0000 -0.0000 -0.0000
vn -0.0000 -0.0000 1.0000
vn -0.0000 -1.0000 -0.0000
vn -0.0000 1.0000 -0.0000
vt 0.625000 0.000000
vt 0.375000 0.250000
vt 0.375000 0.000000
vt 0.625000 0.250000
vt 0.375000 0.500000
vt 0.625000 0.500000
vt 0.375000 0.750000
vt 0.625000 0.750000
vt 0.375000 1.000000
vt 0.125000 0.750000
vt 0.125000 0.500000
vt 0.875000 0.500000
vt 0.625000 1.000000
vt 0.875000 0.750000
s 0
usemtl MM2_LED_Alarm
f 146/239/123 147/240/123 145/241/123
f 148/242/124 151/243/124 147/240/124
f 152/244/125 149/245/125 151/243/125
f 150/246/126 145/247/126 149/245/126
f 151/243/127 145/248/127 147/249/127
f 148/250/128 150/246/128 152/244/128
f 146/239/123 148/242/123 147/240/123
f 148/242/124 152/244/124 151/243/124
f 152/244/125 150/246/125 149/245/125
f 150/246/126 146/251/126 145/247/126
f 151/243/127 149/245/127 145/248/127
f 148/250/128 146/252/128 150/246/128
o AP_Siren
v 0.000000 0.400000 -0.050000
v 0.000000 0.440000 -0.050000
v 0.019134 0.400000 -0.046194
v 0.019134 0.440000 -0.046194
v 0.035355 0.400000 -0.035355
v 0.035355 0.440000 -0.035355
v 0.046194 0.400000 -0.019134
v 0.046194 0.440000 -0.019134
v 0.050000 0.400000 0.000000
v 0.050000 0.440000 0.000000
v 0.046194 0.400000 0.019134
v 0.046194 0.440000 0.019134
v 0.035355 0.400000 0.035355
v 0.035355 0.440000 0.035355
v 0.019134 0.400000 0.046194
v 0.019134 0.440000 0.046194
v 0.000000 0.400000 0.050000
v 0.000000 0.440000 0.050000
v -0.019134 0.400000 0.046194
v -0.019134 0.440000 0.046194
v -0.035355 0.400000 0.035355
v -0.035355 0.440000 0.035355
v -0.046194 0.400000 0.019134
v -0.046194 0.440000 0.019134
v -0.050000 0.400000 0.000000
v -0.050000 0.440000 0.000000
v -0.046194 0.400000 -0.019134
v -0.046194 0.440000 -0.019134
v -0.035355 0.400000 -0.035355
v -0.035355 0.440000 -0.035355
v -0.019134 0.400000 -0.046194
v -0.019134 0.440000 -0.046194
vn 0.1951 -0.0000 -0.9808
vn 0.5556 -0.0000 -0.8315
vn 0.8315 -0.0000 -0.5556
vn 0.9808 -0.0000 -0.1951
vn 0.9808 -0.0000 0.1951
vn 0.8315 -0.0000 0.5556
vn 0.5556 -0.0000 0.8315
vn 0.1951 -0.0000 0.9808
vn -0.1951 -0.0000 0.9808
vn -0.5556 -0.0000 0.8315
vn -0.8315 -0.0000 0.5556
vn -0.9808 -0.0000 0.1951
vn -0.9808 -0.0000 -0.1951
vn -0.8315 -0.0000 -0.5556
vn -0.0000 1.0000 -0.0000
vn -0.5556 -0.0000 -0.8315
vn -0.1951 -0.0000 -0.9808
vn -0.0000 -1.0000 -0.0000
vt 1.000000 1.000000
vt 0.937500 0.500000
vt 1.000000 0.500000
vt 0.937500 1.000000
vt 0.875000 0.500000
vt 0.875000 1.000000
vt 0.812500 0.500000
vt 0.812500 1.000000
vt 0.750000 0.500000
vt 0.750000 1.000000
vt 0.687500 0.500000
vt 0.687500 1.000000
vt 0.625000 0.500000
vt 0.625000 1.000000
vt 0.562500 0.500000
vt 0.562500 1.000000
vt 0.500000 0.500000
vt 0.500000 1.000000
vt 0.437500 0.500000
vt 0.437500 1.000000
vt 0.375000 0.500000
vt 0.375000 1.000000
vt 0.312500 0.500000
vt 0.312500 1.000000
vt 0.250000 0.500000
vt 0.250000 1.000000
vt 0.187500 0.500000
vt 0.187500 1.000000
vt 0.125000 0.500000
vt 0.080294 0.080294
vt 0.419706 0.080294
vt 0.419706 0.419706
vt 0.125000 1.000000
vt 0.062500 0.500000
vt 0.062500 1.000000
vt 0.000000 0.500000
vt 0.841844 0.028269
vt 0.528269 0.158156
vt 0.658156 0.471731
vt 0.341844 0.471731
vt 0.250000 0.490000
vt 0.158156 0.471731
vt 0.080294 0.419706
vt 0.028269 0.341844
vt 0.010000 0.250000
vt 0.028269 0.158156
vt 0.158156 0.028269
vt 0.250000 0.010000
vt 0.341844 0.028269
vt 0.471731 0.158156
vt 0.490000 0.250000
vt 0.471731 0.341844
vt 0.000000 1.000000
vt 0.750000 0.490000
vt 0.841844 0.471731
vt 0.919706 0.419706
vt 0.971731 0.341844
vt 0.990000 0.250000
vt 0.971731 0.158156
vt 0.919706 0.080294
vt 0.750000 0.010000
vt 0.658156 0.028269
vt 0.580294 0.080294
vt 0.510000 0.250000
vt 0.528269 0.341844
vt 0.580294 0.419706
s 0
usemtl MM2_LED_Alarm
f 154/253/129 155/254/129 153/255/129
f 156/256/130 157/257/130 155/254/130
f 158/258/131 159/259/131 157/257/131
f 160/260/132 161/261/132 159/259/132
f 162/262/133 163/263/133 161/261/133
f 164/264/134 165/265/134 163/263/134
f 166/266/135 167/267/135 165/265/135
f 168/268/136 169/269/136 167/267/136
f 170/270/137 171/271/137 169/269/137
f 172/272/138 173/273/138 171/271/138
f 174/274/139 175/275/139 173/273/139
f 176/276/140 177/277/140 175/275/140
f 178/278/141 179/279/141 177/277/141
f 180/280/142 181/281/142 179/279/142
f 174/282/143 166/283/143 158/284/143
f 182/285/144 183/286/144 181/281/144
f 184/287/145 153/288/145 183/286/145
f 167/289/146 175/290/146 183/291/146
f 154/253/129 156/256/129 155/254/129
f 156/256/130 158/258/130 157/257/130
f 158/258/131 160/260/131 159/259/131
f 160/260/132 162/262/132 161/261/132
f 162/262/133 164/264/133 163/263/133
f 164/264/134 166/266/134 165/265/134
f 166/266/135 168/268/135 167/267/135
f 168/268/136 170/270/136 169/269/136
f 170/270/137 172/272/137 171/271/137
f 172/272/138 174/274/138 173/273/138
f 174/274/139 176/276/139 175/275/139
f 176/276/140 178/278/140 177/277/140
f 178/278/141 180/280/141 179/279/141
f 180/280/142 182/285/142 181/281/142
f 158/284/143 156/292/143 154/293/143
f 154/293/143 184/294/143 182/295/143
f 182/295/143 180/296/143 178/297/143
f 178/297/143 176/298/143 174/282/143
f 174/282/143 172/299/143 170/300/143
f 170/300/143 168/301/143 166/283/143
f 166/283/143 164/302/143 162/303/143
f 162/303/143 160/304/143 158/284/143
f 158/284/143 154/293/143 182/295/143
f 182/295/143 178/297/143 174/282/143
f 174/282/143 170/300/143 166/283/143
f 166/283/143 162/303/143 158/284/143
f 158/284/143 182/295/143 174/282/143
f 182/285/144 184/287/144 183/286/144
f 184/287/145 154/305/145 153/288/145
f 183/291/146 153/306/146 155/307/146
f 155/307/146 157/308/146 159/309/146
f 159/309/146 161/310/146 163/311/146
f 163/311/146 165/312/146 167/289/146
f 167/289/146 169/313/146 171/314/146
f 171/314/146 173/315/146 175/290/146
f 175/290/146 177/316/146 179/317/146
f 179/317/146 181/318/146 183/291/146
f 183/291/146 155/307/146 159/309/146
f 159/309/146 163/311/146 167/289/146
f 167/289/146 171/314/146 175/290/146
f 175/290/146 179/317/146 183/291/146
f 183/291/146 159/309/146 167/289/146
o AP_Sticker
v -0.080000 0.030000 -0.031000
v -0.080000 0.070000 -0.031000
v -0.080000 0.030000 -0.039000
v -0.080000 0.070000 -0.039000
v 0.080000 0.030000 -0.031000
v 0.080000 0.070000 -0.031000
v 0.080000 0.030000 -0.039000
v 0.080000 0.070000 -0.039000
vn -1.0000 -0.0000 -0.0000
vn -0.0000 -0.0000 -1.0000
vn 1.0000 -0.0000 -0.0000
vn -0.0000 -0.0000 1.0000
vn -0.0000 -1.0000 -0.0000
vn -0.0000 1.0000 -0.0000
vt 0.625000 0.000000
vt 0.375000 0.250000
vt 0.375000 0.000000
vt 0.625000 0.250000
vt 0.375000 0.500000
vt 0.625000 0.500000
vt 0.375000 0.750000
vt 0.625000 0.750000
vt 0.375000 1.000000
vt 0.125000 0.750000
vt 0.125000 0.500000
vt 0.875000 0.500000
vt 0.625000 1.000000
vt 0.875000 0.750000
s 0
usemtl MM2_Sticker
f 186/319/147 187/320/147 185/321/147
f 188/322/148 191/323/148 187/320/148
f 192/324/149 189/325/149 191/323/149
f 190/326/150 185/327/150 189/325/150
f 191/323/151 185/328/151 187/329/151
f 188/330/152 190/326/152 192/324/152
f 186/319/147 188/322/147 187/320/147
f 188/322/148 192/324/148 191/323/148
f 192/324/149 190/326/149 189/325/149
f 190/326/150 186/331/150 185/327/150
f 191/323/151 189/325/151 185/328/151
f 188/330/152 186/332/152 190/326/152
