# Blender 4.2.8 LTS
# www.blender.org
mtllib hm_bank_trim_kit_v2.mtl
o TR_FloorTile
v -0.500000 0.000000 0.500000
v -0.500000 0.040000 0.500000
v -0.500000 0.000000 -0.500000
v -0.500000 0.040000 -0.500000
v 0.500000 0.000000 0.500000
v 0.500000 0.040000 0.500000
v 0.500000 0.000000 -0.500000
v 0.500000 0.040000 -0.500000
vn -1.0000 -0.0000 -0.0000
vn -0.0000 -0.0000 -1.0000
vn 1.0000 -0.0000 -0.0000
vn -0.0000 -0.0000 1.0000
vn -0.0000 -1.0000 -0.0000
vn -0.0000 1.0000 -0.0000
vt 0.625000 0.000000
vt 0.375000 0.250000
vt 0.375000 0.000000
vt 0.625000 0.250000
vt 0.375000 0.500000
vt 0.625000 0.500000
vt 0.375000 0.750000
vt 0.625000 0.750000
vt 0.375000 1.000000
vt 0.125000 0.750000
vt 0.125000 0.500000
vt 0.875000 0.500000
vt 0.625000 1.000000
vt 0.875000 0.750000
s 0
usemtl MM2_StoneFloor
f 2/1/1 3/2/1 1/3/1
f 4/4/2 7/5/2 3/2/2
f 8/6/3 5/7/3 7/5/3
f 6/8/4 1/9/4 5/7/4
f 7/5/5 1/10/5 3/11/5
f 4/12/6 6/8/6 8/6/6
f 2/1/1 4/4/1 3/2/1
f 4/4/2 8/6/2 7/5/2
f 8/6/3 6/8/3 5/7/3
f 6/8/4 2/13/4 1/9/4
f 7/5/5 5/7/5 1/10/5
f 4/12/6 2/14/6 6/8/6
o TR_AccentTile
v 1.050000 0.000000 0.250000
v 1.050000 0.040000 0.250000
v 1.050000 0.000000 -0.250000
v 1.050000 0.040000 -0.250000
v 1.550000 0.000000 0.250000
v 1.550000 0.040000 0.250000
v 1.550000 0.000000 -0.250000
v 1.550000 0.040000 -0.250000
vn -1.0000 -0.0000 -0.0000
vn -0.0000 -0.0000 -1.0000
vn 1.0000 -0.0000 -0.0000
vn -0.0000 -0.0000 1.0000
vn -0.0000 -1.0000 -0.0000
vn -0.0000 1.0000 -0.0000
vt 0.625000 0.000000
vt 0.375000 0.250000
vt 0.375000 0.000000
vt 0.625000 0.250000
vt 0.375000 0.500000
vt 0.625000 0.500000
vt 0.375000 0.750000
vt 0.625000 0.750000
vt 0.375000 1.000000
vt 0.125000 0.750000
vt 0.125000 0.500000
vt 0.875000 0.500000
vt 0.625000 1.000000
vt 0.875000 0.750000
s 0
usemtl MM2_StoneDark
f 10/15/7 11/16/7 9/17/7
f 12/18/8 15/19/8 11/16/8
f 16/20/9 13/21/9 15/19/9
f 14/22/10 9/23/10 13/21/10
f 15/19/11 9/24/11 11/25/11
f 12/26/12 14/22/12 16/20/12
f 10/15/7 12/18/7 11/16/7
f 12/18/8 16/20/8 15/19/8
f 16/20/9 14/22/9 13/21/9
f 14/22/10 10/27/10 9/23/10
f 15/19/11 13/21/11 9/24/11
f 12/26/12 10/28/12 14/22/12
o TR_Baseboard
v -0.996000 0.000000 -1.184000
v -0.996000 0.004000 -1.180000
v -1.000000 0.004000 -1.184000
v -0.996000 0.001172 -1.181172
v -0.998309 0.001691 -1.181691
v -0.998828 0.004000 -1.181172
v -0.998828 0.001172 -1.184000
v -0.996000 0.116000 -1.180000
v -0.996000 0.120000 -1.184000
v -1.000000 0.116000 -1.184000
v -0.996000 0.118828 -1.181172
v -0.998309 0.118309 -1.181691
v -0.998828 0.118828 -1.184000
v -0.998828 0.116000 -1.181172
v -0.996000 0.000000 -1.216000
v -1.000000 0.004000 -1.216000
v -0.996000 0.004000 -1.220000
v -0.998828 0.001172 -1.216000
v -0.998309 0.001691 -1.218309
v -0.998828 0.004000 -1.218828
v -0.996000 0.001172 -1.218828
v -0.996000 0.120000 -1.216000
v -0.996000 0.116000 -1.220000
v -1.000000 0.116000 -1.216000
v -0.996000 0.118828 -1.218828
v -0.998309 0.118309 -1.218309
v -0.998828 0.116000 -1.218828
v -0.998828 0.118828 -1.216000
v 0.996000 0.000000 -1.184000
v 1.000000 0.004000 -1.184000
v 0.996000 0.004000 -1.180000
v 0.998828 0.001172 -1.184000
v 0.998309 0.001691 -1.181691
v 0.998828 0.004000 -1.181172
v 0.996000 0.001172 -1.181172
v 0.996000 0.120000 -1.184000
v 0.996000 0.116000 -1.180000
v 1.000000 0.116000 -1.184000
v 0.996000 0.118828 -1.181172
v 0.998309 0.118309 -1.181691
v 0.998828 0.116000 -1.181172
v 0.998828 0.118828 -1.184000
v 0.996000 0.000000 -1.216000
v 0.996000 0.004000 -1.220000
v 1.000000 0.004000 -1.216000
v 0.996000 0.001172 -1.218828
v 0.998309 0.001691 -1.218309
v 0.998828 0.004000 -1.218828
v 0.998828 0.001172 -1.216000
v 0.996000 0.120000 -1.216000
v 1.000000 0.116000 -1.216000
v 0.996000 0.116000 -1.220000
v 0.998828 0.118828 -1.216000
v 0.998309 0.118309 -1.218309
v 0.998828 0.116000 -1.218828
v 0.996000 0.118828 -1.218828
vn -0.1794 -0.9673 0.1794
vn -0.1794 -0.1794 0.9673
vn -0.9673 -0.1794 0.1794
vn -0.1479 -0.6993 0.6993
vn -0.5774 -0.5774 0.5773
vn -0.6993 -0.1479 0.6993
vn -0.6993 -0.6993 0.1479
vn -0.1794 0.1794 0.9673
vn -0.1794 0.9673 0.1794
vn -0.9673 0.1794 0.1794
vn -0.1479 0.6993 0.6993
vn -0.5774 0.5774 0.5773
vn -0.6993 0.6993 0.1479
vn -0.6993 0.1479 0.6993
vn -0.1794 -0.9673 -0.1794
vn -0.9673 -0.1794 -0.1794
vn -0.1794 -0.1794 -0.9673
vn -0.6993 -0.6993 -0.1479
vn -0.5774 -0.5774 -0.5773
vn -0.6993 -0.1479 -0.6993
vn -0.1479 -0.6993 -0.6993
vn -0.1794 0.9673 -0.1794
vn -0.1794 0.1794 -0.9673
vn -0.9673 0.1794 -0.1794
vn -0.1479 0.6993 -0.6993
vn -0.5774 0.5774 -0.5773
vn -0.6993 0.1479 -0.6993
vn -0.6993 0.6993 -0.1479
vn 0.1794 -0.9673 0.1794
vn 0.9673 -0.1794 0.1794
vn 0.1794 -0.1794 0.9673
vn 0.6993 -0.6993 0.1479
vn 0.5774 -0.5774 0.5773
vn 0.6993 -0.1479 0.6993
vn 0.1479 -0.6993 0.6993
vn 0.1794 0.9673 0.1794
vn 0.1794 0.1794 0.9673
vn 0.9673 0.1794 0.1794
vn 0.1479 0.6993 0.6993
vn 0.5774 0.5774 0.5773
vn 0.6993 0.1479 0.6993
vn 0.6993 0.6993 0.1479
vn 0.1794 -0.9673 -0.1794
vn 0.1794 -0.1794 -0.9673
vn 0.9673 -0.1794 -0.1794
vn 0.1479 -0.6993 -0.6993
vn 0.5774 -0.5774 -0.5773
vn 0.6993 -0.1479 -0.6993
vn 0.6993 -0.6993 -0.1479
vn 0.1794 0.9673 -0.1794
vn 0.9673 0.1794 -0.1794
vn 0.1794 0.1794 -0.9673
vn 0.6993 0.6993 -0.1479
vn 0.5774 0.5774 -0.5773
vn 0.6993 0.1479 -0.6993
vn 0.1479 0.6993 -0.6993
vt 0.616667 0.750500
vt 0.383333 0.999500
vt 0.383333 0.750500
vt 0.616667 0.525000
vt 0.383333 0.725000
vt 0.383333 0.525000
vt 0.874500 0.525000
vt 0.625500 0.725000
vt 0.625500 0.525000
vt 0.616667 0.025000
vt 0.383333 0.225000
vt 0.383333 0.025000
vt 0.616667 0.250500
vt 0.383333 0.499500
vt 0.383333 0.250500
vt 0.125500 0.725000
vt 0.125211 0.750000
vt 0.125000 0.725000
vt 0.378522 1.000000
vt 0.375000 0.999500
vt 0.375000 0.010566
vt 0.383333 0.000000
vt 0.616667 0.999500
vt 0.625000 0.999789
vt 0.616667 1.000000
vt 0.874500 0.725000
vt 0.875000 0.739434
vt 0.874500 0.750000
vt 0.621478 0.000000
vt 0.625000 0.025000
vt 0.125500 0.525000
vt 0.125000 0.510566
vt 0.125500 0.500000
vt 0.378522 0.250000
vt 0.375000 0.225000
vt 0.375000 0.250211
vt 0.383333 0.250000
vt 0.874789 0.500000
vt 0.875000 0.525000
vt 0.621478 0.250000
vt 0.625000 0.250500
vt 0.616667 0.225000
vt 0.625000 0.239434
vt 0.616667 0.250000
vt 0.374500 0.725000
vt 0.376174 0.746548
vt 0.374500 0.750000
vt 0.375000 0.725000
vt 0.383333 0.750000
vt 0.623896 0.746478
vt 0.625000 0.725000
vt 0.625000 0.750500
vt 0.616667 0.725000
vt 0.616667 0.750000
vt 0.374500 0.525000
vt 0.376104 0.503522
vt 0.375000 0.525000
vt 0.375000 0.499500
vt 0.383333 0.500000
vt 0.623826 0.503452
vt 0.625500 0.500000
vt 0.625000 0.525000
vt 0.616667 0.499500
vt 0.616667 0.500000
vt 0.125000 0.525000
vt 0.375000 0.025000
vt 0.383333 1.000000
vt 0.616667 0.000000
vt 0.875000 0.725000
vt 0.625000 0.225000
vt 0.616667 0.250000
vt 0.383333 0.250000
vt 0.374500 0.500000
vt 0.375000 0.250500
vt 0.874500 0.500000
vt 0.625000 0.499500
vt 0.616667 0.500000
vt 0.383333 0.500000
vt 0.375000 0.725000
vt 0.375000 0.525000
vt 0.616667 0.750000
vt 0.383333 0.750000
vt 0.125500 0.750000
vt 0.375000 0.750500
vt 0.625500 0.750000
vt 0.625000 0.999500
vt 0.383333 0.250000
vt 0.383333 0.750000
vt 0.383333 0.500000
s 1
usemtl MM2_BrushedAlum
f 53/29/49 18/30/14 47/31/43
f 67/32/63 46/33/42 61/34/57
f 38/35/34 52/36/48 66/37/62
f 26/38/22 32/39/28 19/40/15
f 39/41/35 60/42/56 33/43/29
f 17/44/13 21/45/17 23/46/19
f 18/30/14 21/47/17 20/48/16
f 19/40/15 21/49/17 22/50/18
f 24/51/20 28/52/24 30/53/26
f 25/54/21 28/55/24 27/56/23
f 26/38/22 28/57/24 29/58/25
f 31/59/27 35/60/31 37/61/33
f 32/39/28 35/62/31 34/63/30
f 33/43/29 35/64/31 36/65/32
f 38/35/34 42/66/38 44/67/40
f 39/41/35 42/68/38 41/69/37
f 40/70/36 42/71/38 43/72/39
f 45/73/41 49/74/45 51/75/47
f 46/33/42 49/74/45 48/76/44
f 47/31/43 49/74/45 50/77/46
f 52/36/48 56/78/52 58/79/54
f 53/29/49 56/78/52 55/80/51
f 54/81/50 56/78/52 57/82/53
f 59/83/55 63/84/59 65/85/61
f 60/42/56 63/84/59 62/86/58
f 61/34/57 63/84/59 64/87/60
f 66/37/62 70/88/66 72/89/68
f 67/32/63 70/88/66 69/90/65
f 68/91/64 70/88/66 71/92/67
f 17/44/13 34/93/30 31/59/27
f 23/94/19 32/39/28 34/63/30
f 24/51/20 22/95/18 18/30/14
f 30/96/26 19/40/15 22/50/18
f 38/35/34 29/97/25 25/54/21
f 44/98/40 26/38/22 29/58/25
f 33/43/29 43/99/39 39/41/35
f 36/100/32 40/70/36 43/99/39
f 31/59/27 62/101/58 59/83/55
f 37/102/33 60/42/56 62/86/58
f 66/37/62 41/103/37 38/35/34
f 72/104/68 39/41/35 41/69/37
f 61/34/57 71/105/67 67/32/63
f 64/106/60 68/91/64 71/105/67
f 59/83/55 48/107/44 45/73/41
f 65/108/61 46/33/42 48/107/44
f 52/36/48 69/90/65 66/37/62
f 58/79/54 67/32/63 69/90/65
f 47/31/43 57/109/53 53/29/49
f 50/110/46 54/81/50 57/109/53
f 45/73/41 20/111/16 17/44/13
f 51/112/47 18/30/14 20/48/16
f 25/54/21 55/113/51 52/36/48
f 27/114/23 53/29/49 55/80/51
f 59/83/55 17/44/13 31/59/27
f 53/29/49 24/51/20 18/30/14
f 67/32/63 54/81/50 46/33/42
f 38/35/34 25/54/21 52/36/48
f 26/38/22 40/70/36 32/39/28
f 39/41/35 68/91/64 60/42/56
f 17/44/13 20/111/16 21/45/17
f 18/30/14 22/95/18 21/47/17
f 19/40/15 23/94/19 21/49/17
f 24/51/20 27/114/23 28/52/24
f 25/54/21 29/97/25 28/55/24
f 26/38/22 30/96/26 28/57/24
f 31/59/27 34/93/30 35/60/31
f 32/39/28 36/115/32 35/62/31
f 33/43/29 37/102/33 35/64/31
f 38/35/34 41/103/37 42/66/38
f 39/41/35 43/99/39 42/68/38
f 40/70/36 44/98/40 42/71/38
f 45/73/41 48/107/44 49/74/45
f 46/33/42 50/116/46 49/74/45
f 47/31/43 51/112/47 49/74/45
f 52/36/48 55/113/51 56/78/52
f 53/29/49 57/109/53 56/78/52
f 54/81/50 58/79/54 56/78/52
f 59/83/55 62/101/58 63/84/59
f 60/42/56 64/117/60 63/84/59
f 61/34/57 65/108/61 63/84/59
f 66/37/62 69/90/65 70/88/66
f 67/32/63 71/105/67 70/88/66
f 68/91/64 72/104/68 70/88/66
f 17/44/13 23/46/19 34/93/30
f 23/94/19 19/40/15 32/39/28
f 24/51/20 30/53/26 22/95/18
f 30/96/26 26/38/22 19/40/15
f 38/35/34 44/67/40 29/97/25
f 44/98/40 40/70/36 26/38/22
f 33/43/29 36/100/32 43/99/39
f 36/100/32 32/39/28 40/70/36
f 31/59/27 37/61/33 62/101/58
f 37/102/33 33/43/29 60/42/56
f 66/37/62 72/89/68 41/103/37
f 72/104/68 68/91/64 39/41/35
f 61/34/57 64/106/60 71/105/67
f 64/106/60 60/42/56 68/91/64
f 59/83/55 65/108/61 48/107/44
f 65/108/61 61/34/57 46/33/42
f 52/36/48 58/79/54 69/90/65
f 58/79/54 54/81/50 67/32/63
f 47/31/43 50/110/46 57/109/53
f 50/110/46 46/33/42 54/81/50
f 45/73/41 51/75/47 20/111/16
f 51/112/47 47/31/43 18/30/14
f 25/54/21 27/56/23 55/113/51
f 27/114/23 24/51/20 53/29/49
f 59/83/55 45/73/41 17/44/13
o TR_Wainscot
v -0.744000 0.100000 -1.381000
v -0.744000 0.106000 -1.375000
v -0.750000 0.106000 -1.381000
v -0.744000 0.101757 -1.376757
v -0.747464 0.102536 -1.377536
v -0.748243 0.106000 -1.376757
v -0.748243 0.101757 -1.381000
v -0.744000 0.994000 -1.375000
v -0.744000 1.000000 -1.381000
v -0.750000 0.994000 -1.381000
v -0.744000 0.998243 -1.376757
v -0.747464 0.997464 -1.377536
v -0.748243 0.998243 -1.381000
v -0.748243 0.994000 -1.376757
v -0.744000 0.100000 -1.419000
v -0.750000 0.106000 -1.419000
v -0.744000 0.106000 -1.425000
v -0.748243 0.101757 -1.419000
v -0.747464 0.102536 -1.422464
v -0.748243 0.106000 -1.423243
v -0.744000 0.101757 -1.423243
v -0.744000 1.000000 -1.419000
v -0.744000 0.994000 -1.425000
v -0.750000 0.994000 -1.419000
v -0.744000 0.998243 -1.423243
v -0.747464 0.997464 -1.422464
v -0.748243 0.994000 -1.423243
v -0.748243 0.998243 -1.419000
v 0.744000 0.100000 -1.381000
v 0.750000 0.106000 -1.381000
v 0.744000 0.106000 -1.375000
v 0.748243 0.101757 -1.381000
v 0.747464 0.102536 -1.377536
v 0.748243 0.106000 -1.376757
v 0.744000 0.101757 -1.376757
v 0.744000 1.000000 -1.381000
v 0.744000 0.994000 -1.375000
v 0.750000 0.994000 -1.381000
v 0.744000 0.998243 -1.376757
v 0.747464 0.997464 -1.377536
v 0.748243 0.994000 -1.376757
v 0.748243 0.998243 -1.381000
v 0.744000 0.100000 -1.419000
v 0.744000 0.106000 -1.425000
v 0.750000 0.106000 -1.419000
v 0.744000 0.101757 -1.423243
v 0.747464 0.102536 -1.422464
v 0.748243 0.106000 -1.423243
v 0.748243 0.101757 -1.419000
v 0.744000 1.000000 -1.419000
v 0.750000 0.994000 -1.419000
v 0.744000 0.994000 -1.425000
v 0.748243 0.998243 -1.419000
v 0.747464 0.997464 -1.422464
v 0.748243 0.994000 -1.423243
v 0.744000 0.998243 -1.423243
vn -0.1794 -0.9673 0.1794
vn -0.1794 -0.1794 0.9673
vn -0.9673 -0.1794 0.1794
vn -0.1479 -0.6993 0.6993
vn -0.5774 -0.5773 0.5774
vn -0.6993 -0.1479 0.6993
vn -0.6993 -0.6993 0.1479
vn -0.1794 0.1794 0.9673
vn -0.1794 0.9673 0.1794
vn -0.9673 0.1794 0.1794
vn -0.1479 0.6993 0.6993
vn -0.5774 0.5773 0.5774
vn -0.6993 0.6993 0.1479
vn -0.6993 0.1479 0.6993
vn -0.1794 -0.9673 -0.1794
vn -0.9673 -0.1794 -0.1794
vn -0.1794 -0.1794 -0.9673
vn -0.6993 -0.6993 -0.1479
vn -0.5774 -0.5773 -0.5774
vn -0.6993 -0.1479 -0.6993
vn -0.1479 -0.6993 -0.6993
vn -0.1794 0.9673 -0.1794
vn -0.1794 0.1794 -0.9673
vn -0.9673 0.1794 -0.1794
vn -0.1479 0.6993 -0.6993
vn -0.5774 0.5773 -0.5774
vn -0.6993 0.1479 -0.6993
vn -0.6993 0.6993 -0.1479
vn 0.1794 -0.9673 0.1794
vn 0.9673 -0.1794 0.1794
vn 0.1794 -0.1794 0.9673
vn 0.6993 -0.6993 0.1479
vn 0.5774 -0.5773 0.5774
vn 0.6993 -0.1479 0.6993
vn 0.1479 -0.6993 0.6993
vn 0.1794 0.9673 0.1794
vn 0.1794 0.1794 0.9673
vn 0.9673 0.1794 0.1794
vn 0.1479 0.6993 0.6993
vn 0.5774 0.5773 0.5774
vn 0.6993 0.1479 0.6993
vn 0.6993 0.6993 0.1479
vn 0.1794 -0.9673 -0.1794
vn 0.1794 -0.1794 -0.9673
vn 0.9673 -0.1794 -0.1794
vn 0.1479 -0.6993 -0.6993
vn 0.5774 -0.5773 -0.5774
vn 0.6993 -0.1479 -0.6993
vn 0.6993 -0.6993 -0.1479
vn 0.1794 0.9673 -0.1794
vn 0.9673 0.1794 -0.1794
vn 0.1794 0.1794 -0.9673
vn 0.6993 0.6993 -0.1479
vn 0.5774 0.5773 -0.5774
vn 0.6993 0.1479 -0.6993
vn 0.1479 0.6993 -0.6993
vt 0.623333 0.751000
vt 0.376667 0.999000
vt 0.376667 0.751000
vt 0.623333 0.530000
vt 0.376667 0.720000
vt 0.376667 0.530000
vt 0.874000 0.530000
vt 0.626000 0.720000
vt 0.626000 0.530000
vt 0.623333 0.030000
vt 0.376667 0.220000
vt 0.376667 0.030000
vt 0.623333 0.251000
vt 0.376667 0.499000
vt 0.376667 0.251000
vt 0.126000 0.720000
vt 0.125423 0.750000
vt 0.125000 0.720000
vt 0.375704 1.000000
vt 0.375000 0.999000
vt 0.375000 0.012679
vt 0.376667 0.000000
vt 0.623333 0.999000
vt 0.625000 0.999577
vt 0.623333 1.000000
vt 0.874000 0.720000
vt 0.875000 0.737320
vt 0.874000 0.750000
vt 0.624296 0.000000
vt 0.625000 0.030000
vt 0.126000 0.530000
vt 0.125000 0.512679
vt 0.126000 0.500000
vt 0.375704 0.250000
vt 0.375000 0.220000
vt 0.375000 0.250423
vt 0.376667 0.250000
vt 0.874577 0.500000
vt 0.875000 0.530000
vt 0.624296 0.250000
vt 0.625000 0.251000
vt 0.623333 0.220000
vt 0.625000 0.237321
vt 0.623333 0.250000
vt 0.374000 0.720000
vt 0.375235 0.745914
vt 0.374000 0.750000
vt 0.375000 0.720000
vt 0.376667 0.750000
vt 0.624906 0.745773
vt 0.625000 0.720000
vt 0.625000 0.751000
vt 0.623333 0.720000
vt 0.623333 0.750000
vt 0.374000 0.530000
vt 0.375094 0.504227
vt 0.375000 0.530000
vt 0.375000 0.499000
vt 0.376667 0.500000
vt 0.624765 0.504086
vt 0.626000 0.500000
vt 0.625000 0.530000
vt 0.623333 0.499000
vt 0.623333 0.500000
vt 0.125000 0.530000
vt 0.375000 0.030000
vt 0.376667 1.000000
vt 0.623333 0.000000
vt 0.875000 0.720000
vt 0.625000 0.220000
vt 0.374000 0.500000
vt 0.375000 0.251000
vt 0.874000 0.500000
vt 0.625000 0.499000
vt 0.375000 0.720000
vt 0.625000 0.720000
vt 0.126000 0.750000
vt 0.375000 0.751000
vt 0.626000 0.750000
vt 0.625000 0.999000
vt 0.625000 0.720000
vt 0.625000 0.530000
s 1
usemtl MM2_Wall
f 109/118/105 74/119/70 103/120/99
f 123/121/119 102/122/98 117/123/113
f 94/124/90 108/125/104 122/126/118
f 82/127/78 88/128/84 75/129/71
f 95/130/91 116/131/112 89/132/85
f 73/133/69 77/134/73 79/135/75
f 74/119/70 77/136/73 76/137/72
f 75/129/71 77/138/73 78/139/74
f 80/140/76 84/141/80 86/142/82
f 81/143/77 84/144/80 83/145/79
f 82/127/78 84/146/80 85/147/81
f 87/148/83 91/149/87 93/150/89
f 88/128/84 91/151/87 90/152/86
f 89/132/85 91/153/87 92/154/88
f 94/124/90 98/155/94 100/156/96
f 95/130/91 98/157/94 97/158/93
f 96/159/92 98/160/94 99/161/95
f 101/162/97 105/163/101 107/164/103
f 102/122/98 105/163/101 104/165/100
f 103/120/99 105/163/101 106/166/102
f 108/125/104 112/167/108 114/168/110
f 109/118/105 112/167/108 111/169/107
f 110/170/106 112/167/108 113/171/109
f 115/172/111 119/173/115 121/174/117
f 116/131/112 119/173/115 118/175/114
f 117/123/113 119/173/115 120/176/116
f 122/126/118 126/177/122 128/178/124
f 123/121/119 126/177/122 125/179/121
f 124/180/120 126/177/122 127/181/123
f 73/133/69 90/182/86 87/148/83
f 79/183/75 88/128/84 90/152/86
f 80/140/76 78/184/74 74/119/70
f 86/185/82 75/129/71 78/139/74
f 94/124/90 85/186/81 81/143/77
f 100/187/96 82/127/78 85/147/81
f 89/132/85 99/161/95 95/130/91
f 92/154/88 96/159/92 99/161/95
f 87/148/83 118/188/114 115/172/111
f 93/189/89 116/131/112 118/175/114
f 122/126/118 97/190/93 94/124/90
f 128/191/124 95/130/91 97/158/93
f 117/123/113 127/181/123 123/121/119
f 120/176/116 124/180/120 127/181/123
f 115/172/111 104/192/100 101/162/97
f 121/174/117 102/122/98 104/192/100
f 108/125/104 125/179/121 122/126/118
f 114/193/110 123/121/119 125/179/121
f 103/120/99 113/171/109 109/118/105
f 106/166/102 110/170/106 113/171/109
f 101/162/97 76/194/72 73/133/69
f 107/195/103 74/119/70 76/137/72
f 81/143/77 111/196/107 108/125/104
f 83/197/79 109/118/105 111/169/107
f 115/172/111 73/133/69 87/148/83
f 109/118/105 80/140/76 74/119/70
f 123/121/119 110/170/106 102/122/98
f 94/124/90 81/143/77 108/125/104
f 82/127/78 96/159/92 88/128/84
f 95/130/91 124/180/120 116/131/112
f 73/133/69 76/194/72 77/134/73
f 74/119/70 78/184/74 77/136/73
f 75/129/71 79/183/75 77/138/73
f 80/140/76 83/197/79 84/141/80
f 81/143/77 85/186/81 84/144/80
f 82/127/78 86/185/82 84/146/80
f 87/148/83 90/182/86 91/149/87
f 88/128/84 92/154/88 91/151/87
f 89/132/85 93/189/89 91/153/87
f 94/124/90 97/190/93 98/155/94
f 95/130/91 99/161/95 98/157/94
f 96/159/92 100/187/96 98/160/94
f 101/162/97 104/192/100 105/163/101
f 102/122/98 106/166/102 105/163/101
f 103/120/99 107/195/103 105/163/101
f 108/125/104 111/196/107 112/167/108
f 109/118/105 113/171/109 112/167/108
f 110/170/106 114/198/110 112/167/108
f 115/172/111 118/188/114 119/173/115
f 116/131/112 120/176/116 119/173/115
f 117/123/113 121/174/117 119/173/115
f 122/126/118 125/199/121 126/177/122
f 123/121/119 127/181/123 126/177/122
f 124/180/120 128/191/124 126/177/122
f 73/133/69 79/135/75 90/182/86
f 79/183/75 75/129/71 88/128/84
f 80/140/76 86/142/82 78/184/74
f 86/185/82 82/127/78 75/129/71
f 94/124/90 100/156/96 85/186/81
f 100/187/96 96/159/92 82/127/78
f 89/132/85 92/154/88 99/161/95
f 92/154/88 88/128/84 96/159/92
f 87/148/83 93/150/89 118/188/114
f 93/189/89 89/132/85 116/131/112
f 122/126/118 128/178/124 97/190/93
f 128/191/124 124/180/120 95/130/91
f 117/123/113 120/176/116 127/181/123
f 120/176/116 116/131/112 124/180/120
f 115/172/111 121/174/117 104/192/100
f 121/174/117 117/123/113 102/122/98
f 108/125/104 114/193/110 125/179/121
f 114/193/110 110/170/106 123/121/119
f 103/120/99 106/166/102 113/171/109
f 106/166/102 102/122/98 110/170/106
f 101/162/97 107/164/103 76/194/72
f 107/195/103 103/120/99 74/119/70
f 81/143/77 83/145/79 111/196/107
f 83/197/79 80/140/76 109/118/105
f 115/172/111 101/162/97 73/133/69
o TR_Corner
v 0.875000 0.100000 -1.375000
v 0.875000 1.300000 -1.375000
v 0.875000 0.100000 -1.425000
v 0.875000 1.300000 -1.425000
v 0.925000 0.100000 -1.375000
v 0.925000 1.300000 -1.375000
v 0.925000 0.100000 -1.425000
v 0.925000 1.300000 -1.425000
vn -1.0000 -0.0000 -0.0000
vn -0.0000 -0.0000 -1.0000
vn 1.0000 -0.0000 -0.0000
vn -0.0000 -0.0000 1.0000
vn -0.0000 -1.0000 -0.0000
vn -0.0000 1.0000 -0.0000
vt 0.625000 0.000000
vt 0.375000 0.250000
vt 0.375000 0.000000
vt 0.625000 0.250000
vt 0.375000 0.500000
vt 0.625000 0.500000
vt 0.375000 0.750000
vt 0.625000 0.750000
vt 0.375000 1.000000
vt 0.125000 0.750000
vt 0.125000 0.500000
vt 0.875000 0.500000
vt 0.625000 1.000000
vt 0.875000 0.750000
s 0
usemtl MM2_BrushedAlum
f 130/200/125 131/201/125 129/202/125
f 132/203/126 135/204/126 131/201/126
f 136/205/127 133/206/127 135/204/127
f 134/207/128 129/208/128 133/206/128
f 135/204/129 129/209/129 131/210/129
f 132/211/130 134/207/130 136/205/130
f 130/200/125 132/203/125 131/201/125
f 132/203/126 136/205/126 135/204/126
f 136/205/127 134/207/127 133/206/127
f 134/207/128 130/212/128 129/208/128
f 135/204/129 133/206/129 129/209/129
f 132/211/130 130/213/130 134/207/130
o TR_Cove
v -1.000000 1.320000 -1.160000
v -1.000000 1.380000 -1.160000
v -1.000000 1.320000 -1.240000
v -1.000000 1.380000 -1.240000
v 1.000000 1.320000 -1.160000
v 1.000000 1.380000 -1.160000
v 1.000000 1.320000 -1.240000
v 1.000000 1.380000 -1.240000
vn -1.0000 -0.0000 -0.0000
vn -0.0000 -0.0000 -1.0000
vn 1.0000 -0.0000 -0.0000
vn -0.0000 -0.0000 1.0000
vn -0.0000 -1.0000 -0.0000
vn -0.0000 1.0000 -0.0000
vt 0.625000 0.000000
vt 0.375000 0.250000
vt 0.375000 0.000000
vt 0.625000 0.250000
vt 0.375000 0.500000
vt 0.625000 0.500000
vt 0.375000 0.750000
vt 0.625000 0.750000
vt 0.375000 1.000000
vt 0.125000 0.750000
vt 0.125000 0.500000
vt 0.875000 0.500000
vt 0.625000 1.000000
vt 0.875000 0.750000
s 0
usemtl MM2_GraphiteSteel
f 138/214/131 139/215/131 137/216/131
f 140/217/132 143/218/132 139/215/132
f 144/219/133 141/220/133 143/218/133
f 142/221/134 137/222/134 141/220/134
f 143/218/135 137/223/135 139/224/135
f 140/225/136 142/221/136 144/219/136
f 138/214/131 140/217/131 139/215/131
f 140/217/132 144/219/132 143/218/132
f 144/219/133 142/221/133 141/220/133
f 142/221/134 138/226/134 137/222/134
f 143/218/135 141/220/135 137/223/135
f 140/225/136 138/227/136 142/221/136
o TR_Reveal
v -0.750000 1.035000 -1.420000
v -0.750000 1.065000 -1.420000
v -0.750000 1.035000 -1.440000
v -0.750000 1.065000 -1.440000
v 0.750000 1.035000 -1.420000
v 0.750000 1.065000 -1.420000
v 0.750000 1.035000 -1.440000
v 0.750000 1.065000 -1.440000
vn -1.0000 -0.0000 -0.0000
vn -0.0000 -0.0000 -1.0000
vn 1.0000 -0.0000 -0.0000
vn -0.0000 -0.0000 1.0000
vn -0.0000 -1.0000 -0.0000
vn -0.0000 1.0000 -0.0000
vt 0.625000 0.000000
vt 0.375000 0.250000
vt 0.375000 0.000000
vt 0.625000 0.250000
vt 0.375000 0.500000
vt 0.625000 0.500000
vt 0.375000 0.750000
vt 0.625000 0.750000
vt 0.375000 1.000000
vt 0.125000 0.750000
vt 0.125000 0.500000
vt 0.875000 0.500000
vt 0.625000 1.000000
vt 0.875000 0.750000
s 0
usemtl MM2_Teal
f 146/228/137 147/229/137 145/230/137
f 148/231/138 151/232/138 147/229/138
f 152/233/139 149/234/139 151/232/139
f 150/235/140 145/236/140 149/234/140
f 151/232/141 145/237/141 147/238/141
f 148/239/142 150/235/142 152/233/142
f 146/228/137 148/231/137 147/229/137
f 148/231/138 152/233/138 151/232/138
f 152/233/139 150/235/139 149/234/139
f 150/235/140 146/240/140 145/236/140
f 151/232/141 149/234/141 145/237/141
f 148/239/142 146/241/142 150/235/142
