# Blender 4.2.8 LTS
# www.blender.org
mtllib hm_bank_camera_dome_v2.mtl
o CAM_Mount
v -0.060000 0.000000 0.060000
v -0.060000 0.040000 0.060000
v -0.060000 0.000000 -0.060000
v -0.060000 0.040000 -0.060000
v 0.060000 0.000000 0.060000
v 0.060000 0.040000 0.060000
v 0.060000 0.000000 -0.060000
v 0.060000 0.040000 -0.060000
vn -1.0000 -0.0000 -0.0000
vn -0.0000 -0.0000 -1.0000
vn 1.0000 -0.0000 -0.0000
vn -0.0000 -0.0000 1.0000
vn -0.0000 -1.0000 -0.0000
vn -0.0000 1.0000 -0.0000
vt 0.625000 0.000000
vt 0.375000 0.250000
vt 0.375000 0.000000
vt 0.625000 0.250000
vt 0.375000 0.500000
vt 0.625000 0.500000
vt 0.375000 0.750000
vt 0.625000 0.750000
vt 0.375000 1.000000
vt 0.125000 0.750000
vt 0.125000 0.500000
vt 0.875000 0.500000
vt 0.625000 1.000000
vt 0.875000 0.750000
s 0
usemtl MM2_GraphiteSteel
f 2/1/1 3/2/1 1/3/1
f 4/4/2 7/5/2 3/2/2
f 8/6/3 5/7/3 7/5/3
f 6/8/4 1/9/4 5/7/4
f 7/5/5 1/10/5 3/11/5
f 4/12/6 6/8/6 8/6/6
f 2/1/1 4/4/1 3/2/1
f 4/4/2 8/6/2 7/5/2
f 8/6/3 6/8/3 5/7/3
f 6/8/4 2/13/4 1/9/4
f 7/5/5 5/7/5 1/10/5
f 4/12/6 2/14/6 6/8/6
o CAM_Base
v 0.000000 -0.030000 -0.080000
v 0.000000 0.010000 -0.080000
v 0.020706 -0.030000 -0.077274
v 0.020706 0.010000 -0.077274
v 0.040000 -0.030000 -0.069282
v 0.040000 0.010000 -0.069282
v 0.056569 -0.030000 -0.056569
v 0.056569 0.010000 -0.056569
v 0.069282 -0.030000 -0.040000
v 0.069282 0.010000 -0.040000
v 0.077274 -0.030000 -0.020706
v 0.077274 0.010000 -0.020706
v 0.080000 -0.030000 0.000000
v 0.080000 0.010000 0.000000
v 0.077274 -0.030000 0.020706
v 0.077274 0.010000 0.020706
v 0.069282 -0.030000 0.040000
v 0.069282 0.010000 0.040000
v 0.056569 -0.030000 0.056569
v 0.056569 0.010000 0.056569
v 0.040000 -0.030000 0.069282
v 0.040000 0.010000 0.069282
v 0.020706 -0.030000 0.077274
v 0.020706 0.010000 0.077274
v 0.000000 -0.030000 0.080000
v 0.000000 0.010000 0.080000
v -0.020706 -0.030000 0.077274
v -0.020706 0.010000 0.077274
v -0.040000 -0.030000 0.069282
v -0.040000 0.010000 0.069282
v -0.056569 -0.030000 0.056569
v -0.056569 0.010000 0.056569
v -0.069282 -0.030000 0.040000
v -0.069282 0.010000 0.040000
v -0.077274 -0.030000 0.020706
v -0.077274 0.010000 0.020706
v -0.080000 -0.030000 0.000000
v -0.080000 0.010000 0.000000
v -0.077274 -0.030000 -0.020706
v -0.077274 0.010000 -0.020706
v -0.069282 -0.030000 -0.040000
v -0.069282 0.010000 -0.040000
v -0.056569 -0.030000 -0.056569
v -0.056569 0.010000 -0.056569
v -0.040000 -0.030000 -0.069282
v -0.040000 0.010000 -0.069282
v -0.020706 -0.030000 -0.077274
v -0.020706 0.010000 -0.077274
vn 0.1305 -0.0000 -0.9914
vn 0.3827 -0.0000 -0.9239
vn 0.6088 -0.0000 -0.7934
vn 0.7934 -0.0000 -0.6088
vn 0.9239 -0.0000 -0.3827
vn 0.9914 -0.0000 -0.1305
vn 0.9914 -0.0000 0.1305
vn 0.9239 -0.0000 0.3827
vn 0.7934 -0.0000 0.6088
vn 0.6088 -0.0000 0.7934
vn 0.3827 -0.0000 0.9239
vn 0.1305 -0.0000 0.9914
vn -0.1305 -0.0000 0.9914
vn -0.3827 -0.0000 0.9239
vn -0.6088 -0.0000 0.7934
vn -0.7934 -0.0000 0.6088
vn -0.9239 -0.0000 0.3827
vn -0.9914 -0.0000 0.1305
vn -0.9914 -0.0000 -0.1305
vn -0.9239 -0.0000 -0.3827
vn -0.7934 -0.0000 -0.6088
vn -0.6088 -0.0000 -0.7934
vn -0.0000 1.0000 -0.0000
vn -0.3827 -0.0000 -0.9239
vn -0.1305 -0.0000 -0.9914
vn -0.0000 -1.0000 -0.0000
vt 1.000000 1.000000
vt 0.958333 0.500000
vt 1.000000 0.500000
vt 0.958333 1.000000
vt 0.916667 0.500000
vt 0.916667 1.000000
vt 0.875000 0.500000
vt 0.875000 1.000000
vt 0.833333 0.500000
vt 0.833333 1.000000
vt 0.791667 0.500000
vt 0.791667 1.000000
vt 0.750000 0.500000
vt 0.750000 1.000000
vt 0.708333 0.500000
vt 0.708333 1.000000
vt 0.666667 0.500000
vt 0.666667 1.000000
vt 0.625000 0.500000
vt 0.625000 1.000000
vt 0.583333 0.500000
vt 0.583333 1.000000
vt 0.541666 0.500000
vt 0.541666 1.000000
vt 0.500000 0.500000
vt 0.500000 1.000000
vt 0.458333 0.500000
vt 0.458333 1.000000
vt 0.416666 0.500000
vt 0.416666 1.000000
vt 0.375000 0.500000
vt 0.375000 1.000000
vt 0.333333 0.500000
vt 0.333333 1.000000
vt 0.291667 0.500000
vt 0.291667 1.000000
vt 0.250000 0.500000
vt 0.250000 1.000000
vt 0.208333 0.500000
vt 0.208333 1.000000
vt 0.166666 0.500000
vt 0.166666 1.000000
vt 0.125000 0.500000
vt 0.125000 1.000000
vt 0.083333 0.500000
vt 0.010000 0.250000
vt 0.370000 0.042154
vt 0.370000 0.457846
vt 0.083333 1.000000
vt 0.041666 0.500000
vt 0.041666 1.000000
vt -0.000000 0.500000
vt 0.981822 0.187883
vt 0.580294 0.080294
vt 0.687883 0.481822
vt 0.312117 0.481822
vt 0.250000 0.490000
vt 0.187883 0.481822
vt 0.130000 0.457846
vt 0.080294 0.419706
vt 0.042154 0.370000
vt 0.018178 0.312117
vt 0.018178 0.187883
vt 0.042154 0.130000
vt 0.080294 0.080294
vt 0.130000 0.042154
vt 0.187883 0.018178
vt 0.250000 0.010000
vt 0.312117 0.018178
vt 0.419706 0.080294
vt 0.457846 0.130000
vt 0.481822 0.187883
vt 0.490000 0.250000
vt 0.481822 0.312117
vt 0.457846 0.370000
vt 0.419706 0.419706
vt -0.000000 1.000000
vt 0.750000 0.490000
vt 0.812117 0.481822
vt 0.870000 0.457846
vt 0.919706 0.419706
vt 0.957846 0.370000
vt 0.981822 0.312117
vt 0.990000 0.250000
vt 0.957846 0.130000
vt 0.919706 0.080294
vt 0.870000 0.042154
vt 0.812117 0.018178
vt 0.750000 0.010000
vt 0.687883 0.018178
vt 0.630000 0.042154
vt 0.542154 0.130000
vt 0.518178 0.187883
vt 0.510000 0.250000
vt 0.518178 0.312117
vt 0.542154 0.370000
vt 0.580294 0.419706
vt 0.630000 0.457846
s 0
usemtl MM2_BrushedAlum
f 10/15/7 11/16/7 9/17/7
f 12/18/8 13/19/8 11/16/8
f 14/20/9 15/21/9 13/19/9
f 16/22/10 17/23/10 15/21/10
f 18/24/11 19/25/11 17/23/11
f 20/26/12 21/27/12 19/25/12
f 22/28/13 23/29/13 21/27/13
f 24/30/14 25/31/14 23/29/14
f 26/32/15 27/33/15 25/31/15
f 28/34/16 29/35/16 27/33/16
f 30/36/17 31/37/17 29/35/17
f 32/38/18 33/39/18 31/37/18
f 34/40/19 35/41/19 33/39/19
f 36/42/20 37/43/20 35/41/20
f 38/44/21 39/45/21 37/43/21
f 40/46/22 41/47/22 39/45/22
f 42/48/23 43/49/23 41/47/23
f 44/50/24 45/51/24 43/49/24
f 46/52/25 47/53/25 45/51/25
f 48/54/26 49/55/26 47/53/26
f 50/56/27 51/57/27 49/55/27
f 52/58/28 53/59/28 51/57/28
f 46/60/29 30/61/29 14/62/29
f 54/63/30 55/64/30 53/59/30
f 56/65/31 9/66/31 55/64/31
f 23/67/32 39/68/32 55/69/32
f 10/15/7 12/18/7 11/16/7
f 12/18/8 14/20/8 13/19/8
f 14/20/9 16/22/9 15/21/9
f 16/22/10 18/24/10 17/23/10
f 18/24/11 20/26/11 19/25/11
f 20/26/12 22/28/12 21/27/12
f 22/28/13 24/30/13 23/29/13
f 24/30/14 26/32/14 25/31/14
f 26/32/15 28/34/15 27/33/15
f 28/34/16 30/36/16 29/35/16
f 30/36/17 32/38/17 31/37/17
f 32/38/18 34/40/18 33/39/18
f 34/40/19 36/42/19 35/41/19
f 36/42/20 38/44/20 37/43/20
f 38/44/21 40/46/21 39/45/21
f 40/46/22 42/48/22 41/47/22
f 42/48/23 44/50/23 43/49/23
f 44/50/24 46/52/24 45/51/24
f 46/52/25 48/54/25 47/53/25
f 48/54/26 50/56/26 49/55/26
f 50/56/27 52/58/27 51/57/27
f 52/58/28 54/63/28 53/59/28
f 14/62/29 12/70/29 10/71/29
f 10/71/29 56/72/29 54/73/29
f 54/73/29 52/74/29 50/75/29
f 50/75/29 48/76/29 46/60/29
f 46/60/29 44/77/29 42/78/29
f 42/78/29 40/79/29 38/80/29
f 38/80/29 36/81/29 34/82/29
f 34/82/29 32/83/29 30/61/29
f 30/61/29 28/84/29 26/85/29
f 26/85/29 24/86/29 22/87/29
f 22/87/29 20/88/29 18/89/29
f 18/89/29 16/90/29 14/62/29
f 14/62/29 10/71/29 54/73/29
f 54/73/29 50/75/29 46/60/29
f 46/60/29 42/78/29 38/80/29
f 38/80/29 34/82/29 30/61/29
f 30/61/29 26/85/29 22/87/29
f 22/87/29 18/89/29 14/62/29
f 14/62/29 54/73/29 46/60/29
f 46/60/29 38/80/29 30/61/29
f 30/61/29 22/87/29 14/62/29
f 54/63/30 56/65/30 55/64/30
f 56/65/31 10/91/31 9/66/31
f 55/69/32 9/92/32 11/93/32
f 11/93/32 13/94/32 15/95/32
f 15/95/32 17/96/32 19/97/32
f 19/97/32 21/98/32 23/67/32
f 23/67/32 25/99/32 27/100/32
f 27/100/32 29/101/32 31/102/32
f 31/102/32 33/103/32 35/104/32
f 35/104/32 37/105/32 39/68/32
f 39/68/32 41/106/32 43/107/32
f 43/107/32 45/108/32 47/109/32
f 47/109/32 49/110/32 51/111/32
f 51/111/32 53/112/32 55/69/32
f 55/69/32 11/93/32 15/95/32
f 15/95/32 19/97/32 23/67/32
f 23/67/32 27/100/32 31/102/32
f 31/102/32 35/104/32 39/68/32
f 39/68/32 43/107/32 47/109/32
f 47/109/32 51/111/32 55/69/32
f 55/69/32 15/95/32 23/67/32
f 23/67/32 31/102/32 39/68/32
f 39/68/32 47/109/32 55/69/32
o CAM_Dome
v 0.000000 -0.056706 -0.086933
v 0.000000 -0.103294 -0.086933
v 0.006029 0.006933 -0.022500
v 0.011647 -0.002058 -0.043467
v 0.016471 -0.016360 -0.061471
v 0.020173 -0.035000 -0.075286
v 0.022500 -0.056706 -0.083971
v 0.023294 -0.080000 -0.086933
v 0.022500 -0.103294 -0.083971
v 0.020173 -0.125000 -0.075286
v 0.016471 -0.143640 -0.061471
v 0.011647 -0.157942 -0.043467
v 0.006029 -0.166933 -0.022500
v 0.011647 0.006933 -0.020173
v 0.022500 -0.002058 -0.038971
v 0.031820 -0.016360 -0.055114
v 0.038971 -0.035000 -0.067500
v 0.043467 -0.056706 -0.075286
v 0.045000 -0.080000 -0.077942
v 0.043467 -0.103294 -0.075286
v 0.038971 -0.125000 -0.067500
v 0.031820 -0.143640 -0.055114
v 0.022500 -0.157942 -0.038971
v 0.011647 -0.166933 -0.020173
v 0.016471 0.006933 -0.016471
v 0.031820 -0.002058 -0.031820
v 0.045000 -0.016360 -0.045000
v 0.055114 -0.035000 -0.055114
v 0.061471 -0.056706 -0.061471
v 0.063640 -0.080000 -0.063640
v 0.061471 -0.103294 -0.061471
v 0.055114 -0.125000 -0.055114
v 0.045000 -0.143640 -0.045000
v 0.031820 -0.157942 -0.031820
v 0.016471 -0.166933 -0.016471
v 0.000000 0.010000 0.000000
v 0.020173 0.006933 -0.011647
v 0.038971 -0.002058 -0.022500
v 0.055114 -0.016360 -0.031820
v 0.067500 -0.035000 -0.038971
v 0.075286 -0.056706 -0.043467
v 0.077942 -0.080000 -0.045000
v 0.075286 -0.103294 -0.043467
v 0.067500 -0.125000 -0.038971
v 0.055114 -0.143640 -0.031820
v 0.038971 -0.157942 -0.022500
v 0.020173 -0.166933 -0.011647
v 0.000000 -0.170000 0.000000
v 0.022500 0.006933 -0.006029
v 0.043467 -0.002058 -0.011647
v 0.061471 -0.016360 -0.016471
v 0.075286 -0.035000 -0.020173
v 0.083971 -0.056706 -0.022500
v 0.086933 -0.080000 -0.023294
v 0.083971 -0.103294 -0.022500
v 0.075286 -0.125000 -0.020173
v 0.061471 -0.143640 -0.016471
v 0.043467 -0.157942 -0.011647
v 0.022500 -0.166933 -0.006029
v 0.023294 0.006933 -0.000000
v 0.045000 -0.002058 -0.000000
v 0.063640 -0.016360 0.000000
v 0.077942 -0.035000 -0.000000
v 0.086933 -0.056706 -0.000000
v 0.090000 -0.080000 -0.000000
v 0.086933 -0.103294 -0.000000
v 0.077942 -0.125000 -0.000000
v 0.063640 -0.143640 0.000000
v 0.045000 -0.157942 -0.000000
v 0.023294 -0.166933 -0.000000
v 0.022500 0.006933 0.006029
v 0.043467 -0.002058 0.011647
v 0.061471 -0.016360 0.016471
v 0.075286 -0.035000 0.020173
v 0.083971 -0.056706 0.022500
v 0.086933 -0.080000 0.023294
v 0.083971 -0.103294 0.022500
v 0.075286 -0.125000 0.020173
v 0.061471 -0.143640 0.016471
v 0.043467 -0.157942 0.011647
v 0.022500 -0.166933 0.006029
v 0.020173 0.006933 0.011647
v 0.038971 -0.002058 0.022500
v 0.055114 -0.016360 0.031820
v 0.067500 -0.035000 0.038971
v 0.075286 -0.056706 0.043467
v 0.077942 -0.080000 0.045000
v 0.075286 -0.103294 0.043467
v 0.067500 -0.125000 0.038971
v 0.055114 -0.143640 0.031820
v 0.038971 -0.157942 0.022500
v 0.020173 -0.166933 0.011647
v 0.016471 0.006933 0.016471
v 0.031820 -0.002058 0.031820
v 0.045000 -0.016360 0.045000
v 0.055114 -0.035000 0.055114
v 0.061471 -0.056706 0.061471
v 0.063640 -0.080000 0.063640
v 0.061471 -0.103294 0.061471
v 0.055114 -0.125000 0.055114
v 0.045000 -0.143640 0.045000
v 0.031820 -0.157942 0.031820
v 0.016471 -0.166933 0.016471
v 0.011647 0.006933 0.020173
v 0.022500 -0.002058 0.038971
v 0.031820 -0.016360 0.055114
v 0.038971 -0.035000 0.067500
v 0.043467 -0.056706 0.075286
v 0.045000 -0.080000 0.077942
v 0.043467 -0.103294 0.075286
v 0.038971 -0.125000 0.067500
v 0.031820 -0.143640 0.055114
v 0.022500 -0.157942 0.038971
v 0.011647 -0.166933 0.020173
v 0.006029 0.006933 0.022500
v 0.011647 -0.002058 0.043467
v 0.016471 -0.016360 0.061471
v 0.020173 -0.035000 0.075286
v 0.022500 -0.056706 0.083971
v 0.023294 -0.080000 0.086933
v 0.022500 -0.103294 0.083971
v 0.020173 -0.125000 0.075286
v 0.016471 -0.143640 0.061471
v 0.011647 -0.157942 0.043467
v 0.006029 -0.166933 0.022500
v 0.000000 0.006933 0.023294
v 0.000000 -0.002058 0.045000
v -0.000000 -0.016360 0.063640
v 0.000000 -0.035000 0.077942
v 0.000000 -0.056706 0.086933
v 0.000000 -0.080000 0.090000
v 0.000000 -0.103294 0.086933
v 0.000000 -0.125000 0.077942
v -0.000000 -0.143640 0.063640
v 0.000000 -0.157942 0.045000
v 0.000000 -0.166933 0.023294
v -0.006029 0.006933 0.022500
v -0.011647 -0.002058 0.043467
v -0.016471 -0.016360 0.061471
v -0.020173 -0.035000 0.075286
v -0.022500 -0.056706 0.083971
v -0.023294 -0.080000 0.086933
v -0.022500 -0.103294 0.083971
v -0.020173 -0.125000 0.075286
v -0.016471 -0.143640 0.061471
v -0.011647 -0.157942 0.043467
v -0.006029 -0.166933 0.022500
v -0.011647 0.006933 0.020173
v -0.022500 -0.002058 0.038971
v -0.031820 -0.016360 0.055114
v -0.038971 -0.035000 0.067500
v -0.043467 -0.056706 0.075286
v -0.045000 -0.080000 0.077942
v -0.043467 -0.103294 0.075286
v -0.038971 -0.125000 0.067500
v -0.031820 -0.143640 0.055114
v -0.022500 -0.157942 0.038971
v -0.011647 -0.166933 0.020173
v -0.016471 0.006933 0.016471
v -0.031820 -0.002058 0.031820
v -0.045000 -0.016360 0.045000
v -0.055113 -0.035000 0.055114
v -0.061471 -0.056706 0.061471
v -0.063640 -0.080000 0.063640
v -0.061471 -0.103294 0.061471
v -0.055113 -0.125000 0.055114
v -0.045000 -0.143640 0.045000
v -0.031820 -0.157942 0.031820
v -0.016471 -0.166933 0.016471
v -0.020173 0.006933 0.011647
v -0.038971 -0.002058 0.022500
v -0.055114 -0.016360 0.031820
v -0.067500 -0.035000 0.038971
v -0.075286 -0.056706 0.043467
v -0.077942 -0.080000 0.045000
v -0.075286 -0.103294 0.043467
v -0.067500 -0.125000 0.038971
v -0.055114 -0.143640 0.031820
v -0.038971 -0.157942 0.022500
v -0.020173 -0.166933 0.011647
v -0.022500 0.006933 0.006029
v -0.043467 -0.002058 0.011647
v -0.061471 -0.016360 0.016471
v -0.075286 -0.035000 0.020173
v -0.083971 -0.056706 0.022500
v -0.086933 -0.080000 0.023294
v -0.083971 -0.103294 0.022500
v -0.075286 -0.125000 0.020173
v -0.061471 -0.143640 0.016471
v -0.043467 -0.157942 0.011647
v -0.022500 -0.166933 0.006029
v -0.023294 0.006933 -0.000000
v -0.045000 -0.002058 0.000000
v -0.063640 -0.016360 -0.000000
v -0.077942 -0.035000 0.000000
v -0.086933 -0.056706 -0.000000
v -0.090000 -0.080000 0.000000
v -0.086933 -0.103294 -0.000000
v -0.077942 -0.125000 0.000000
v -0.063640 -0.143640 -0.000000
v -0.045000 -0.157942 0.000000
v -0.023294 -0.166933 -0.000000
v -0.022500 0.006933 -0.006029
v -0.043467 -0.002058 -0.011647
v -0.061471 -0.016360 -0.016471
v -0.075286 -0.035000 -0.020173
v -0.083971 -0.056706 -0.022500
v -0.086933 -0.080000 -0.023294
v -0.083971 -0.103294 -0.022500
v -0.075286 -0.125000 -0.020173
v -0.061471 -0.143640 -0.016471
v -0.043467 -0.157942 -0.011647
v -0.022500 -0.166933 -0.006029
v -0.020173 0.006933 -0.011647
v -0.038971 -0.002058 -0.022500
v -0.055113 -0.016360 -0.031820
v -0.067500 -0.035000 -0.038971
v -0.075286 -0.056706 -0.043467
v -0.077942 -0.080000 -0.045000
v -0.075286 -0.103294 -0.043467
v -0.067500 -0.125000 -0.038971
v -0.055113 -0.143640 -0.031820
v -0.038971 -0.157942 -0.022500
v -0.020173 -0.166933 -0.011647
v -0.016471 0.006933 -0.016471
v -0.031820 -0.002058 -0.031820
v -0.045000 -0.016360 -0.045000
v -0.055113 -0.035000 -0.055113
v -0.061471 -0.056706 -0.061471
v -0.063640 -0.080000 -0.063640
v -0.061471 -0.103294 -0.061471
v -0.055113 -0.125000 -0.055113
v -0.045000 -0.143640 -0.045000
v -0.031820 -0.157942 -0.031820
v -0.016471 -0.166933 -0.016471
v -0.011647 0.006933 -0.020173
v -0.022500 -0.002058 -0.038971
v -0.031820 -0.016360 -0.055114
v -0.038971 -0.035000 -0.067500
v -0.043467 -0.056706 -0.075286
v -0.045000 -0.080000 -0.077942
v -0.043467 -0.103294 -0.075286
v -0.038971 -0.125000 -0.067500
v -0.031820 -0.143640 -0.055114
v -0.022500 -0.157942 -0.038971
v -0.011647 -0.166933 -0.020173
v -0.006029 0.006933 -0.022500
v -0.011647 -0.002058 -0.043467
v -0.016471 -0.016360 -0.061471
v -0.020173 -0.035000 -0.075286
v -0.022500 -0.056706 -0.083971
v -0.023294 -0.080000 -0.086933
v -0.022500 -0.103294 -0.083971
v -0.020173 -0.125000 -0.075286
v -0.016471 -0.143640 -0.061471
v -0.011647 -0.157942 -0.043467
v -0.006029 -0.166933 -0.022500
v 0.000000 0.006933 -0.023294
v -0.000000 -0.002058 -0.045000
v 0.000000 -0.016360 -0.063640
v -0.000000 -0.035000 -0.077942
v -0.000000 -0.080000 -0.090000
v -0.000000 -0.125000 -0.077942
v 0.000000 -0.143640 -0.063640
v -0.000000 -0.157942 -0.045000
v 0.000000 -0.166933 -0.023294
vn -0.0000 0.2561 -0.9666
vn -0.0000 -0.2561 -0.9666
vn 0.0696 0.9632 -0.2597
vn 0.1315 0.8613 -0.4908
vn 0.1844 0.7017 -0.6882
vn 0.2248 0.4954 -0.8391
vn 0.2502 0.2561 -0.9337
vn 0.2588 -0.0000 -0.9659
vn 0.2502 -0.2562 -0.9337
vn 0.2248 -0.4954 -0.8391
vn 0.1844 -0.7017 -0.6882
vn 0.1315 -0.8613 -0.4908
vn 0.0696 -0.9632 -0.2597
vn 0.1345 0.9632 -0.2329
vn 0.2540 0.8613 -0.4400
vn 0.3562 0.7017 -0.6170
vn 0.4343 0.4954 -0.7523
vn 0.4833 0.2562 -0.8371
vn 0.5000 -0.0000 -0.8660
vn 0.4833 -0.2561 -0.8371
vn 0.4343 -0.4954 -0.7523
vn 0.3562 -0.7017 -0.6170
vn 0.2540 -0.8613 -0.4400
vn 0.1345 -0.9632 -0.2329
vn 0.1901 0.9632 -0.1901
vn 0.3593 0.8613 -0.3593
vn 0.5038 0.7017 -0.5038
vn 0.6143 0.4954 -0.6143
vn 0.6835 0.2561 -0.6835
vn 0.7071 -0.0000 -0.7071
vn 0.6835 -0.2561 -0.6835
vn 0.6143 -0.4954 -0.6143
vn 0.5038 -0.7017 -0.5038
vn 0.3593 -0.8613 -0.3593
vn 0.1901 -0.9632 -0.1901
vn -0.0000 1.0000 -0.0000
vn 0.2329 0.9632 -0.1345
vn 0.4400 0.8613 -0.2540
vn 0.6170 0.7017 -0.3562
vn 0.7523 0.4954 -0.4343
vn 0.8371 0.2561 -0.4833
vn 0.8660 -0.0000 -0.5000
vn 0.8371 -0.2562 -0.4833
vn 0.7523 -0.4954 -0.4343
vn 0.6170 -0.7017 -0.3562
vn 0.4400 -0.8613 -0.2540
vn 0.2329 -0.9632 -0.1345
vn -0.0000 -1.0000 -0.0000
vn 0.2597 0.9632 -0.0696
vn 0.4908 0.8613 -0.1315
vn 0.6882 0.7017 -0.1844
vn 0.8391 0.4954 -0.2248
vn 0.9337 0.2561 -0.2502
vn 0.9659 -0.0000 -0.2588
vn 0.9337 -0.2561 -0.2502
vn 0.8391 -0.4954 -0.2248
vn 0.6882 -0.7017 -0.1844
vn 0.4908 -0.8613 -0.1315
vn 0.2597 -0.9632 -0.0696
vn 0.2689 0.9632 -0.0000
vn 0.5081 0.8613 -0.0000
vn 0.7125 0.7017 -0.0000
vn 0.8687 0.4954 -0.0000
vn 0.9666 0.2561 -0.0000
vn 1.0000 -0.0000 -0.0000
vn 0.9666 -0.2562 -0.0000
vn 0.8687 -0.4954 -0.0000
vn 0.7125 -0.7017 -0.0000
vn 0.5081 -0.8613 -0.0000
vn 0.2689 -0.9632 -0.0000
vn 0.2597 0.9632 0.0696
vn 0.4908 0.8613 0.1315
vn 0.6882 0.7017 0.1844
vn 0.8391 0.4954 0.2248
vn 0.9337 0.2561 0.2502
vn 0.9659 -0.0000 0.2588
vn 0.9337 -0.2561 0.2502
vn 0.8391 -0.4954 0.2248
vn 0.6882 -0.7017 0.1844
vn 0.4908 -0.8613 0.1315
vn 0.2597 -0.9632 0.0696
vn 0.2329 0.9632 0.1345
vn 0.4400 0.8613 0.2540
vn 0.6170 0.7017 0.3562
vn 0.7523 0.4954 0.4343
vn 0.8371 0.2561 0.4833
vn 0.8660 -0.0000 0.5000
vn 0.8371 -0.2561 0.4833
vn 0.7523 -0.4954 0.4343
vn 0.6170 -0.7017 0.3562
vn 0.4400 -0.8613 0.2540
vn 0.2329 -0.9632 0.1345
vn 0.1901 0.9632 0.1901
vn 0.3593 0.8613 0.3593
vn 0.5038 0.7017 0.5038
vn 0.6143 0.4954 0.6143
vn 0.6835 0.2562 0.6835
vn 0.7071 -0.0000 0.7071
vn 0.6835 -0.2561 0.6835
vn 0.6143 -0.4954 0.6143
vn 0.5038 -0.7017 0.5038
vn 0.3593 -0.8613 0.3593
vn 0.1901 -0.9632 0.1901
vn 0.1345 0.9632 0.2329
vn 0.2540 0.8613 0.4400
vn 0.3562 0.7017 0.6170
vn 0.4343 0.4954 0.7523
vn 0.4833 0.2561 0.8371
vn 0.5000 -0.0000 0.8660
vn 0.4833 -0.2561 0.8371
vn 0.4343 -0.4954 0.7523
vn 0.3562 -0.7017 0.6170
vn 0.2540 -0.8613 0.4400
vn 0.1345 -0.9632 0.2329
vn 0.0696 0.9632 0.2597
vn 0.1315 0.8613 0.4908
vn 0.1844 0.7017 0.6882
vn 0.2248 0.4954 0.8391
vn 0.2502 0.2561 0.9337
vn 0.2588 -0.0000 0.9659
vn 0.2502 -0.2561 0.9337
vn 0.2248 -0.4954 0.8391
vn 0.1844 -0.7017 0.6882
vn 0.1315 -0.8613 0.4908
vn 0.0696 -0.9632 0.2597
vn -0.0000 0.9632 0.2689
vn -0.0000 0.8613 0.5081
vn -0.0000 0.7017 0.7125
vn -0.0000 0.4954 0.8687
vn -0.0000 0.2561 0.9666
vn -0.0000 -0.0000 1.0000
vn -0.0000 -0.2561 0.9666
vn -0.0000 -0.4954 0.8687
vn -0.0000 -0.7017 0.7125
vn -0.0000 -0.8613 0.5081
vn -0.0000 -0.9632 0.2689
vn -0.0696 0.9632 0.2597
vn -0.1315 0.8613 0.4908
vn -0.1844 0.7017 0.6882
vn -0.2248 0.4954 0.8391
vn -0.2502 0.2561 0.9337
vn -0.2588 -0.0000 0.9659
vn -0.2502 -0.2562 0.9337
vn -0.2248 -0.4954 0.8391
vn -0.1844 -0.7017 0.6882
vn -0.1315 -0.8613 0.4908
vn -0.0696 -0.9632 0.2597
vn -0.1345 0.9632 0.2329
vn -0.2540 0.8613 0.4400
vn -0.3562 0.7017 0.6170
vn -0.4343 0.4954 0.7523
vn -0.4833 0.2561 0.8371
vn -0.5000 -0.0000 0.8660
vn -0.4833 -0.2561 0.8371
vn -0.4343 -0.4954 0.7523
vn -0.3562 -0.7017 0.6170
vn -0.2540 -0.8613 0.4400
vn -0.1345 -0.9632 0.2329
vn -0.1901 0.9632 0.1901
vn -0.3593 0.8613 0.3593
vn -0.5038 0.7017 0.5038
vn -0.6143 0.4954 0.6143
vn -0.6835 0.2561 0.6835
vn -0.7071 -0.0000 0.7071
vn -0.6835 -0.2561 0.6835
vn -0.6143 -0.4954 0.6143
vn -0.5038 -0.7017 0.5038
vn -0.3593 -0.8613 0.3593
vn -0.1901 -0.9632 0.1901
vn -0.2329 0.9632 0.1345
vn -0.4400 0.8613 0.2540
vn -0.6170 0.7017 0.3562
vn -0.7523 0.4954 0.4343
vn -0.8371 0.2561 0.4833
vn -0.8660 -0.0000 0.5000
vn -0.8371 -0.2561 0.4833
vn -0.7523 -0.4954 0.4343
vn -0.6170 -0.7017 0.3562
vn -0.4400 -0.8613 0.2540
vn -0.2329 -0.9632 0.1345
vn -0.2597 0.9632 0.0696
vn -0.4908 0.8613 0.1315
vn -0.6882 0.7017 0.1844
vn -0.8391 0.4954 0.2248
vn -0.9337 0.2561 0.2502
vn -0.9659 -0.0000 0.2588
vn -0.9337 -0.2561 0.2502
vn -0.8391 -0.4954 0.2248
vn -0.6882 -0.7017 0.1844
vn -0.4908 -0.8613 0.1315
vn -0.2597 -0.9632 0.0696
vn -0.2689 0.9632 -0.0000
vn -0.5081 0.8613 -0.0000
vn -0.7125 0.7017 -0.0000
vn -0.8687 0.4954 -0.0000
vn -0.9666 0.2561 -0.0000
vn -1.0000 -0.0000 -0.0000
vn -0.9666 -0.2561 -0.0000
vn -0.8687 -0.4954 -0.0000
vn -0.7125 -0.7017 -0.0000
vn -0.5081 -0.8613 -0.0000
vn -0.2689 -0.9632 -0.0000
vn -0.2597 0.9632 -0.0696
vn -0.4908 0.8613 -0.1315
vn -0.6882 0.7017 -0.1844
vn -0.8391 0.4954 -0.2248
vn -0.9337 0.2561 -0.2502
vn -0.9659 -0.0000 -0.2588
vn -0.9337 -0.2561 -0.2502
vn -0.8391 -0.4954 -0.2248
vn -0.6882 -0.7017 -0.1844
vn -0.4908 -0.8613 -0.1315
vn -0.2597 -0.9632 -0.0696
vn -0.2329 0.9632 -0.1345
vn -0.4400 0.8613 -0.2540
vn -0.6170 0.7017 -0.3562
vn -0.7523 0.4954 -0.4343
vn -0.8371 0.2561 -0.4833
vn -0.8660 -0.0000 -0.5000
vn -0.8371 -0.2561 -0.4833
vn -0.7523 -0.4954 -0.4343
vn -0.6170 -0.7017 -0.3562
vn -0.4400 -0.8613 -0.2540
vn -0.2329 -0.9632 -0.1345
vn -0.1901 0.9632 -0.1901
vn -0.3593 0.8613 -0.3593
vn -0.5038 0.7017 -0.5038
vn -0.6143 0.4954 -0.6143
vn -0.6835 0.2561 -0.6835
vn -0.7071 -0.0000 -0.7071
vn -0.6835 -0.2561 -0.6835
vn -0.6143 -0.4954 -0.6143
vn -0.5038 -0.7017 -0.5038
vn -0.3593 -0.8613 -0.3593
vn -0.1901 -0.9632 -0.1901
vn -0.1345 0.9632 -0.2329
vn -0.2540 0.8613 -0.4400
vn -0.3562 0.7017 -0.6170
vn -0.4343 0.4954 -0.7523
vn -0.4833 0.2561 -0.8371
vn -0.5000 -0.0000 -0.8660
vn -0.4833 -0.2561 -0.8371
vn -0.4343 -0.4954 -0.7523
vn -0.3562 -0.7017 -0.6170
vn -0.2540 -0.8613 -0.4400
vn -0.1345 -0.9632 -0.2329
vn -0.0696 0.9632 -0.2597
vn -0.1315 0.8613 -0.4908
vn -0.1844 0.7017 -0.6882
vn -0.2248 0.4954 -0.8391
vn -0.2502 0.2561 -0.9337
vn -0.2588 -0.0000 -0.9659
vn -0.2502 -0.2561 -0.9337
vn -0.2248 -0.4954 -0.8391
vn -0.1844 -0.7017 -0.6882
vn -0.1315 -0.8613 -0.4908
vn -0.0696 -0.9632 -0.2597
vn -0.0000 0.9632 -0.2689
vn -0.0000 0.8613 -0.5081
vn -0.0000 0.7017 -0.7125
vn -0.0000 0.4954 -0.8687
vn -0.0000 -0.0000 -1.0000
vn -0.0000 -0.4954 -0.8687
vn -0.0000 -0.7017 -0.7125
vn -0.0000 -0.8613 -0.5081
vn -0.0000 -0.9632 -0.2689
vt 0.750000 0.250000
vt 0.708333 0.166667
vt 0.750000 0.166667
vt 0.750000 0.416667
vt 0.708333 0.500000
vt 0.708333 0.416667
vt 0.750000 0.666667
vt 0.708333 0.750000
vt 0.708333 0.666667
vt 0.708333 0.083333
vt 0.750000 0.083333
vt 0.750000 0.916667
vt 0.729167 1.000000
vt 0.708333 0.916667
vt 0.708333 0.333333
vt 0.750000 0.333333
vt 0.750000 0.583333
vt 0.708333 0.583333
vt 0.729167 0.000000
vt 0.750000 0.833333
vt 0.708333 0.833333
vt 0.708333 0.250000
vt 0.750000 0.500000
vt 0.750000 0.750000
vt 0.666667 0.583333
vt 0.687500 0.000000
vt 0.666667 0.083333
vt 0.666667 0.833333
vt 0.666667 0.250000
vt 0.666667 0.500000
vt 0.666667 0.750000
vt 0.666667 0.166667
vt 0.666667 0.416667
vt 0.666667 0.666667
vt 0.687500 1.000000
vt 0.666667 0.916667
vt 0.666667 0.333333
vt 0.625000 0.500000
vt 0.625000 0.416667
vt 0.625000 0.666667
vt 0.625000 0.166667
vt 0.625000 0.083333
vt 0.645833 1.000000
vt 0.625000 0.916667
vt 0.625000 0.333333
vt 0.625000 0.583333
vt 0.645833 0.000000
vt 0.625000 0.833333
vt 0.625000 0.250000
vt 0.625000 0.750000
vt 0.583333 0.500000
vt 0.583333 0.833333
vt 0.583333 0.750000
vt 0.583333 0.166667
vt 0.583333 0.416667
vt 0.583333 0.666667
vt 0.583333 0.083333
vt 0.604167 1.000000
vt 0.583333 0.916667
vt 0.583333 0.333333
vt 0.583333 0.583333
vt 0.604167 0.000000
vt 0.583333 0.250000
vt 0.541667 0.333333
vt 0.541667 0.583333
vt 0.562500 0.000000
vt 0.541667 0.083333
vt 0.541667 0.916667
vt 0.541667 0.833333
vt 0.541667 0.250000
vt 0.541667 0.500000
vt 0.541667 0.750000
vt 0.541667 0.166667
vt 0.541667 0.416667
vt 0.541667 0.666667
vt 0.562500 1.000000
vt 0.500000 0.500000
vt 0.500000 0.416667
vt 0.500000 0.666667
vt 0.500000 0.166667
vt 0.500000 0.083333
vt 0.520833 1.000000
vt 0.500000 0.916667
vt 0.500000 0.333333
vt 0.500000 0.583333
vt 0.520833 0.000000
vt 0.500000 0.833333
vt 0.500000 0.250000
vt 0.500000 0.750000
vt 0.458333 0.333333
vt 0.458333 0.250000
vt 0.458333 0.500000
vt 0.458333 0.750000
vt 0.458333 0.166667
vt 0.458333 0.416667
vt 0.458333 0.666667
vt 0.458333 0.083333
vt 0.479167 1.000000
vt 0.458333 0.916667
vt 0.458333 0.583333
vt 0.479167 0.000000
vt 0.458333 0.833333
vt 0.437500 1.000000
vt 0.416667 0.916667
vt 0.416667 0.333333
vt 0.416667 0.583333
vt 0.437500 0.000000
vt 0.416667 0.083333
vt 0.416667 0.833333
vt 0.416667 0.250000
vt 0.416667 0.500000
vt 0.416667 0.750000
vt 0.416667 0.166667
vt 0.416667 0.416667
vt 0.416667 0.666667
vt 0.375000 0.166667
vt 0.375000 0.416667
vt 0.375000 0.666667
vt 0.375000 0.083333
vt 0.395833 1.000000
vt 0.375000 0.916667
vt 0.375000 0.333333
vt 0.375000 0.583333
vt 0.395833 0.000000
vt 0.375000 0.833333
vt 0.375000 0.250000
vt 0.375000 0.500000
vt 0.375000 0.750000
vt 0.333333 0.833333
vt 0.333333 0.333333
vt 0.333333 0.250000
vt 0.333333 0.583333
vt 0.333333 0.500000
vt 0.333333 0.750000
vt 0.333333 0.166667
vt 0.333333 0.416667
vt 0.333333 0.666667
vt 0.333333 0.083333
vt 0.354167 1.000000
vt 0.333333 0.916667
vt 0.354167 0.000000
vt 0.291667 0.083333
vt 0.312500 1.000000
vt 0.291667 0.916667
vt 0.291667 0.416667
vt 0.291667 0.333333
vt 0.291667 0.583333
vt 0.312500 0.000000
vt 0.291667 0.833333
vt 0.291667 0.250000
vt 0.291667 0.500000
vt 0.291667 0.750000
vt 0.291667 0.166667
vt 0.291667 0.666667
vt 0.250000 0.750000
vt 0.250000 0.166667
vt 0.250000 0.416667
vt 0.250000 0.666667
vt 0.250000 0.083333
vt 0.270833 1.000000
vt 0.250000 0.916667
vt 0.250000 0.333333
vt 0.250000 0.583333
vt 0.270833 0.000000
vt 0.250000 0.833333
vt 0.250000 0.250000
vt 0.250000 0.500000
vt 0.229167 0.000000
vt 0.208333 0.083333
vt 0.208333 0.833333
vt 0.208333 0.333333
vt 0.208333 0.250000
vt 0.208333 0.500000
vt 0.208333 0.750000
vt 0.208333 0.166667
vt 0.208333 0.416667
vt 0.208333 0.666667
vt 0.229167 1.000000
vt 0.208333 0.916667
vt 0.208333 0.583333
vt 0.166667 0.666667
vt 0.166667 0.083333
vt 0.187500 1.000000
vt 0.166667 0.916667
vt 0.166667 0.333333
vt 0.166667 0.583333
vt 0.187500 0.000000
vt 0.166667 0.833333
vt 0.166667 0.250000
vt 0.166667 0.500000
vt 0.166667 0.750000
vt 0.166667 0.166667
vt 0.166667 0.416667
vt 0.125000 0.833333
vt 0.125000 0.750000
vt 0.125000 0.166667
vt 0.125000 0.500000
vt 0.125000 0.416667
vt 0.125000 0.666667
vt 0.125000 0.083333
vt 0.145833 1.000000
vt 0.125000 0.916667
vt 0.125000 0.333333
vt 0.125000 0.583333
vt 0.145833 0.000000
vt 0.125000 0.250000
vt 0.083333 0.583333
vt 0.104167 0.000000
vt 0.083333 0.083333
vt 0.083333 0.833333
vt 0.083333 0.333333
vt 0.083333 0.250000
vt 0.083333 0.500000
vt 0.083333 0.750000
vt 0.083333 0.166667
vt 0.083333 0.416667
vt 0.083333 0.666667
vt 0.104167 1.000000
vt 0.083333 0.916667
vt 0.041667 0.666667
vt 0.041667 0.166667
vt 0.041667 0.083333
vt 0.062500 1.000000
vt 0.041667 0.916667
vt 0.041667 0.333333
vt 0.041667 0.583333
vt 0.062500 0.000000
vt 0.041667 0.833333
vt 0.041667 0.250000
vt 0.041667 0.500000
vt 0.041667 0.750000
vt 0.041667 0.416667
vt 0.000000 0.500000
vt 0.000000 0.833333
vt 0.000000 0.750000
vt 0.000000 0.166667
vt 0.000000 0.416667
vt 0.000000 0.666667
vt 0.000000 0.083333
vt 0.020833 1.000000
vt 0.000000 0.916667
vt 0.000000 0.333333
vt 0.000000 0.583333
vt 0.020833 0.000000
vt 0.000000 0.250000
vt 1.000000 0.583333
vt 0.958333 0.666667
vt 0.958333 0.583333
vt 0.979167 0.000000
vt 1.000000 0.083333
vt 0.958333 0.083333
vt 1.000000 0.916667
vt 0.958333 0.833333
vt 1.000000 0.833333
vt 1.000000 0.250000
vt 0.958333 0.333333
vt 0.958333 0.250000
vt 0.958333 0.500000
vt 1.000000 0.500000
vt 1.000000 0.750000
vt 0.958333 0.750000
vt 0.958333 0.166667
vt 1.000000 0.166667
vt 1.000000 0.416667
vt 0.958333 0.416667
vt 1.000000 0.666667
vt 0.979167 1.000000
vt 0.958333 0.916667
vt 1.000000 0.333333
vt 0.916667 0.500000
vt 0.916667 0.416667
vt 0.916667 0.666667
vt 0.916667 0.083333
vt 0.937500 1.000000
vt 0.916667 0.916667
vt 0.916667 0.333333
vt 0.916667 0.583333
vt 0.937500 0.000000
vt 0.916667 0.833333
vt 0.916667 0.250000
vt 0.916667 0.750000
vt 0.916667 0.166667
vt 0.875000 0.500000
vt 0.875000 0.833333
vt 0.875000 0.750000
vt 0.875000 0.166667
vt 0.875000 0.416667
vt 0.875000 0.666667
vt 0.875000 0.083333
vt 0.895833 1.000000
vt 0.875000 0.916667
vt 0.875000 0.333333
vt 0.875000 0.583333
vt 0.895833 0.000000
vt 0.875000 0.250000
vt 0.833333 0.333333
vt 0.833333 0.666667
vt 0.833333 0.583333
vt 0.854167 0.000000
vt 0.833333 0.083333
vt 0.833333 0.833333
vt 0.833333 0.250000
vt 0.833333 0.500000
vt 0.833333 0.750000
vt 0.833333 0.166667
vt 0.833333 0.416667
vt 0.854167 1.000000
vt 0.833333 0.916667
vt 0.791667 0.500000
vt 0.791667 0.416667
vt 0.791667 0.666667
vt 0.791667 0.166667
vt 0.791667 0.083333
vt 0.812500 1.000000
vt 0.791667 0.916667
vt 0.791667 0.333333
vt 0.791667 0.583333
vt 0.812500 0.000000
vt 0.791667 0.833333
vt 0.791667 0.250000
vt 0.791667 0.750000
vt 0.770833 1.000000
vt 0.770833 0.000000
s 1
usemtl MM2_GlassFrost
f 320/113/296 68/114/44 321/115/297
f 58/116/34 64/117/40 65/118/41
f 317/119/293 61/120/37 62/121/38
f 321/115/297 69/122/45 322/123/298
f 314/124/290 92/125/68 59/126/35
f 58/116/34 66/127/42 319/128/295
f 57/129/33 62/121/38 63/130/39
f 104/131/80 322/123/298 69/122/45
f 315/132/291 59/126/35 60/133/36
f 319/128/295 67/134/43 320/113/296
f 57/129/33 64/117/40 318/135/294
f 316/136/292 60/133/36 61/120/37
f 62/121/38 74/137/50 63/130/39
f 104/138/80 69/122/45 80/139/56
f 59/126/35 71/140/47 60/133/36
f 66/127/42 78/141/54 67/134/43
f 63/130/39 75/142/51 64/117/40
f 60/133/36 72/143/48 61/120/37
f 67/134/43 79/144/55 68/114/44
f 64/117/40 76/145/52 65/118/41
f 61/120/37 73/146/49 62/121/38
f 68/114/44 80/139/56 69/122/45
f 59/126/35 92/147/68 70/148/46
f 65/118/41 77/149/53 66/127/42
f 76/145/52 86/150/62 87/151/63
f 72/143/48 84/152/60 73/146/49
f 80/139/56 90/153/66 91/154/67
f 70/148/46 92/155/68 81/156/57
f 77/149/53 87/151/63 88/157/64
f 73/146/49 85/158/61 74/137/50
f 104/159/80 80/139/56 91/154/67
f 70/148/46 82/160/58 71/140/47
f 78/141/54 88/157/64 89/161/65
f 75/142/51 85/158/61 86/150/62
f 71/140/47 83/162/59 72/143/48
f 79/144/55 89/161/65 90/153/66
f 85/158/61 98/163/74 86/150/62
f 83/162/59 94/164/70 95/165/71
f 89/161/65 102/166/78 90/153/66
f 87/151/63 98/163/74 99/167/75
f 83/162/59 96/168/72 84/152/60
f 90/153/66 103/169/79 91/154/67
f 81/156/57 92/170/68 93/171/69
f 87/151/63 100/172/76 88/157/64
f 85/158/61 96/168/72 97/173/73
f 104/174/80 91/154/67 103/169/79
f 81/156/57 94/164/70 82/160/58
f 88/157/64 101/175/77 89/161/65
f 99/167/75 112/176/88 100/172/76
f 96/168/72 109/177/85 97/173/73
f 104/178/80 103/169/79 115/179/91
f 94/164/70 105/180/81 106/181/82
f 101/175/77 112/176/88 113/182/89
f 98/163/74 109/177/85 110/183/86
f 94/164/70 107/184/83 95/165/71
f 101/175/77 114/185/90 102/166/78
f 98/163/74 111/186/87 99/167/75
f 95/165/71 108/187/84 96/168/72
f 102/166/78 115/179/91 103/169/79
f 93/171/69 92/188/68 105/180/81
f 111/186/87 121/189/97 122/190/98
f 107/184/83 119/191/95 108/187/84
f 115/179/91 125/192/101 126/193/102
f 105/180/81 92/194/68 116/195/92
f 111/186/87 123/196/99 112/176/88
f 108/187/84 120/197/96 109/177/85
f 104/198/80 115/179/91 126/193/102
f 105/180/81 117/199/93 106/181/82
f 113/182/89 123/196/99 124/200/100
f 109/177/85 121/189/97 110/183/86
f 106/181/82 118/201/94 107/184/83
f 113/182/89 125/192/101 114/185/90
f 124/200/100 134/202/110 135/203/111
f 120/197/96 132/204/108 121/189/97
f 117/199/93 129/205/105 118/201/94
f 124/200/100 136/206/112 125/192/101
f 121/189/97 133/207/109 122/190/98
f 118/201/94 130/208/106 119/191/95
f 125/192/101 137/209/113 126/193/102
f 116/195/92 92/210/68 127/211/103
f 122/190/98 134/202/110 123/196/99
f 120/197/96 130/208/106 131/212/107
f 104/213/80 126/193/102 137/209/113
f 116/195/92 128/214/104 117/199/93
f 127/211/103 92/215/68 138/216/114
f 133/207/109 145/217/121 134/202/110
f 130/208/106 142/218/118 131/212/107
f 104/219/80 137/209/113 148/220/124
f 128/214/104 138/216/114 139/221/115
f 135/203/111 145/217/121 146/222/122
f 131/212/107 143/223/119 132/204/108
f 129/205/105 139/221/115 140/224/116
f 135/203/111 147/225/123 136/206/112
f 132/204/108 144/226/120 133/207/109
f 129/205/105 141/227/117 130/208/106
f 136/206/112 148/220/124 137/209/113
f 146/222/122 158/228/134 147/225/123
f 143/223/119 155/229/131 144/226/120
f 140/224/116 152/230/128 141/227/117
f 148/220/124 158/228/134 159/231/135
f 138/216/114 92/232/68 149/233/125
f 144/226/120 156/234/132 145/217/121
f 141/227/117 153/235/129 142/218/118
f 104/236/80 148/220/124 159/231/135
f 138/216/114 150/237/126 139/221/115
f 146/222/122 156/234/132 157/238/133
f 142/218/118 154/239/130 143/223/119
f 140/224/116 150/237/126 151/240/127
f 149/233/125 161/241/137 150/237/126
f 157/238/133 167/242/143 168/243/144
f 154/239/130 164/244/140 165/245/141
f 151/240/127 161/241/137 162/246/138
f 157/238/133 169/247/145 158/228/134
f 154/239/130 166/248/142 155/229/131
f 151/240/127 163/249/139 152/230/128
f 159/231/135 169/247/145 170/250/146
f 149/233/125 92/251/68 160/252/136
f 156/234/132 166/248/142 167/242/143
f 152/230/128 164/244/140 153/235/129
f 104/253/80 159/231/135 170/250/146
f 169/247/145 181/254/157 170/250/146
f 160/252/136 92/255/68 171/256/147
f 167/242/143 177/257/153 178/258/154
f 163/249/139 175/259/151 164/244/140
f 104/260/80 170/250/146 181/254/157
f 160/252/136 172/261/148 161/241/137
f 168/243/144 178/258/154 179/262/155
f 164/244/140 176/263/152 165/245/141
f 162/246/138 172/261/148 173/264/149
f 168/243/144 180/265/156 169/247/145
f 165/245/141 177/257/153 166/248/142
f 162/246/138 174/266/150 163/249/139
f 172/261/148 184/267/160 173/264/149
f 179/262/155 191/268/167 180/265/156
f 176/263/152 188/269/164 177/257/153
f 173/264/149 185/270/161 174/266/150
f 180/265/156 192/271/168 181/254/157
f 171/256/147 92/272/68 182/273/158
f 177/257/153 189/274/165 178/258/154
f 175/259/151 185/270/161 186/275/162
f 104/276/80 181/254/157 192/271/168
f 171/256/147 183/277/159 172/261/148
f 179/262/155 189/274/165 190/278/166
f 175/259/151 187/279/163 176/263/152
f 104/280/80 192/271/168 203/281/179
f 182/273/158 194/282/170 183/277/159
f 190/278/166 200/283/176 201/284/177
f 186/275/162 198/285/174 187/279/163
f 184/267/160 194/282/170 195/286/171
f 190/278/166 202/287/178 191/268/167
f 188/269/164 198/285/174 199/288/175
f 184/267/160 196/289/172 185/270/161
f 191/268/167 203/281/179 192/271/168
f 182/273/158 92/290/68 193/291/169
f 188/269/164 200/283/176 189/274/165
f 186/275/162 196/289/172 197/292/173
f 195/286/171 207/293/183 196/289/172
f 202/287/178 214/294/190 203/281/179
f 193/291/169 92/295/68 204/296/180
f 199/288/175 211/297/187 200/283/176
f 197/292/173 207/293/183 208/298/184
f 104/299/80 203/281/179 214/294/190
f 194/282/170 204/296/180 205/300/181
f 201/284/177 211/297/187 212/301/188
f 197/292/173 209/302/185 198/285/174
f 195/286/171 205/300/181 206/303/182
f 201/284/177 213/304/189 202/287/178
f 198/285/174 210/305/186 199/288/175
f 206/303/182 216/306/192 217/307/193
f 212/301/188 224/308/200 213/304/189
f 210/305/186 220/309/196 221/310/197
f 206/303/182 218/311/194 207/293/183
f 213/304/189 225/312/201 214/294/190
f 204/296/180 92/313/68 215/314/191
f 210/305/186 222/315/198 211/297/187
f 207/293/183 219/316/195 208/298/184
f 104/317/80 214/294/190 225/312/201
f 204/296/180 216/306/192 205/300/181
f 212/301/188 222/315/198 223/318/199
f 208/298/184 220/309/196 209/302/185
f 218/311/194 230/319/206 219/316/195
f 104/320/80 225/312/201 236/321/212
f 215/314/191 227/322/203 216/306/192
f 223/318/199 233/323/209 234/324/210
f 219/316/195 231/325/207 220/309/196
f 217/307/193 227/322/203 228/326/204
f 223/318/199 235/327/211 224/308/200
f 221/310/197 231/325/207 232/328/208
f 217/307/193 229/329/205 218/311/194
f 225/312/201 235/327/211 236/321/212
f 215/314/191 92/330/68 226/331/202
f 221/310/197 233/323/209 222/315/198
f 228/326/204 240/332/216 229/329/205
f 236/321/212 246/333/222 247/334/223
f 226/331/202 92/335/68 237/336/213
f 232/328/208 244/337/220 233/323/209
f 230/319/206 240/332/216 241/338/217
f 104/339/80 236/321/212 247/334/223
f 226/331/202 238/340/214 227/322/203
f 234/324/210 244/337/220 245/341/221
f 230/319/206 242/342/218 231/325/207
f 228/326/204 238/340/214 239/343/215
f 234/324/210 246/333/222 235/327/211
f 232/328/208 242/342/218 243/344/219
f 241/338/217 253/345/229 242/342/218
f 239/343/215 249/346/225 250/347/226
f 245/341/221 257/348/233 246/333/222
f 243/344/219 253/345/229 254/349/230
f 239/343/215 251/350/227 240/332/216
f 246/333/222 258/351/234 247/334/223
f 237/336/213 92/352/68 248/353/224
f 243/344/219 255/354/231 244/337/220
f 241/338/217 251/350/227 252/355/228
f 104/356/80 247/334/223 258/351/234
f 237/336/213 249/346/225 238/340/214
f 245/341/221 255/354/231 256/357/232
f 252/358/228 262/359/238 263/360/239
f 104/361/80 258/362/234 269/363/245
f 248/364/224 260/365/236 249/366/225
f 256/367/232 266/368/242 267/369/243
f 252/358/228 264/370/240 253/371/229
f 250/372/226 260/365/236 261/373/237
f 256/367/232 268/374/244 257/375/233
f 254/376/230 264/370/240 265/377/241
f 250/372/226 262/359/238 251/378/227
f 258/362/234 268/374/244 269/363/245
f 248/364/224 92/379/68 259/380/235
f 254/376/230 266/368/242 255/381/231
f 265/377/241 275/382/251 276/383/252
f 261/373/237 273/384/249 262/359/238
f 268/374/244 280/385/256 269/363/245
f 259/380/235 92/386/68 270/387/246
f 265/377/241 277/388/253 266/368/242
f 263/360/239 273/384/249 274/389/250
f 104/390/80 269/363/245 280/385/256
f 259/380/235 271/391/247 260/365/236
f 267/369/243 277/388/253 278/392/254
f 263/360/239 275/382/251 264/370/240
f 261/373/237 271/391/247 272/393/248
f 267/369/243 279/394/255 268/374/244
f 274/389/250 286/395/262 275/382/251
f 272/393/248 282/396/258 283/397/259
f 278/392/254 290/398/266 279/394/255
f 276/383/252 286/395/262 287/399/263
f 272/393/248 284/400/260 273/384/249
f 279/394/255 291/401/267 280/385/256
f 270/387/246 92/402/68 281/403/257
f 276/383/252 288/404/264 277/388/253
f 274/389/250 284/400/260 285/405/261
f 104/406/80 280/385/256 291/401/267
f 270/387/246 282/396/258 271/391/247
f 278/392/254 288/404/264 289/407/265
f 287/399/263 299/408/275 288/404/264
f 285/405/261 295/409/271 296/410/272
f 104/411/80 291/401/267 302/412/278
f 281/403/257 293/413/269 282/396/258
f 289/407/265 299/408/275 300/414/276
f 285/405/261 297/415/273 286/395/262
f 283/397/259 293/413/269 294/416/270
f 289/407/265 301/417/277 290/398/266
f 287/399/263 297/415/273 298/418/274
f 283/397/259 295/409/271 284/400/260
f 290/398/266 302/412/278 291/401/267
f 281/403/257 92/419/68 292/420/268
f 298/418/274 308/421/284 309/422/285
f 294/416/270 306/423/282 295/409/271
f 302/412/278 312/424/288 313/425/289
f 292/420/268 92/426/68 303/427/279
f 298/418/274 310/428/286 299/408/275
f 296/410/272 306/423/282 307/429/283
f 104/430/80 302/412/278 313/425/289
f 292/420/268 304/431/280 293/413/269
f 300/414/276 310/428/286 311/432/287
f 296/410/272 308/421/284 297/415/273
f 294/416/270 304/431/280 305/433/281
f 300/414/276 312/424/288 301/417/277
f 311/432/287 319/128/295 320/113/296
f 307/429/283 318/135/294 308/421/284
f 305/433/281 315/132/291 316/136/292
f 311/432/287 321/115/297 312/424/288
f 309/422/285 318/135/294 58/116/34
f 305/433/281 317/119/293 306/423/282
f 312/424/288 322/123/298 313/425/289
f 303/427/279 92/434/68 314/124/290
f 309/422/285 319/128/295 310/428/286
f 307/429/283 317/119/293 57/129/33
f 104/435/80 313/425/289 322/123/298
f 303/427/279 315/132/291 304/431/280
f 320/113/296 67/134/43 68/114/44
f 58/116/34 318/135/294 64/117/40
f 317/119/293 316/136/292 61/120/37
f 321/115/297 68/114/44 69/122/45
f 58/116/34 65/118/41 66/127/42
f 57/129/33 317/119/293 62/121/38
f 315/132/291 314/124/290 59/126/35
f 319/128/295 66/127/42 67/134/43
f 57/129/33 63/130/39 64/117/40
f 316/136/292 315/132/291 60/133/36
f 62/121/38 73/146/49 74/137/50
f 59/126/35 70/148/46 71/140/47
f 66/127/42 77/149/53 78/141/54
f 63/130/39 74/137/50 75/142/51
f 60/133/36 71/140/47 72/143/48
f 67/134/43 78/141/54 79/144/55
f 64/117/40 75/142/51 76/145/52
f 61/120/37 72/143/48 73/146/49
f 68/114/44 79/144/55 80/139/56
f 65/118/41 76/145/52 77/149/53
f 76/145/52 75/142/51 86/150/62
f 72/143/48 83/162/59 84/152/60
f 80/139/56 79/144/55 90/153/66
f 77/149/53 76/145/52 87/151/63
f 73/146/49 84/152/60 85/158/61
f 70/148/46 81/156/57 82/160/58
f 78/141/54 77/149/53 88/157/64
f 75/142/51 74/137/50 85/158/61
f 71/140/47 82/160/58 83/162/59
f 79/144/55 78/141/54 89/161/65
f 85/158/61 97/173/73 98/163/74
f 83/162/59 82/160/58 94/164/70
f 89/161/65 101/175/77 102/166/78
f 87/151/63 86/150/62 98/163/74
f 83/162/59 95/165/71 96/168/72
f 90/153/66 102/166/78 103/169/79
f 87/151/63 99/167/75 100/172/76
f 85/158/61 84/152/60 96/168/72
f 81/156/57 93/171/69 94/164/70
f 88/157/64 100/172/76 101/175/77
f 99/167/75 111/186/87 112/176/88
f 96/168/72 108/187/84 109/177/85
f 94/164/70 93/171/69 105/180/81
f 101/175/77 100/172/76 112/176/88
f 98/163/74 97/173/73 109/177/85
f 94/164/70 106/181/82 107/184/83
f 101/175/77 113/182/89 114/185/90
f 98/163/74 110/183/86 111/186/87
f 95/165/71 107/184/83 108/187/84
f 102/166/78 114/185/90 115/179/91
f 111/186/87 110/183/86 121/189/97
f 107/184/83 118/201/94 119/191/95
f 115/179/91 114/185/90 125/192/101
f 111/186/87 122/190/98 123/196/99
f 108/187/84 119/191/95 120/197/96
f 105/180/81 116/195/92 117/199/93
f 113/182/89 112/176/88 123/196/99
f 109/177/85 120/197/96 121/189/97
f 106/181/82 117/199/93 118/201/94
f 113/182/89 124/200/100 125/192/101
f 124/200/100 123/196/99 134/202/110
f 120/197/96 131/212/107 132/204/108
f 117/199/93 128/214/104 129/205/105
f 124/200/100 135/203/111 136/206/112
f 121/189/97 132/204/108 133/207/109
f 118/201/94 129/205/105 130/208/106
f 125/192/101 136/206/112 137/209/113
f 122/190/98 133/207/109 134/202/110
f 120/197/96 119/191/95 130/208/106
f 116/195/92 127/211/103 128/214/104
f 133/207/109 144/226/120 145/217/121
f 130/208/106 141/227/117 142/218/118
f 128/214/104 127/211/103 138/216/114
f 135/203/111 134/202/110 145/217/121
f 131/212/107 142/218/118 143/223/119
f 129/205/105 128/214/104 139/221/115
f 135/203/111 146/222/122 147/225/123
f 132/204/108 143/223/119 144/226/120
f 129/205/105 140/224/116 141/227/117
f 136/206/112 147/225/123 148/220/124
f 146/222/122 157/238/133 158/228/134
f 143/223/119 154/239/130 155/229/131
f 140/224/116 151/240/127 152/230/128
f 148/220/124 147/225/123 158/228/134
f 144/226/120 155/229/131 156/234/132
f 141/227/117 152/230/128 153/235/129
f 138/216/114 149/233/125 150/237/126
f 146/222/122 145/217/121 156/234/132
f 142/218/118 153/235/129 154/239/130
f 140/224/116 139/221/115 150/237/126
f 149/233/125 160/252/136 161/241/137
f 157/238/133 156/234/132 167/242/143
f 154/239/130 153/235/129 164/244/140
f 151/240/127 150/237/126 161/241/137
f 157/238/133 168/243/144 169/247/145
f 154/239/130 165/245/141 166/248/142
f 151/240/127 162/246/138 163/249/139
f 159/231/135 158/228/134 169/247/145
f 156/234/132 155/229/131 166/248/142
f 152/230/128 163/249/139 164/244/140
f 169/247/145 180/265/156 181/254/157
f 167/242/143 166/248/142 177/257/153
f 163/249/139 174/266/150 175/259/151
f 160/252/136 171/256/147 172/261/148
f 168/243/144 167/242/143 178/258/154
f 164/244/140 175/259/151 176/263/152
f 162/246/138 161/241/137 172/261/148
f 168/243/144 179/262/155 180/265/156
f 165/245/141 176/263/152 177/257/153
f 162/246/138 173/264/149 174/266/150
f 172/261/148 183/277/159 184/267/160
f 179/262/155 190/278/166 191/268/167
f 176/263/152 187/279/163 188/269/164
f 173/264/149 184/267/160 185/270/161
f 180/265/156 191/268/167 192/271/168
f 177/257/153 188/269/164 189/274/165
f 175/259/151 174/266/150 185/270/161
f 171/256/147 182/273/158 183/277/159
f 179/262/155 178/258/154 189/274/165
f 175/259/151 186/275/162 187/279/163
f 182/273/158 193/291/169 194/282/170
f 190/278/166 189/274/165 200/283/176
f 186/275/162 197/292/173 198/285/174
f 184/267/160 183/277/159 194/282/170
f 190/278/166 201/284/177 202/287/178
f 188/269/164 187/279/163 198/285/174
f 184/267/160 195/286/171 196/289/172
f 191/268/167 202/287/178 203/281/179
f 188/269/164 199/288/175 200/283/176
f 186/275/162 185/270/161 196/289/172
f 195/286/171 206/303/182 207/293/183
f 202/287/178 213/304/189 214/294/190
f 199/288/175 210/305/186 211/297/187
f 197/292/173 196/289/172 207/293/183
f 194/282/170 193/291/169 204/296/180
f 201/284/177 200/283/176 211/297/187
f 197/292/173 208/298/184 209/302/185
f 195/286/171 194/282/170 205/300/181
f 201/284/177 212/301/188 213/304/189
f 198/285/174 209/302/185 210/305/186
f 206/303/182 205/300/181 216/306/192
f 212/301/188 223/318/199 224/308/200
f 210/305/186 209/302/185 220/309/196
f 206/303/182 217/307/193 218/311/194
f 213/304/189 224/308/200 225/312/201
f 210/305/186 221/310/197 222/315/198
f 207/293/183 218/311/194 219/316/195
f 204/296/180 215/314/191 216/306/192
f 212/301/188 211/297/187 222/315/198
f 208/298/184 219/316/195 220/309/196
f 218/311/194 229/329/205 230/319/206
f 215/314/191 226/331/202 227/322/203
f 223/318/199 222/315/198 233/323/209
f 219/316/195 230/319/206 231/325/207
f 217/307/193 216/306/192 227/322/203
f 223/318/199 234/324/210 235/327/211
f 221/310/197 220/309/196 231/325/207
f 217/307/193 228/326/204 229/329/205
f 225/312/201 224/308/200 235/327/211
f 221/310/197 232/328/208 233/323/209
f 228/326/204 239/343/215 240/332/216
f 236/321/212 235/327/211 246/333/222
f 232/328/208 243/344/219 244/337/220
f 230/319/206 229/329/205 240/332/216
f 226/331/202 237/336/213 238/340/214
f 234/324/210 233/323/209 244/337/220
f 230/319/206 241/338/217 242/342/218
f 228/326/204 227/322/203 238/340/214
f 234/324/210 245/341/221 246/333/222
f 232/328/208 231/325/207 242/342/218
f 241/338/217 252/355/228 253/345/229
f 239/343/215 238/340/214 249/346/225
f 245/341/221 256/357/232 257/348/233
f 243/344/219 242/342/218 253/345/229
f 239/343/215 250/347/226 251/350/227
f 246/333/222 257/348/233 258/351/234
f 243/344/219 254/349/230 255/354/231
f 241/338/217 240/332/216 251/350/227
f 237/336/213 248/353/224 249/346/225
f 245/341/221 244/337/220 255/354/231
f 252/358/228 251/378/227 262/359/238
f 248/364/224 259/380/235 260/365/236
f 256/367/232 255/381/231 266/368/242
f 252/358/228 263/360/239 264/370/240
f 250/372/226 249/366/225 260/365/236
f 256/367/232 267/369/243 268/374/244
f 254/376/230 253/371/229 264/370/240
f 250/372/226 261/373/237 262/359/238
f 258/362/234 257/375/233 268/374/244
f 254/376/230 265/377/241 266/368/242
f 265/377/241 264/370/240 275/382/251
f 261/373/237 272/393/248 273/384/249
f 268/374/244 279/394/255 280/385/256
f 265/377/241 276/383/252 277/388/253
f 263/360/239 262/359/238 273/384/249
f 259/380/235 270/387/246 271/391/247
f 267/369/243 266/368/242 277/388/253
f 263/360/239 274/389/250 275/382/251
f 261/373/237 260/365/236 271/391/247
f 267/369/243 278/392/254 279/394/255
f 274/389/250 285/405/261 286/395/262
f 272/393/248 271/391/247 282/396/258
f 278/392/254 289/407/265 290/398/266
f 276/383/252 275/382/251 286/395/262
f 272/393/248 283/397/259 284/400/260
f 279/394/255 290/398/266 291/401/267
f 276/383/252 287/399/263 288/404/264
f 274/389/250 273/384/249 284/400/260
f 270/387/246 281/403/257 282/396/258
f 278/392/254 277/388/253 288/404/264
f 287/399/263 298/418/274 299/408/275
f 285/405/261 284/400/260 295/409/271
f 281/403/257 292/420/268 293/413/269
f 289/407/265 288/404/264 299/408/275
f 285/405/261 296/410/272 297/415/273
f 283/397/259 282/396/258 293/413/269
f 289/407/265 300/414/276 301/417/277
f 287/399/263 286/395/262 297/415/273
f 283/397/259 294/416/270 295/409/271
f 290/398/266 301/417/277 302/412/278
f 298/418/274 297/415/273 308/421/284
f 294/416/270 305/433/281 306/423/282
f 302/412/278 301/417/277 312/424/288
f 298/418/274 309/422/285 310/428/286
f 296/410/272 295/409/271 306/423/282
f 292/420/268 303/427/279 304/431/280
f 300/414/276 299/408/275 310/428/286
f 296/410/272 307/429/283 308/421/284
f 294/416/270 293/413/269 304/431/280
f 300/414/276 311/432/287 312/424/288
f 311/432/287 310/428/286 319/128/295
f 307/429/283 57/129/33 318/135/294
f 305/433/281 304/431/280 315/132/291
f 311/432/287 320/113/296 321/115/297
f 309/422/285 308/421/284 318/135/294
f 305/433/281 316/136/292 317/119/293
f 312/424/288 321/115/297 322/123/298
f 309/422/285 58/116/34 319/128/295
f 307/429/283 306/423/282 317/119/293
f 303/427/279 314/124/290 315/132/291
o CAM_Puck
v 0.000000 -0.056690 -0.042592
v 0.000000 -0.029501 -0.029913
v 0.015307 -0.057977 -0.039832
v 0.015307 -0.030787 -0.027153
v 0.028284 -0.061641 -0.031974
v 0.028284 -0.034452 -0.019295
v 0.036955 -0.067125 -0.020212
v 0.036955 -0.039936 -0.007534
v 0.040000 -0.073595 -0.006339
v 0.040000 -0.046405 0.006339
v 0.036955 -0.080064 0.007534
v 0.036955 -0.052875 0.020212
v 0.028284 -0.085548 0.019295
v 0.028284 -0.058359 0.031974
v 0.015307 -0.089213 0.027153
v 0.015307 -0.062023 0.039832
v 0.000000 -0.090499 0.029913
v 0.000000 -0.063310 0.042592
v -0.015307 -0.089213 0.027153
v -0.015307 -0.062023 0.039832
v -0.028284 -0.085548 0.019295
v -0.028284 -0.058359 0.031974
v -0.036955 -0.080064 0.007534
v -0.036955 -0.052875 0.020212
v -0.040000 -0.073595 -0.006339
v -0.040000 -0.046405 0.006339
v -0.036955 -0.067125 -0.020212
v -0.036955 -0.039936 -0.007534
v -0.028284 -0.061641 -0.031974
v -0.028284 -0.034452 -0.019295
v -0.015307 -0.057977 -0.039832
v -0.015307 -0.030787 -0.027153
vn 0.1951 0.4145 -0.8889
vn 0.5556 0.3514 -0.7536
vn 0.8315 0.2348 -0.5035
vn 0.9808 0.0824 -0.1768
vn 0.9808 -0.0824 0.1768
vn 0.8315 -0.2348 0.5035
vn 0.5556 -0.3514 0.7536
vn 0.1951 -0.4145 0.8889
vn -0.1951 -0.4145 0.8889
vn -0.5556 -0.3514 0.7536
vn -0.8315 -0.2348 0.5035
vn -0.9808 -0.0824 0.1768
vn -0.9808 0.0824 -0.1768
vn -0.8315 0.2348 -0.5035
vn -0.0000 0.9063 0.4226
vn -0.5556 0.3514 -0.7536
vn -0.1951 0.4145 -0.8889
vn -0.0000 -0.9063 -0.4226
vt 1.000000 1.000000
vt 0.937500 0.500000
vt 1.000000 0.500000
vt 0.937500 1.000000
vt 0.875000 0.500000
vt 0.875000 1.000000
vt 0.812500 0.500000
vt 0.812500 1.000000
vt 0.750000 0.500000
vt 0.750000 1.000000
vt 0.687500 0.500000
vt 0.687500 1.000000
vt 0.625000 0.500000
vt 0.625000 1.000000
vt 0.562500 0.500000
vt 0.562500 1.000000
vt 0.500000 0.500000
vt 0.500000 1.000000
vt 0.437500 0.500000
vt 0.437500 1.000000
vt 0.375000 0.500000
vt 0.375000 1.000000
vt 0.312500 0.500000
vt 0.312500 1.000000
vt 0.250000 0.500000
vt 0.250000 1.000000
vt 0.187500 0.500000
vt 0.187500 1.000000
vt 0.125000 0.500000
vt 0.080294 0.080294
vt 0.419706 0.080294
vt 0.419706 0.419706
vt 0.125000 1.000000
vt 0.062500 0.500000
vt 0.062500 1.000000
vt 0.000000 0.500000
vt 0.841844 0.028269
vt 0.528269 0.158156
vt 0.658156 0.471731
vt 0.341844 0.471731
vt 0.250000 0.490000
vt 0.158156 0.471731
vt 0.080294 0.419706
vt 0.028269 0.341844
vt 0.010000 0.250000
vt 0.028269 0.158156
vt 0.158156 0.028269
vt 0.250000 0.010000
vt 0.341844 0.028269
vt 0.471731 0.158156
vt 0.490000 0.250000
vt 0.471731 0.341844
vt 0.000000 1.000000
vt 0.750000 0.490000
vt 0.841844 0.471731
vt 0.919706 0.419706
vt 0.971731 0.341844
vt 0.990000 0.250000
vt 0.971731 0.158156
vt 0.919706 0.080294
vt 0.750000 0.010000
vt 0.658156 0.028269
vt 0.580294 0.080294
vt 0.510000 0.250000
vt 0.528269 0.341844
vt 0.580294 0.419706
s 0
usemtl MM2_Plastic
f 324/436/299 325/437/299 323/438/299
f 326/439/300 327/440/300 325/437/300
f 328/441/301 329/442/301 327/440/301
f 330/443/302 331/444/302 329/442/302
f 332/445/303 333/446/303 331/444/303
f 334/447/304 335/448/304 333/446/304
f 336/449/305 337/450/305 335/448/305
f 338/451/306 339/452/306 337/450/306
f 340/453/307 341/454/307 339/452/307
f 342/455/308 343/456/308 341/454/308
f 344/457/309 345/458/309 343/456/309
f 346/459/310 347/460/310 345/458/310
f 348/461/311 349/462/311 347/460/311
f 350/463/312 351/464/312 349/462/312
f 344/465/313 336/466/313 328/467/313
f 352/468/314 353/469/314 351/464/314
f 354/470/315 323/471/315 353/469/315
f 337/472/316 345/473/316 353/474/316
f 324/436/299 326/439/299 325/437/299
f 326/439/300 328/441/300 327/440/300
f 328/441/301 330/443/301 329/442/301
f 330/443/302 332/445/302 331/444/302
f 332/445/303 334/447/303 333/446/303
f 334/447/304 336/449/304 335/448/304
f 336/449/305 338/451/305 337/450/305
f 338/451/306 340/453/306 339/452/306
f 340/453/307 342/455/307 341/454/307
f 342/455/308 344/457/308 343/456/308
f 344/457/309 346/459/309 345/458/309
f 346/459/310 348/461/310 347/460/310
f 348/461/311 350/463/311 349/462/311
f 350/463/312 352/468/312 351/464/312
f 328/467/313 326/475/313 324/476/313
f 324/476/313 354/477/313 352/478/313
f 352/478/313 350/479/313 348/480/313
f 348/480/313 346/481/313 344/465/313
f 344/465/313 342/482/313 340/483/313
f 340/483/313 338/484/313 336/466/313
f 336/466/313 334/485/313 332/486/313
f 332/486/313 330/487/313 328/467/313
f 328/467/313 324/476/313 352/478/313
f 352/478/313 348/480/313 344/465/313
f 344/465/313 340/483/313 336/466/313
f 336/466/313 332/486/313 328/467/313
f 328/467/313 352/478/313 344/465/313
f 352/468/314 354/470/314 353/469/314
f 354/470/315 324/488/315 323/471/315
f 353/474/316 323/489/316 325/490/316
f 325/490/316 327/491/316 329/492/316
f 329/492/316 331/493/316 333/494/316
f 333/494/316 335/495/316 337/472/316
f 337/472/316 339/496/316 341/497/316
f 341/497/316 343/498/316 345/473/316
f 345/473/316 347/499/316 349/500/316
f 349/500/316 351/501/316 353/474/316
f 353/474/316 325/490/316 329/492/316
f 329/492/316 333/494/316 337/472/316
f 337/472/316 341/497/316 345/473/316
f 345/473/316 349/500/316 353/474/316
f 353/474/316 329/492/316 337/472/316
o CAM_LED
v 0.032828 -0.093072 -0.022828
v 0.034899 -0.096000 -0.024899
v 0.035657 -0.100000 -0.025657
v 0.034899 -0.104000 -0.024899
v 0.032828 -0.106928 -0.022828
v 0.034000 -0.093072 -0.020000
v 0.036928 -0.096000 -0.020000
v 0.038000 -0.100000 -0.020000
v 0.036928 -0.104000 -0.020000
v 0.034000 -0.106928 -0.020000
v 0.032828 -0.093072 -0.017172
v 0.034899 -0.096000 -0.015101
v 0.035657 -0.100000 -0.014343
v 0.034899 -0.104000 -0.015101
v 0.032828 -0.106928 -0.017172
v 0.030000 -0.093072 -0.016000
v 0.030000 -0.096000 -0.013072
v 0.030000 -0.100000 -0.012000
v 0.030000 -0.104000 -0.013072
v 0.030000 -0.106928 -0.016000
v 0.030000 -0.092000 -0.020000
v 0.027172 -0.093072 -0.017172
v 0.025101 -0.096000 -0.015101
v 0.024343 -0.100000 -0.014343
v 0.025101 -0.104000 -0.015101
v 0.027172 -0.106928 -0.017172
v 0.030000 -0.108000 -0.020000
v 0.026000 -0.093072 -0.020000
v 0.023072 -0.096000 -0.020000
v 0.022000 -0.100000 -0.020000
v 0.023072 -0.104000 -0.020000
v 0.026000 -0.106928 -0.020000
v 0.027172 -0.093072 -0.022828
v 0.025101 -0.096000 -0.024899
v 0.024343 -0.100000 -0.025657
v 0.025101 -0.104000 -0.024899
v 0.027172 -0.106928 -0.022828
v 0.030000 -0.093072 -0.024000
v 0.030000 -0.096000 -0.026928
v 0.030000 -0.100000 -0.028000
v 0.030000 -0.104000 -0.026928
v 0.030000 -0.106928 -0.024000
vn 0.2811 -0.6786 -0.6786
vn 0.3715 0.2403 -0.8968
vn 0.1066 0.9604 -0.2573
vn 0.1066 -0.9604 -0.2573
vn 0.3715 -0.2403 -0.8968
vn 0.2811 0.6786 -0.6786
vn 0.8968 0.2403 -0.3715
vn 0.2573 0.9604 -0.1066
vn 0.2573 -0.9604 -0.1066
vn 0.8968 -0.2403 -0.3715
vn 0.6786 0.6786 -0.2811
vn 0.6786 -0.6786 -0.2811
vn 0.2573 0.9604 0.1066
vn 0.2573 -0.9604 0.1066
vn 0.8968 -0.2403 0.3715
vn 0.6786 0.6786 0.2811
vn 0.6786 -0.6786 0.2811
vn 0.8968 0.2403 0.3715
vn 0.1066 -0.9604 0.2573
vn 0.3715 -0.2403 0.8968
vn 0.2811 0.6786 0.6786
vn 0.2811 -0.6786 0.6786
vn 0.3715 0.2403 0.8968
vn 0.1066 0.9604 0.2573
vn -0.1066 -0.9604 0.2573
vn -0.3715 -0.2403 0.8968
vn -0.2811 0.6786 0.6786
vn -0.2811 -0.6786 0.6786
vn -0.3715 0.2403 0.8968
vn -0.1066 0.9604 0.2573
vn -0.2573 -0.9604 0.1066
vn -0.8968 -0.2403 0.3715
vn -0.6786 0.6786 0.2811
vn -0.6786 -0.6786 0.2811
vn -0.8968 0.2403 0.3715
vn -0.2573 0.9604 0.1066
vn -0.8968 -0.2403 -0.3715
vn -0.6786 0.6786 -0.2811
vn -0.6786 -0.6786 -0.2811
vn -0.8968 0.2403 -0.3715
vn -0.2573 0.9604 -0.1066
vn -0.2573 -0.9604 -0.1066
vn -0.2811 0.6786 -0.6786
vn -0.2811 -0.6786 -0.6786
vn -0.3715 0.2403 -0.8968
vn -0.1066 0.9604 -0.2573
vn -0.1066 -0.9604 -0.2573
vn -0.3715 -0.2403 -0.8968
vt 0.750000 0.333333
vt 0.625000 0.166667
vt 0.750000 0.166667
vt 0.750000 0.666667
vt 0.625000 0.500000
vt 0.750000 0.500000
vt 0.750000 0.833333
vt 0.687500 1.000000
vt 0.625000 0.833333
vt 0.687500 0.000000
vt 0.625000 0.333333
vt 0.625000 0.666667
vt 0.500000 0.500000
vt 0.562500 1.000000
vt 0.500000 0.833333
vt 0.562500 0.000000
vt 0.500000 0.166667
vt 0.500000 0.333333
vt 0.500000 0.666667
vt 0.437500 1.000000
vt 0.375000 0.833333
vt 0.437500 0.000000
vt 0.375000 0.166667
vt 0.375000 0.333333
vt 0.375000 0.666667
vt 0.375000 0.500000
vt 0.312500 0.000000
vt 0.250000 0.166667
vt 0.250000 0.333333
vt 0.250000 0.666667
vt 0.250000 0.500000
vt 0.312500 1.000000
vt 0.250000 0.833333
vt 0.187500 0.000000
vt 0.125000 0.166667
vt 0.125000 0.333333
vt 0.125000 0.833333
vt 0.125000 0.666667
vt 0.125000 0.500000
vt 0.187500 1.000000
vt 0.062500 0.000000
vt 0.000000 0.166667
vt 0.000000 0.333333
vt 0.000000 0.666667
vt 0.000000 0.500000
vt 0.062500 1.000000
vt 0.000000 0.833333
vt 1.000000 0.500000
vt 0.875000 0.333333
vt 1.000000 0.333333
vt 1.000000 0.666667
vt 0.875000 0.833333
vt 0.875000 0.666667
vt 0.875000 0.166667
vt 1.000000 0.166667
vt 0.875000 0.500000
vt 1.000000 0.833333
vt 0.937500 1.000000
vt 0.937500 0.000000
vt 0.812500 1.000000
vt 0.812500 0.000000
s 0
usemtl MM2_LED_OK
f 395/502/317 359/503/317 396/504/317
f 393/505/318 357/506/318 394/507/318
f 392/508/319 375/509/319 355/510/319
f 381/511/320 396/504/320 359/503/320
f 394/507/321 358/512/321 395/502/321
f 392/508/322 356/513/322 393/505/322
f 356/513/323 362/514/323 357/506/323
f 355/510/324 375/515/324 360/516/324
f 381/517/325 359/503/325 364/518/325
f 357/506/326 363/519/326 358/512/326
f 356/513/327 360/516/327 361/520/327
f 358/512/328 364/518/328 359/503/328
f 360/516/329 375/521/329 365/522/329
f 381/523/330 364/518/330 369/524/330
f 362/514/331 368/525/331 363/519/331
f 361/520/332 365/522/332 366/526/332
f 363/519/333 369/524/333 364/518/333
f 361/520/334 367/527/334 362/514/334
f 381/528/335 369/524/335 374/529/335
f 367/527/336 373/530/336 368/525/336
f 365/522/337 371/531/337 366/526/337
f 368/525/338 374/529/338 369/524/338
f 366/526/339 372/532/339 367/527/339
f 365/522/340 375/533/340 370/534/340
f 381/535/341 374/529/341 380/536/341
f 372/532/342 379/537/342 373/530/342
f 371/531/343 376/538/343 377/539/343
f 373/530/344 380/536/344 374/529/344
f 371/531/345 378/540/345 372/532/345
f 370/534/346 375/541/346 376/538/346
f 381/542/347 380/536/347 386/543/347
f 378/540/348 385/544/348 379/537/348
f 376/538/349 383/545/349 377/539/349
f 379/537/350 386/543/350 380/536/350
f 377/539/351 384/546/351 378/540/351
f 376/538/352 375/547/352 382/548/352
f 384/549/353 390/550/353 385/551/353
f 383/552/354 387/553/354 388/554/354
f 385/551/355 391/555/355 386/556/355
f 383/552/356 389/557/356 384/549/356
f 382/558/357 375/559/357 387/553/357
f 381/560/358 386/556/358 391/555/358
f 387/553/359 393/505/359 388/554/359
f 390/550/360 396/504/360 391/555/360
f 388/554/361 394/507/361 389/557/361
f 387/553/362 375/561/362 392/508/362
f 381/562/363 391/555/363 396/504/363
f 389/557/364 395/502/364 390/550/364
f 395/502/317 358/512/317 359/503/317
f 393/505/318 356/513/318 357/506/318
f 394/507/321 357/506/321 358/512/321
f 392/508/322 355/510/322 356/513/322
f 356/513/323 361/520/323 362/514/323
f 357/506/326 362/514/326 363/519/326
f 356/513/327 355/510/327 360/516/327
f 358/512/328 363/519/328 364/518/328
f 362/514/331 367/527/331 368/525/331
f 361/520/332 360/516/332 365/522/332
f 363/519/333 368/525/333 369/524/333
f 361/520/334 366/526/334 367/527/334
f 367/527/336 372/532/336 373/530/336
f 365/522/337 370/534/337 371/531/337
f 368/525/338 373/530/338 374/529/338
f 366/526/339 371/531/339 372/532/339
f 372/532/342 378/540/342 379/537/342
f 371/531/343 370/534/343 376/538/343
f 373/530/344 379/537/344 380/536/344
f 371/531/345 377/539/345 378/540/345
f 378/540/348 384/546/348 385/544/348
f 376/538/349 382/548/349 383/545/349
f 379/537/350 385/544/350 386/543/350
f 377/539/351 383/545/351 384/546/351
f 384/549/353 389/557/353 390/550/353
f 383/552/354 382/558/354 387/553/354
f 385/551/355 390/550/355 391/555/355
f 383/552/356 388/554/356 389/557/356
f 387/553/359 392/508/359 393/505/359
f 390/550/360 395/502/360 396/504/360
f 388/554/361 393/505/361 394/507/361
f 389/557/364 394/507/364 395/502/364
