# Blender 4.2.8 LTS
# www.blender.org
mtllib hm_bank_badge_scanner_v2.mtl
o BS_Body
v -0.067000 0.000000 0.037000
v -0.067000 0.003000 0.040000
v -0.070000 0.003000 0.037000
v -0.067000 0.000879 0.039121
v -0.068732 0.001268 0.038732
v -0.069121 0.003000 0.039121
v -0.069121 0.000879 0.037000
v -0.067000 0.217000 0.040000
v -0.067000 0.220000 0.037000
v -0.070000 0.217000 0.037000
v -0.067000 0.219121 0.039121
v -0.068732 0.218732 0.038732
v -0.069121 0.219121 0.037000
v -0.069121 0.217000 0.039121
v -0.067000 0.000000 -0.037000
v -0.070000 0.003000 -0.037000
v -0.067000 0.003000 -0.040000
v -0.069121 0.000879 -0.037000
v -0.068732 0.001268 -0.038732
v -0.069121 0.003000 -0.039121
v -0.067000 0.000879 -0.039121
v -0.067000 0.220000 -0.037000
v -0.067000 0.217000 -0.040000
v -0.070000 0.217000 -0.037000
v -0.067000 0.219121 -0.039121
v -0.068732 0.218732 -0.038732
v -0.069121 0.217000 -0.039121
v -0.069121 0.219121 -0.037000
v 0.067000 0.000000 0.037000
v 0.070000 0.003000 0.037000
v 0.067000 0.003000 0.040000
v 0.069121 0.000879 0.037000
v 0.068732 0.001268 0.038732
v 0.069121 0.003000 0.039121
v 0.067000 0.000879 0.039121
v 0.067000 0.220000 0.037000
v 0.067000 0.217000 0.040000
v 0.070000 0.217000 0.037000
v 0.067000 0.219121 0.039121
v 0.068732 0.218732 0.038732
v 0.069121 0.217000 0.039121
v 0.069121 0.219121 0.037000
v 0.067000 0.000000 -0.037000
v 0.067000 0.003000 -0.040000
v 0.070000 0.003000 -0.037000
v 0.067000 0.000879 -0.039121
v 0.068732 0.001268 -0.038732
v 0.069121 0.003000 -0.039121
v 0.069121 0.000879 -0.037000
v 0.067000 0.220000 -0.037000
v 0.070000 0.217000 -0.037000
v 0.067000 0.217000 -0.040000
v 0.069121 0.219121 -0.037000
v 0.068732 0.218732 -0.038732
v 0.069121 0.217000 -0.039121
v 0.067000 0.219121 -0.039121
vn -0.1794 -0.9673 0.1794
vn -0.1794 -0.1794 0.9673
vn -0.9673 -0.1794 0.1794
vn -0.1479 -0.6993 0.6993
vn -0.5774 -0.5773 0.5774
vn -0.6993 -0.1479 0.6993
vn -0.6993 -0.6993 0.1479
vn -0.1794 0.1794 0.9673
vn -0.1794 0.9673 0.1794
vn -0.9673 0.1794 0.1794
vn -0.1479 0.6993 0.6993
vn -0.5774 0.5773 0.5774
vn -0.6993 0.6993 0.1479
vn -0.6993 0.1479 0.6993
vn -0.1794 -0.9673 -0.1794
vn -0.9673 -0.1794 -0.1794
vn -0.1794 -0.1794 -0.9673
vn -0.6993 -0.6993 -0.1479
vn -0.5774 -0.5773 -0.5774
vn -0.6993 -0.1479 -0.6993
vn -0.1479 -0.6993 -0.6993
vn -0.1794 0.9673 -0.1794
vn -0.1794 0.1794 -0.9673
vn -0.9673 0.1794 -0.1794
vn -0.1479 0.6993 -0.6993
vn -0.5774 0.5773 -0.5774
vn -0.6993 0.1479 -0.6993
vn -0.6993 0.6993 -0.1479
vn 0.1794 -0.9673 0.1794
vn 0.9673 -0.1794 0.1794
vn 0.1794 -0.1794 0.9673
vn 0.6993 -0.6993 0.1479
vn 0.5774 -0.5773 0.5774
vn 0.6993 -0.1479 0.6993
vn 0.1479 -0.6993 0.6993
vn 0.1794 0.9673 0.1794
vn 0.1794 0.1794 0.9673
vn 0.9673 0.1794 0.1794
vn 0.1479 0.6993 0.6993
vn 0.5774 0.5773 0.5774
vn 0.6993 0.1479 0.6993
vn 0.6993 0.6993 0.1479
vn 0.1794 -0.9673 -0.1794
vn 0.1794 -0.1794 -0.9673
vn 0.9673 -0.1794 -0.1794
vn 0.1479 -0.6993 -0.6993
vn 0.5774 -0.5773 -0.5774
vn 0.6993 -0.1479 -0.6993
vn 0.6993 -0.6993 -0.1479
vn 0.1794 0.9673 -0.1794
vn 0.9673 0.1794 -0.1794
vn 0.1794 0.1794 -0.9673
vn 0.6993 0.6993 -0.1479
vn 0.5774 0.5773 -0.5774
vn 0.6993 0.1479 -0.6993
vn 0.1479 0.6993 -0.6993
vt 0.621591 0.755357
vt 0.378409 0.994643
vt 0.378409 0.755357
vt 0.621591 0.509375
vt 0.378409 0.740625
vt 0.378409 0.509375
vt 0.869643 0.509375
vt 0.630357 0.740625
vt 0.630357 0.509375
vt 0.621591 0.009375
vt 0.378409 0.240625
vt 0.378409 0.009375
vt 0.621591 0.255357
vt 0.378409 0.494643
vt 0.378409 0.255357
vt 0.130357 0.740625
vt 0.127264 0.750000
vt 0.125000 0.740625
vt 0.376441 1.000000
vt 0.375000 0.994643
vt 0.375000 0.003962
vt 0.378409 0.000000
vt 0.621591 0.994643
vt 0.625000 0.997736
vt 0.621591 1.000000
vt 0.869643 0.740625
vt 0.875000 0.746038
vt 0.869643 0.750000
vt 0.623559 0.000000
vt 0.625000 0.009375
vt 0.130357 0.509375
vt 0.125000 0.503962
vt 0.130357 0.500000
vt 0.376441 0.250000
vt 0.375000 0.240625
vt 0.375000 0.252264
vt 0.378409 0.250000
vt 0.872736 0.500000
vt 0.875000 0.509375
vt 0.623559 0.250000
vt 0.625000 0.255357
vt 0.621591 0.240625
vt 0.625000 0.246038
vt 0.621591 0.250000
vt 0.369643 0.740625
vt 0.375480 0.749434
vt 0.369643 0.750000
vt 0.375000 0.740625
vt 0.378409 0.750000
vt 0.625274 0.748679
vt 0.625000 0.740625
vt 0.625000 0.755357
vt 0.621591 0.740625
vt 0.621591 0.750000
vt 0.369643 0.509375
vt 0.374726 0.501321
vt 0.375000 0.509375
vt 0.375000 0.494643
vt 0.378409 0.500000
vt 0.624520 0.500566
vt 0.630357 0.500000
vt 0.625000 0.509375
vt 0.621591 0.494643
vt 0.621591 0.500000
vt 0.125000 0.509375
vt 0.375000 0.009375
vt 0.378409 1.000000
vt 0.621591 0.000000
vt 0.875000 0.740625
vt 0.625000 0.240625
vt 0.621591 0.250000
vt 0.378409 0.250000
vt 0.369643 0.500000
vt 0.375000 0.255357
vt 0.869643 0.500000
vt 0.625000 0.494643
vt 0.621591 0.500000
vt 0.378409 0.500000
vt 0.621591 0.750000
vt 0.378409 0.750000
vt 0.130357 0.750000
vt 0.375000 0.755357
vt 0.630357 0.750000
vt 0.625000 0.994643
vt 0.375000 0.740625
vt 0.625000 0.740625
s 1
usemtl MM2_Charcoal
f 37/1/37 2/2/2 31/3/31
f 51/4/51 30/5/30 45/6/45
f 22/7/22 36/8/36 50/9/50
f 10/10/10 16/11/16 3/12/3
f 23/13/23 44/14/44 17/15/17
f 1/16/1 5/17/5 7/18/7
f 2/2/2 5/19/5 4/20/4
f 3/12/3 5/21/5 6/22/6
f 8/23/8 12/24/12 14/25/14
f 9/26/9 12/27/12 11/28/11
f 10/10/10 12/29/12 13/30/13
f 15/31/15 19/32/19 21/33/21
f 16/11/16 19/34/19 18/35/18
f 17/15/17 19/36/19 20/37/20
f 22/7/22 26/38/26 28/39/28
f 23/13/23 26/40/26 25/41/25
f 24/42/24 26/43/26 27/44/27
f 29/45/29 33/46/33 35/47/35
f 30/5/30 33/46/33 32/48/32
f 31/3/31 33/46/33 34/49/34
f 36/8/36 40/50/40 42/51/42
f 37/1/37 40/50/40 39/52/39
f 38/53/38 40/50/40 41/54/41
f 43/55/43 47/56/47 49/57/49
f 44/14/44 47/56/47 46/58/46
f 45/6/45 47/56/47 48/59/48
f 50/9/50 54/60/54 56/61/56
f 51/4/51 54/60/54 53/62/53
f 52/63/52 54/60/54 55/64/55
f 1/16/1 18/65/18 15/31/15
f 7/66/7 16/11/16 18/35/18
f 8/23/8 6/67/6 2/2/2
f 14/68/14 3/12/3 6/22/6
f 22/7/22 13/69/13 9/26/9
f 28/70/28 10/10/10 13/30/13
f 17/15/17 27/71/27 23/13/23
f 20/72/20 24/42/24 27/71/27
f 15/31/15 46/73/46 43/55/43
f 21/74/21 44/14/44 46/58/46
f 50/9/50 25/75/25 22/7/22
f 56/76/56 23/13/23 25/41/25
f 45/6/45 55/77/55 51/4/51
f 48/78/48 52/63/52 55/77/55
f 43/55/43 32/48/32 29/45/29
f 49/57/49 30/5/30 32/48/32
f 36/8/36 53/62/53 50/9/50
f 42/51/42 51/4/51 53/62/53
f 31/3/31 41/79/41 37/1/37
f 34/80/34 38/53/38 41/79/41
f 29/45/29 4/81/4 1/16/1
f 35/82/35 2/2/2 4/20/4
f 9/26/9 39/83/39 36/8/36
f 11/84/11 37/1/37 39/52/39
f 43/55/43 1/16/1 15/31/15
f 37/1/37 8/23/8 2/2/2
f 51/4/51 38/53/38 30/5/30
f 22/7/22 9/26/9 36/8/36
f 10/10/10 24/42/24 16/11/16
f 23/13/23 52/63/52 44/14/44
f 1/16/1 4/81/4 5/17/5
f 2/2/2 6/67/6 5/19/5
f 3/12/3 7/66/7 5/21/5
f 8/23/8 11/84/11 12/24/12
f 9/26/9 13/69/13 12/27/12
f 10/10/10 14/68/14 12/29/12
f 15/31/15 18/65/18 19/32/19
f 16/11/16 20/72/20 19/34/19
f 17/15/17 21/74/21 19/36/19
f 22/7/22 25/75/25 26/38/26
f 23/13/23 27/71/27 26/40/26
f 24/42/24 28/70/28 26/43/26
f 29/45/29 32/85/32 33/46/33
f 30/5/30 34/80/34 33/46/33
f 31/3/31 35/82/35 33/46/33
f 36/8/36 39/83/39 40/50/40
f 37/1/37 41/79/41 40/50/40
f 38/53/38 42/86/42 40/50/40
f 43/55/43 46/73/46 47/56/47
f 44/14/44 48/78/48 47/56/47
f 45/6/45 49/57/49 47/56/47
f 50/9/50 53/62/53 54/60/54
f 51/4/51 55/77/55 54/60/54
f 52/63/52 56/76/56 54/60/54
f 1/16/1 7/18/7 18/65/18
f 7/66/7 3/12/3 16/11/16
f 8/23/8 14/25/14 6/67/6
f 14/68/14 10/10/10 3/12/3
f 22/7/22 28/39/28 13/69/13
f 28/70/28 24/42/24 10/10/10
f 17/15/17 20/72/20 27/71/27
f 20/72/20 16/11/16 24/42/24
f 15/31/15 21/33/21 46/73/46
f 21/74/21 17/15/17 44/14/44
f 50/9/50 56/61/56 25/75/25
f 56/76/56 52/63/52 23/13/23
f 45/6/45 48/78/48 55/77/55
f 48/78/48 44/14/44 52/63/52
f 43/55/43 49/57/49 32/48/32
f 49/57/49 45/6/45 30/5/30
f 36/8/36 42/51/42 53/62/53
f 42/51/42 38/53/38 51/4/51
f 31/3/31 34/80/34 41/79/41
f 34/80/34 30/5/30 38/53/38
f 29/45/29 35/47/35 4/81/4
f 35/82/35 31/3/31 2/2/2
f 9/26/9 11/28/11 39/83/39
f 11/84/11 8/23/8 37/1/37
f 43/55/43 29/45/29 1/16/1
o BS_Face
v -0.050000 0.060000 -0.040000
v -0.050000 0.180000 -0.040000
v -0.050000 0.060000 -0.050000
v -0.050000 0.180000 -0.050000
v 0.050000 0.060000 -0.040000
v 0.050000 0.180000 -0.040000
v 0.050000 0.060000 -0.050000
v 0.050000 0.180000 -0.050000
vn -1.0000 -0.0000 -0.0000
vn -0.0000 -0.0000 -1.0000
vn 1.0000 -0.0000 -0.0000
vn -0.0000 -0.0000 1.0000
vn -0.0000 -1.0000 -0.0000
vn -0.0000 1.0000 -0.0000
vt 0.625000 0.000000
vt 0.375000 0.250000
vt 0.375000 0.000000
vt 0.625000 0.250000
vt 0.375000 0.500000
vt 0.625000 0.500000
vt 0.375000 0.750000
vt 0.625000 0.750000
vt 0.375000 1.000000
vt 0.125000 0.750000
vt 0.125000 0.500000
vt 0.875000 0.500000
vt 0.625000 1.000000
vt 0.875000 0.750000
s 0
usemtl MM2_Screen
f 58/87/57 59/88/57 57/89/57
f 60/90/58 63/91/58 59/88/58
f 64/92/59 61/93/59 63/91/59
f 62/94/60 57/95/60 61/93/60
f 63/91/61 57/96/61 59/97/61
f 60/98/62 62/94/62 64/92/62
f 58/87/57 60/90/57 59/88/57
f 60/90/58 64/92/58 63/91/58
f 64/92/59 62/94/59 61/93/59
f 62/94/60 58/99/60 57/95/60
f 63/91/61 61/93/61 57/96/61
f 60/98/62 58/100/62 62/94/62
o BS_LED
v -0.030000 0.192500 -0.040000
v -0.030000 0.207500 -0.040000
v -0.030000 0.192500 -0.050000
v -0.030000 0.207500 -0.050000
v 0.030000 0.192500 -0.040000
v 0.030000 0.207500 -0.040000
v 0.030000 0.192500 -0.050000
v 0.030000 0.207500 -0.050000
vn -1.0000 -0.0000 -0.0000
vn -0.0000 -0.0000 -1.0000
vn 1.0000 -0.0000 -0.0000
vn -0.0000 -0.0000 1.0000
vn -0.0000 -1.0000 -0.0000
vn -0.0000 1.0000 -0.0000
vt 0.625000 0.000000
vt 0.375000 0.250000
vt 0.375000 0.000000
vt 0.625000 0.250000
vt 0.375000 0.500000
vt 0.625000 0.500000
vt 0.375000 0.750000
vt 0.625000 0.750000
vt 0.375000 1.000000
vt 0.125000 0.750000
vt 0.125000 0.500000
vt 0.875000 0.500000
vt 0.625000 1.000000
vt 0.875000 0.750000
s 0
usemtl MM2_LED_OK
f 66/101/63 67/102/63 65/103/63
f 68/104/64 71/105/64 67/102/64
f 72/106/65 69/107/65 71/105/65
f 70/108/66 65/109/66 69/107/66
f 71/105/67 65/110/67 67/111/67
f 68/112/68 70/108/68 72/106/68
f 66/101/63 68/104/63 67/102/63
f 68/104/64 72/106/64 71/105/64
f 72/106/65 70/108/65 69/107/65
f 70/108/66 66/113/66 65/109/66
f 71/105/67 69/107/67 65/110/67
f 68/112/68 66/114/68 70/108/68
