# Blender 4.2.8 LTS
# www.blender.org
mtllib hm_bank_card_reader_v2.mtl
o CR_Body
v -0.057000 0.000000 0.027000
v -0.057000 0.003000 0.030000
v -0.060000 0.003000 0.027000
v -0.057000 0.000879 0.029121
v -0.058732 0.001268 0.028732
v -0.059121 0.003000 0.029121
v -0.059121 0.000879 0.027000
v -0.057000 0.177000 0.030000
v -0.057000 0.180000 0.027000
v -0.060000 0.177000 0.027000
v -0.057000 0.179121 0.029121
v -0.058732 0.178732 0.028732
v -0.059121 0.179121 0.027000
v -0.059121 0.177000 0.029121
v -0.057000 0.000000 -0.027000
v -0.060000 0.003000 -0.027000
v -0.057000 0.003000 -0.030000
v -0.059121 0.000879 -0.027000
v -0.058732 0.001268 -0.028732
v -0.059121 0.003000 -0.029121
v -0.057000 0.000879 -0.029121
v -0.057000 0.180000 -0.027000
v -0.057000 0.177000 -0.030000
v -0.060000 0.177000 -0.027000
v -0.057000 0.179121 -0.029121
v -0.058732 0.178732 -0.028732
v -0.059121 0.177000 -0.029121
v -0.059121 0.179121 -0.027000
v 0.057000 0.000000 0.027000
v 0.060000 0.003000 0.027000
v 0.057000 0.003000 0.030000
v 0.059121 0.000879 0.027000
v 0.058732 0.001268 0.028732
v 0.059121 0.003000 0.029121
v 0.057000 0.000879 0.029121
v 0.057000 0.180000 0.027000
v 0.057000 0.177000 0.030000
v 0.060000 0.177000 0.027000
v 0.057000 0.179121 0.029121
v 0.058732 0.178732 0.028732
v 0.059121 0.177000 0.029121
v 0.059121 0.179121 0.027000
v 0.057000 0.000000 -0.027000
v 0.057000 0.003000 -0.030000
v 0.060000 0.003000 -0.027000
v 0.057000 0.000879 -0.029121
v 0.058732 0.001268 -0.028732
v 0.059121 0.003000 -0.029121
v 0.059121 0.000879 -0.027000
v 0.057000 0.180000 -0.027000
v 0.060000 0.177000 -0.027000
v 0.057000 0.177000 -0.030000
v 0.059121 0.179121 -0.027000
v 0.058732 0.178732 -0.028732
v 0.059121 0.177000 -0.029121
v 0.057000 0.179121 -0.029121
vn -0.1794 -0.9673 0.1794
vn -0.1794 -0.1794 0.9673
vn -0.9673 -0.1794 0.1794
vn -0.1479 -0.6993 0.6993
vn -0.5773 -0.5774 0.5773
vn -0.6993 -0.1479 0.6993
vn -0.6993 -0.6993 0.1479
vn -0.1794 0.1794 0.9673
vn -0.1794 0.9673 0.1794
vn -0.9673 0.1794 0.1794
vn -0.1479 0.6993 0.6993
vn -0.5773 0.5774 0.5773
vn -0.6993 0.6993 0.1479
vn -0.6993 0.1479 0.6993
vn -0.1794 -0.9673 -0.1794
vn -0.9673 -0.1794 -0.1794
vn -0.1794 -0.1794 -0.9673
vn -0.6993 -0.6993 -0.1479
vn -0.5774 -0.5774 -0.5773
vn -0.6993 -0.1479 -0.6993
vn -0.1479 -0.6993 -0.6993
vn -0.1794 0.9673 -0.1794
vn -0.1794 0.1794 -0.9673
vn -0.9673 0.1794 -0.1794
vn -0.1479 0.6993 -0.6993
vn -0.5773 0.5774 -0.5773
vn -0.6993 0.1479 -0.6993
vn -0.6993 0.6993 -0.1479
vn 0.1794 -0.9673 0.1794
vn 0.9673 -0.1794 0.1794
vn 0.1794 -0.1794 0.9673
vn 0.6993 -0.6993 0.1479
vn 0.5774 -0.5774 0.5773
vn 0.6993 -0.1479 0.6993
vn 0.1479 -0.6993 0.6993
vn 0.1794 0.9673 0.1794
vn 0.1794 0.1794 0.9673
vn 0.9673 0.1794 0.1794
vn 0.1479 0.6993 0.6993
vn 0.5773 0.5774 0.5773
vn 0.6993 0.1479 0.6993
vn 0.6993 0.6993 0.1479
vn 0.1794 -0.9673 -0.1794
vn 0.1794 -0.1794 -0.9673
vn 0.9673 -0.1794 -0.1794
vn 0.1479 -0.6993 -0.6993
vn 0.5773 -0.5774 -0.5773
vn 0.6993 -0.1479 -0.6993
vn 0.6993 -0.6993 -0.1479
vn 0.1794 0.9673 -0.1794
vn 0.9673 0.1794 -0.1794
vn 0.1794 0.1794 -0.9673
vn 0.6993 0.6993 -0.1479
vn 0.5774 0.5774 -0.5773
vn 0.6993 0.1479 -0.6993
vn 0.1479 0.6993 -0.6993
vt 0.620833 0.756250
vt 0.379167 0.993750
vt 0.379167 0.756250
vt 0.620833 0.512500
vt 0.379167 0.737500
vt 0.379167 0.512500
vt 0.868750 0.512500
vt 0.631250 0.737500
vt 0.631250 0.512500
vt 0.620833 0.012500
vt 0.379167 0.237500
vt 0.379167 0.012500
vt 0.620833 0.256250
vt 0.379167 0.493750
vt 0.379167 0.256250
vt 0.131250 0.737500
vt 0.127642 0.750000
vt 0.125000 0.737500
vt 0.376761 1.000000
vt 0.375000 0.993750
vt 0.375000 0.005283
vt 0.379167 0.000000
vt 0.620833 0.993750
vt 0.625000 0.997358
vt 0.620833 1.000000
vt 0.868750 0.737500
vt 0.875000 0.744717
vt 0.868750 0.750000
vt 0.623239 0.000000
vt 0.625000 0.012500
vt 0.131250 0.512500
vt 0.125000 0.505283
vt 0.131250 0.500000
vt 0.376761 0.250000
vt 0.375000 0.237500
vt 0.375000 0.252642
vt 0.379167 0.250000
vt 0.872358 0.500000
vt 0.875000 0.512500
vt 0.623239 0.250000
vt 0.625000 0.256250
vt 0.620833 0.237500
vt 0.625000 0.244717
vt 0.620833 0.250000
vt 0.368750 0.737500
vt 0.375587 0.749119
vt 0.368750 0.750000
vt 0.375000 0.737500
vt 0.379167 0.750000
vt 0.625293 0.748239
vt 0.625000 0.737500
vt 0.625000 0.756250
vt 0.620833 0.737500
vt 0.620833 0.750000
vt 0.368750 0.512500
vt 0.374707 0.501761
vt 0.375000 0.512500
vt 0.375000 0.493750
vt 0.379167 0.500000
vt 0.624413 0.500881
vt 0.631250 0.500000
vt 0.625000 0.512500
vt 0.620833 0.493750
vt 0.620833 0.500000
vt 0.125000 0.512500
vt 0.375000 0.012500
vt 0.379167 1.000000
vt 0.620833 0.000000
vt 0.875000 0.737500
vt 0.625000 0.237500
vt 0.620833 0.250000
vt 0.379167 0.250000
vt 0.368750 0.500000
vt 0.375000 0.256250
vt 0.868750 0.500000
vt 0.625000 0.493750
vt 0.620833 0.500000
vt 0.379167 0.500000
vt 0.375000 0.512500
vt 0.625000 0.512500
vt 0.625000 0.737500
vt 0.620833 0.750000
vt 0.379167 0.750000
vt 0.131250 0.750000
vt 0.375000 0.756250
vt 0.631250 0.750000
vt 0.625000 0.993750
vt 0.375000 0.737500
s 1
usemtl MM2_Slate
f 37/1/37 2/2/2 31/3/31
f 51/4/51 30/5/30 45/6/45
f 22/7/22 36/8/36 50/9/50
f 10/10/10 16/11/16 3/12/3
f 23/13/23 44/14/44 17/15/17
f 1/16/1 5/17/5 7/18/7
f 2/2/2 5/19/5 4/20/4
f 3/12/3 5/21/5 6/22/6
f 8/23/8 12/24/12 14/25/14
f 9/26/9 12/27/12 11/28/11
f 10/10/10 12/29/12 13/30/13
f 15/31/15 19/32/19 21/33/21
f 16/11/16 19/34/19 18/35/18
f 17/15/17 19/36/19 20/37/20
f 22/7/22 26/38/26 28/39/28
f 23/13/23 26/40/26 25/41/25
f 24/42/24 26/43/26 27/44/27
f 29/45/29 33/46/33 35/47/35
f 30/5/30 33/46/33 32/48/32
f 31/3/31 33/46/33 34/49/34
f 36/8/36 40/50/40 42/51/42
f 37/1/37 40/50/40 39/52/39
f 38/53/38 40/50/40 41/54/41
f 43/55/43 47/56/47 49/57/49
f 44/14/44 47/56/47 46/58/46
f 45/6/45 47/56/47 48/59/48
f 50/9/50 54/60/54 56/61/56
f 51/4/51 54/60/54 53/62/53
f 52/63/52 54/60/54 55/64/55
f 1/16/1 18/65/18 15/31/15
f 7/66/7 16/11/16 18/35/18
f 8/23/8 6/67/6 2/2/2
f 14/68/14 3/12/3 6/22/6
f 22/7/22 13/69/13 9/26/9
f 28/70/28 10/10/10 13/30/13
f 17/15/17 27/71/27 23/13/23
f 20/72/20 24/42/24 27/71/27
f 43/55/43 21/33/21 46/73/46
f 21/74/21 44/14/44 46/58/46
f 22/7/22 56/61/56 25/75/25
f 56/76/56 23/13/23 25/41/25
f 45/6/45 55/77/55 51/4/51
f 48/78/48 52/63/52 55/77/55
f 43/55/43 32/48/32 29/45/29
f 49/79/49 30/5/30 32/48/32
f 36/8/36 53/80/53 50/9/50
f 42/81/42 51/4/51 53/80/53
f 31/3/31 41/82/41 37/1/37
f 34/83/34 38/53/38 41/82/41
f 1/16/1 35/47/35 4/84/4
f 35/85/35 2/2/2 4/20/4
f 36/8/36 11/28/11 39/86/39
f 11/87/11 37/1/37 39/52/39
f 43/55/43 1/16/1 15/31/15
f 37/1/37 8/23/8 2/2/2
f 51/4/51 38/53/38 30/5/30
f 22/7/22 9/26/9 36/8/36
f 10/10/10 24/42/24 16/11/16
f 23/13/23 52/63/52 44/14/44
f 1/16/1 4/84/4 5/17/5
f 2/2/2 6/67/6 5/19/5
f 3/12/3 7/66/7 5/21/5
f 8/23/8 11/87/11 12/24/12
f 9/26/9 13/69/13 12/27/12
f 10/10/10 14/68/14 12/29/12
f 15/31/15 18/65/18 19/32/19
f 16/11/16 20/72/20 19/34/19
f 17/15/17 21/74/21 19/36/19
f 22/7/22 25/75/25 26/38/26
f 23/13/23 27/71/27 26/40/26
f 24/42/24 28/70/28 26/43/26
f 29/45/29 32/88/32 33/46/33
f 30/5/30 34/83/34 33/46/33
f 31/3/31 35/85/35 33/46/33
f 36/8/36 39/86/39 40/50/40
f 37/1/37 41/82/41 40/50/40
f 38/53/38 42/81/42 40/50/40
f 43/55/43 46/73/46 47/56/47
f 44/14/44 48/78/48 47/56/47
f 45/6/45 49/79/49 47/56/47
f 50/9/50 53/80/53 54/60/54
f 51/4/51 55/77/55 54/60/54
f 52/63/52 56/76/56 54/60/54
f 1/16/1 7/18/7 18/65/18
f 7/66/7 3/12/3 16/11/16
f 8/23/8 14/25/14 6/67/6
f 14/68/14 10/10/10 3/12/3
f 22/7/22 28/39/28 13/69/13
f 28/70/28 24/42/24 10/10/10
f 17/15/17 20/72/20 27/71/27
f 20/72/20 16/11/16 24/42/24
f 43/55/43 15/31/15 21/33/21
f 21/74/21 17/15/17 44/14/44
f 22/7/22 50/9/50 56/61/56
f 56/76/56 52/63/52 23/13/23
f 45/6/45 48/78/48 55/77/55
f 48/78/48 44/14/44 52/63/52
f 43/55/43 49/79/49 32/48/32
f 49/79/49 45/6/45 30/5/30
f 36/8/36 42/81/42 53/80/53
f 42/81/42 38/53/38 51/4/51
f 31/3/31 34/83/34 41/82/41
f 34/83/34 30/5/30 38/53/38
f 1/16/1 29/45/29 35/47/35
f 35/85/35 31/3/31 2/2/2
f 36/8/36 9/26/9 11/28/11
f 11/87/11 8/23/8 37/1/37
f 43/55/43 29/45/29 1/16/1
o CR_Slot
v -0.040000 0.115000 -0.025000
v -0.040000 0.125000 -0.025000
v -0.040000 0.115000 -0.045000
v -0.040000 0.125000 -0.045000
v 0.040000 0.115000 -0.025000
v 0.040000 0.125000 -0.025000
v 0.040000 0.115000 -0.045000
v 0.040000 0.125000 -0.045000
vn -1.0000 -0.0000 -0.0000
vn -0.0000 -0.0000 -1.0000
vn 1.0000 -0.0000 -0.0000
vn -0.0000 -0.0000 1.0000
vn -0.0000 -1.0000 -0.0000
vn -0.0000 1.0000 -0.0000
vt 0.625000 0.000000
vt 0.375000 0.250000
vt 0.375000 0.000000
vt 0.625000 0.250000
vt 0.375000 0.500000
vt 0.625000 0.500000
vt 0.375000 0.750000
vt 0.625000 0.750000
vt 0.375000 1.000000
vt 0.125000 0.750000
vt 0.125000 0.500000
vt 0.875000 0.500000
vt 0.625000 1.000000
vt 0.875000 0.750000
s 0
usemtl MM2_Charcoal
f 58/89/57 59/90/57 57/91/57
f 60/92/58 63/93/58 59/90/58
f 64/94/59 61/95/59 63/93/59
f 62/96/60 57/97/60 61/95/60
f 63/93/61 57/98/61 59/99/61
f 60/100/62 62/96/62 64/94/62
f 58/89/57 60/92/57 59/90/57
f 60/92/58 64/94/58 63/93/58
f 64/94/59 62/96/59 61/95/59
f 62/96/60 58/101/60 57/97/60
f 63/93/61 61/95/61 57/98/61
f 60/100/62 58/102/62 62/96/62
o CR_LED
v -0.020000 0.152500 -0.030000
v -0.020000 0.167500 -0.030000
v -0.020000 0.152500 -0.040000
v -0.020000 0.167500 -0.040000
v 0.020000 0.152500 -0.030000
v 0.020000 0.167500 -0.030000
v 0.020000 0.152500 -0.040000
v 0.020000 0.167500 -0.040000
vn -1.0000 -0.0000 -0.0000
vn -0.0000 -0.0000 -1.0000
vn 1.0000 -0.0000 -0.0000
vn -0.0000 -0.0000 1.0000
vn -0.0000 -1.0000 -0.0000
vn -0.0000 1.0000 -0.0000
vt 0.625000 0.000000
vt 0.375000 0.250000
vt 0.375000 0.000000
vt 0.625000 0.250000
vt 0.375000 0.500000
vt 0.625000 0.500000
vt 0.375000 0.750000
vt 0.625000 0.750000
vt 0.375000 1.000000
vt 0.125000 0.750000
vt 0.125000 0.500000
vt 0.875000 0.500000
vt 0.625000 1.000000
vt 0.875000 0.750000
s 0
usemtl MM2_LED_OK
f 66/103/63 67/104/63 65/105/63
f 68/106/64 71/107/64 67/104/64
f 72/108/65 69/109/65 71/107/65
f 70/110/66 65/111/66 69/109/66
f 71/107/67 65/112/67 67/113/67
f 68/114/68 70/110/68 72/108/68
f 66/103/63 68/106/63 67/104/63
f 68/106/64 72/108/64 71/107/64
f 72/108/65 70/110/65 69/109/65
f 70/110/66 66/115/66 65/111/66
f 71/107/67 69/109/67 65/112/67
f 68/114/68 66/116/68 70/110/68
o CR_Pad
v -0.045000 0.020000 -0.027000
v -0.045000 0.080000 -0.027000
v -0.045000 0.020000 -0.037000
v -0.045000 0.080000 -0.037000
v 0.045000 0.020000 -0.027000
v 0.045000 0.080000 -0.027000
v 0.045000 0.020000 -0.037000
v 0.045000 0.080000 -0.037000
vn -1.0000 -0.0000 -0.0000
vn -0.0000 -0.0000 -1.0000
vn 1.0000 -0.0000 -0.0000
vn -0.0000 -0.0000 1.0000
vn -0.0000 -1.0000 -0.0000
vn -0.0000 1.0000 -0.0000
vt 0.625000 0.000000
vt 0.375000 0.250000
vt 0.375000 0.000000
vt 0.625000 0.250000
vt 0.375000 0.500000
vt 0.625000 0.500000
vt 0.375000 0.750000
vt 0.625000 0.750000
vt 0.375000 1.000000
vt 0.125000 0.750000
vt 0.125000 0.500000
vt 0.875000 0.500000
vt 0.625000 1.000000
vt 0.875000 0.750000
s 0
usemtl MM2_Plastic
f 74/117/69 75/118/69 73/119/69
f 76/120/70 79/121/70 75/118/70
f 80/122/71 77/123/71 79/121/71
f 78/124/72 73/125/72 77/123/72
f 79/121/73 73/126/73 75/127/73
f 76/128/74 78/124/74 80/122/74
f 74/117/69 76/120/69 75/118/69
f 76/120/70 80/122/70 79/121/70
f 80/122/71 78/124/71 77/123/71
f 78/124/72 74/129/72 73/125/72
f 79/121/73 77/123/73 73/126/73
f 76/128/74 74/130/74 78/124/74
