# Blender 4.2.8 LTS
# www.blender.org
mtllib hm_bank_motion_sensor_v2.mtl
o MS_Body
v -0.050000 -0.030000 0.030000
v -0.050000 0.030000 0.030000
v -0.050000 -0.030000 -0.030000
v -0.050000 0.030000 -0.030000
v 0.050000 -0.030000 0.030000
v 0.050000 0.030000 0.030000
v 0.050000 -0.030000 -0.030000
v 0.050000 0.030000 -0.030000
vn -1.0000 -0.0000 -0.0000
vn -0.0000 -0.0000 -1.0000
vn 1.0000 -0.0000 -0.0000
vn -0.0000 -0.0000 1.0000
vn -0.0000 -1.0000 -0.0000
vn -0.0000 1.0000 -0.0000
vt 0.625000 0.000000
vt 0.375000 0.250000
vt 0.375000 0.000000
vt 0.625000 0.250000
vt 0.375000 0.500000
vt 0.625000 0.500000
vt 0.375000 0.750000
vt 0.625000 0.750000
vt 0.375000 1.000000
vt 0.125000 0.750000
vt 0.125000 0.500000
vt 0.875000 0.500000
vt 0.625000 1.000000
vt 0.875000 0.750000
s 0
usemtl MM2_PlasticGrey
f 2/1/1 3/2/1 1/3/1
f 4/4/2 7/5/2 3/2/2
f 8/6/3 5/7/3 7/5/3
f 6/8/4 1/9/4 5/7/4
f 7/5/5 1/10/5 3/11/5
f 4/12/6 6/8/6 8/6/6
f 2/1/1 4/4/1 3/2/1
f 4/4/2 8/6/2 7/5/2
f 8/6/3 6/8/3 5/7/3
f 6/8/4 2/13/4 1/9/4
f 7/5/5 5/7/5 1/10/5
f 4/12/6 2/14/6 6/8/6
o MS_Lens
v 0.000000 0.025000 -0.050000
v 0.000000 0.025000 -0.030000
v 0.012500 0.021651 -0.050000
v 0.012500 0.021651 -0.030000
v 0.021651 0.012500 -0.050000
v 0.021651 0.012500 -0.030000
v 0.025000 0.000000 -0.050000
v 0.025000 -0.000000 -0.030000
v 0.021651 -0.012500 -0.050000
v 0.021651 -0.012500 -0.030000
v 0.012500 -0.021651 -0.050000
v 0.012500 -0.021651 -0.030000
v 0.000000 -0.025000 -0.050000
v 0.000000 -0.025000 -0.030000
v -0.012500 -0.021651 -0.050000
v -0.012500 -0.021651 -0.030000
v -0.021651 -0.012500 -0.050000
v -0.021651 -0.012500 -0.030000
v -0.025000 0.000000 -0.050000
v -0.025000 -0.000000 -0.030000
v -0.021651 0.012500 -0.050000
v -0.021651 0.012500 -0.030000
v -0.012500 0.021651 -0.050000
v -0.012500 0.021651 -0.030000
vn 0.2588 0.9659 -0.0000
vn 0.7071 0.7071 -0.0000
vn 0.9659 0.2588 -0.0000
vn 0.9659 -0.2588 -0.0000
vn 0.7071 -0.7071 -0.0000
vn 0.2588 -0.9659 -0.0000
vn -0.2588 -0.9659 -0.0000
vn -0.7071 -0.7071 -0.0000
vn -0.9659 -0.2588 -0.0000
vn -0.9659 0.2588 -0.0000
vn -0.0000 -0.0000 1.0000
vn -0.7071 0.7071 -0.0000
vn -0.2588 0.9659 -0.0000
vn -0.0000 -0.0000 -1.0000
vt 1.000000 1.000000
vt 0.916667 0.500000
vt 1.000000 0.500000
vt 0.916667 1.000000
vt 0.833333 0.500000
vt 0.833333 1.000000
vt 0.750000 0.500000
vt 0.750000 1.000000
vt 0.666667 0.500000
vt 0.666667 1.000000
vt 0.583333 0.500000
vt 0.583333 1.000000
vt 0.500000 0.500000
vt 0.500000 1.000000
vt 0.416667 0.500000
vt 0.416667 1.000000
vt 0.333333 0.500000
vt 0.333333 1.000000
vt 0.250000 0.500000
vt 0.250000 1.000000
vt 0.166667 0.500000
vt 0.042154 0.370000
vt 0.250000 0.010000
vt 0.457846 0.370000
vt 0.166667 1.000000
vt 0.083333 0.500000
vt 0.083333 1.000000
vt 0.000000 0.500000
vt 0.990000 0.250000
vt 0.630000 0.042154
vt 0.630000 0.457846
vt 0.370000 0.457846
vt 0.250000 0.490000
vt 0.130000 0.457846
vt 0.010000 0.250000
vt 0.042154 0.130000
vt 0.130000 0.042154
vt 0.370000 0.042154
vt 0.457846 0.130000
vt 0.490000 0.250000
vt 0.000000 1.000000
vt 0.750000 0.490000
vt 0.870000 0.457846
vt 0.957846 0.370000
vt 0.957846 0.130000
vt 0.870000 0.042154
vt 0.750000 0.010000
vt 0.542154 0.130000
vt 0.510000 0.250000
vt 0.542154 0.370000
s 0
usemtl MM2_GlassFrost
f 10/15/7 11/16/7 9/17/7
f 12/18/8 13/19/8 11/16/8
f 14/20/9 15/21/9 13/19/9
f 16/22/10 17/23/10 15/21/10
f 18/24/11 19/25/11 17/23/11
f 20/26/12 21/27/12 19/25/12
f 22/28/13 23/29/13 21/27/13
f 24/30/14 25/31/14 23/29/14
f 26/32/15 27/33/15 25/31/15
f 28/34/16 29/35/16 27/33/16
f 30/36/17 22/37/17 14/38/17
f 30/39/18 31/40/18 29/35/18
f 32/41/19 9/42/19 31/40/19
f 15/43/20 23/44/20 31/45/20
f 10/15/7 12/18/7 11/16/7
f 12/18/8 14/20/8 13/19/8
f 14/20/9 16/22/9 15/21/9
f 16/22/10 18/24/10 17/23/10
f 18/24/11 20/26/11 19/25/11
f 20/26/12 22/28/12 21/27/12
f 22/28/13 24/30/13 23/29/13
f 24/30/14 26/32/14 25/31/14
f 26/32/15 28/34/15 27/33/15
f 28/34/16 30/39/16 29/35/16
f 14/38/17 12/46/17 10/47/17
f 10/47/17 32/48/17 30/36/17
f 30/36/17 28/49/17 26/50/17
f 26/50/17 24/51/17 22/37/17
f 22/37/17 20/52/17 18/53/17
f 18/53/17 16/54/17 14/38/17
f 14/38/17 10/47/17 30/36/17
f 30/36/17 26/50/17 22/37/17
f 22/37/17 18/53/17 14/38/17
f 30/39/18 32/41/18 31/40/18
f 32/41/19 10/55/19 9/42/19
f 31/45/20 9/56/20 11/57/20
f 11/57/20 13/58/20 15/43/20
f 15/43/20 17/59/20 19/60/20
f 19/60/20 21/61/20 23/44/20
f 23/44/20 25/62/20 27/63/20
f 27/63/20 29/64/20 31/45/20
f 31/45/20 11/57/20 15/43/20
f 15/43/20 19/60/20 23/44/20
f 23/44/20 27/63/20 31/45/20
o MS_LED
v 0.030000 0.024243 -0.034243
v 0.030000 0.020000 -0.036000
v 0.030000 0.015757 -0.034243
v 0.033674 0.024243 -0.032121
v 0.035196 0.020000 -0.033000
v 0.033674 0.015757 -0.032121
v 0.033674 0.024243 -0.027879
v 0.035196 0.020000 -0.027000
v 0.033674 0.015757 -0.027879
v 0.030000 0.024243 -0.025757
v 0.030000 0.020000 -0.024000
v 0.030000 0.015757 -0.025757
v 0.030000 0.014000 -0.030000
v 0.030000 0.026000 -0.030000
v 0.026326 0.024243 -0.027879
v 0.024804 0.020000 -0.027000
v 0.026326 0.015757 -0.027879
v 0.026326 0.024243 -0.032121
v 0.024804 0.020000 -0.033000
v 0.026326 0.015757 -0.032121
vn 0.4706 -0.3377 -0.8152
vn 0.2157 0.9021 -0.3737
vn 0.2157 -0.9021 -0.3737
vn 0.4706 0.3377 -0.8152
vn 0.9413 -0.3377 -0.0000
vn 0.4315 0.9021 -0.0000
vn 0.4315 -0.9021 -0.0000
vn 0.9413 0.3377 -0.0000
vn 0.4706 -0.3377 0.8152
vn 0.2157 0.9021 0.3737
vn 0.2157 -0.9021 0.3737
vn 0.4706 0.3377 0.8152
vn -0.4706 -0.3377 0.8152
vn -0.2157 0.9021 0.3737
vn -0.2157 -0.9021 0.3737
vn -0.4706 0.3377 0.8152
vn -0.9413 -0.3377 -0.0000
vn -0.4315 0.9021 -0.0000
vn -0.4315 -0.9021 -0.0000
vn -0.9413 0.3377 -0.0000
vn -0.4706 -0.3377 -0.8152
vn -0.2157 0.9021 -0.3737
vn -0.2157 -0.9021 -0.3737
vn -0.4706 0.3377 -0.8152
vt 0.666667 0.500000
vt 0.500000 0.250000
vt 0.666667 0.250000
vt 0.666667 0.750000
vt 0.583333 1.000000
vt 0.500000 0.750000
vt 0.583333 0.000000
vt 0.500000 0.500000
vt 0.333333 0.250000
vt 0.416667 1.000000
vt 0.333333 0.750000
vt 0.416667 0.000000
vt 0.333333 0.500000
vt 0.166667 0.250000
vt 0.250000 1.000000
vt 0.166667 0.750000
vt 0.250000 0.000000
vt 0.166667 0.500000
vt 0.000000 0.500000
vt 0.000000 0.250000
vt 0.083333 1.000000
vt 0.000000 0.750000
vt 0.083333 0.000000
vt 1.000000 0.500000
vt 0.833333 0.250000
vt 1.000000 0.250000
vt 1.000000 0.750000
vt 0.916667 1.000000
vt 0.833333 0.750000
vt 0.916667 0.000000
vt 0.833333 0.500000
vt 0.750000 1.000000
vt 0.750000 0.000000
s 0
usemtl MM2_LED_OK
f 34/65/21 38/66/21 35/67/21
f 33/68/22 46/69/22 36/70/22
f 45/71/23 35/67/23 38/66/23
f 33/68/24 37/72/24 34/65/24
f 37/72/25 41/73/25 38/66/25
f 36/70/26 46/74/26 39/75/26
f 45/76/27 38/66/27 41/73/27
f 36/70/28 40/77/28 37/72/28
f 40/77/29 44/78/29 41/73/29
f 39/75/30 46/79/30 42/80/30
f 45/81/31 41/73/31 44/78/31
f 39/75/32 43/82/32 40/77/32
f 44/78/33 48/83/33 49/84/33
f 42/80/34 46/85/34 47/86/34
f 45/87/35 44/78/35 49/84/35
f 42/80/36 48/83/36 43/82/36
f 48/88/37 52/89/37 49/90/37
f 47/91/38 46/92/38 50/93/38
f 45/94/39 49/90/39 52/89/39
f 47/91/40 51/95/40 48/88/40
f 51/95/41 35/67/41 52/89/41
f 50/93/42 46/96/42 33/68/42
f 45/97/43 52/89/43 35/67/43
f 50/93/44 34/65/44 51/95/44
f 34/65/21 37/72/21 38/66/21
f 33/68/24 36/70/24 37/72/24
f 37/72/25 40/77/25 41/73/25
f 36/70/28 39/75/28 40/77/28
f 40/77/29 43/82/29 44/78/29
f 39/75/32 42/80/32 43/82/32
f 44/78/33 43/82/33 48/83/33
f 42/80/36 47/86/36 48/83/36
f 48/88/37 51/95/37 52/89/37
f 47/91/40 50/93/40 51/95/40
f 51/95/41 34/65/41 35/67/41
f 50/93/44 33/68/44 34/65/44
