# Blender 4.2.8 LTS
# www.blender.org
mtllib hm_bank_lobby_chair_v2.mtl
o LC_Seat
v -0.252000 0.390000 0.242000
v -0.252000 0.398000 0.250000
v -0.260000 0.398000 0.242000
v -0.252000 0.392343 0.247657
v -0.256619 0.393381 0.246619
v -0.257657 0.398000 0.247657
v -0.257657 0.392343 0.242000
v -0.252000 0.442000 0.250000
v -0.252000 0.450000 0.242000
v -0.260000 0.442000 0.242000
v -0.252000 0.447657 0.247657
v -0.256619 0.446619 0.246619
v -0.257657 0.447657 0.242000
v -0.257657 0.442000 0.247657
v -0.252000 0.390000 -0.242000
v -0.260000 0.398000 -0.242000
v -0.252000 0.398000 -0.250000
v -0.257657 0.392343 -0.242000
v -0.256619 0.393381 -0.246619
v -0.257657 0.398000 -0.247657
v -0.252000 0.392343 -0.247657
v -0.252000 0.450000 -0.242000
v -0.252000 0.442000 -0.250000
v -0.260000 0.442000 -0.242000
v -0.252000 0.447657 -0.247657
v -0.256619 0.446619 -0.246619
v -0.257657 0.442000 -0.247657
v -0.257657 0.447657 -0.242000
v 0.252000 0.390000 0.242000
v 0.260000 0.398000 0.242000
v 0.252000 0.398000 0.250000
v 0.257657 0.392343 0.242000
v 0.256619 0.393381 0.246619
v 0.257657 0.398000 0.247657
v 0.252000 0.392343 0.247657
v 0.252000 0.450000 0.242000
v 0.252000 0.442000 0.250000
v 0.260000 0.442000 0.242000
v 0.252000 0.447657 0.247657
v 0.256619 0.446619 0.246619
v 0.257657 0.442000 0.247657
v 0.257657 0.447657 0.242000
v 0.252000 0.390000 -0.242000
v 0.252000 0.398000 -0.250000
v 0.260000 0.398000 -0.242000
v 0.252000 0.392343 -0.247657
v 0.256619 0.393381 -0.246619
v 0.257657 0.398000 -0.247657
v 0.257657 0.392343 -0.242000
v 0.252000 0.450000 -0.242000
v 0.260000 0.442000 -0.242000
v 0.252000 0.442000 -0.250000
v 0.257657 0.447657 -0.242000
v 0.256619 0.446619 -0.246619
v 0.257657 0.442000 -0.247657
v 0.252000 0.447657 -0.247657
vn -0.1794 -0.9673 0.1794
vn -0.1794 -0.1794 0.9673
vn -0.9673 -0.1794 0.1794
vn -0.1479 -0.6993 0.6993
vn -0.5774 -0.5773 0.5773
vn -0.6993 -0.1479 0.6993
vn -0.6993 -0.6993 0.1479
vn -0.1794 0.1794 0.9673
vn -0.1794 0.9673 0.1794
vn -0.9673 0.1794 0.1794
vn -0.1479 0.6993 0.6993
vn -0.5774 0.5773 0.5773
vn -0.6993 0.6993 0.1479
vn -0.6993 0.1479 0.6993
vn -0.1794 -0.9673 -0.1794
vn -0.9673 -0.1794 -0.1794
vn -0.1794 -0.1794 -0.9673
vn -0.6993 -0.6993 -0.1479
vn -0.5773 -0.5774 -0.5774
vn -0.6993 -0.1479 -0.6993
vn -0.1479 -0.6993 -0.6993
vn -0.1794 0.9673 -0.1794
vn -0.1794 0.1794 -0.9673
vn -0.9673 0.1794 -0.1794
vn -0.1479 0.6993 -0.6993
vn -0.5774 0.5773 -0.5773
vn -0.6993 0.1479 -0.6993
vn -0.6993 0.6993 -0.1479
vn 0.1794 -0.9673 0.1794
vn 0.9673 -0.1794 0.1794
vn 0.1794 -0.1794 0.9673
vn 0.6993 -0.6993 0.1479
vn 0.5773 -0.5774 0.5774
vn 0.6993 -0.1479 0.6993
vn 0.1479 -0.6993 0.6993
vn 0.1794 0.9673 0.1794
vn 0.1794 0.1794 0.9673
vn 0.9673 0.1794 0.1794
vn 0.1479 0.6993 0.6993
vn 0.5774 0.5773 0.5773
vn 0.6993 0.1479 0.6993
vn 0.6993 0.6993 0.1479
vn 0.1794 -0.9673 -0.1794
vn 0.1794 -0.1794 -0.9673
vn 0.9673 -0.1794 -0.1794
vn 0.1479 -0.6993 -0.6993
vn 0.5774 -0.5773 -0.5773
vn 0.6993 -0.1479 -0.6993
vn 0.6993 -0.6993 -0.1479
vn 0.1794 0.9673 -0.1794
vn 0.9673 0.1794 -0.1794
vn 0.1794 0.1794 -0.9673
vn 0.6993 0.6993 -0.1479
vn 0.5773 0.5774 -0.5774
vn 0.6993 0.1479 -0.6993
vn 0.1479 0.6993 -0.6993
vt 0.591667 0.753846
vt 0.408333 0.996154
vt 0.408333 0.753846
vt 0.591667 0.504000
vt 0.408333 0.746000
vt 0.408333 0.504000
vt 0.871154 0.504000
vt 0.628846 0.746000
vt 0.628846 0.504000
vt 0.591667 0.004000
vt 0.408333 0.246000
vt 0.408333 0.004000
vt 0.591667 0.253846
vt 0.408333 0.496154
vt 0.408333 0.253846
vt 0.128846 0.746000
vt 0.126626 0.750000
vt 0.125000 0.746000
vt 0.389088 1.000000
vt 0.375000 0.996154
vt 0.375000 0.001691
vt 0.408333 0.000000
vt 0.591667 0.996154
vt 0.625000 0.998374
vt 0.591667 1.000000
vt 0.871154 0.746000
vt 0.875000 0.748309
vt 0.871154 0.750000
vt 0.610912 0.000000
vt 0.625000 0.004000
vt 0.128846 0.504000
vt 0.125000 0.501691
vt 0.128846 0.500000
vt 0.389088 0.250000
vt 0.375000 0.246000
vt 0.375000 0.251626
vt 0.408333 0.250000
vt 0.873374 0.500000
vt 0.875000 0.504000
vt 0.610912 0.250000
vt 0.625000 0.253846
vt 0.591667 0.246000
vt 0.625000 0.248309
vt 0.591667 0.250000
vt 0.371154 0.746000
vt 0.379696 0.749978
vt 0.371154 0.750000
vt 0.375000 0.746000
vt 0.408333 0.750000
vt 0.620846 0.749436
vt 0.625000 0.746000
vt 0.625000 0.753846
vt 0.591667 0.746000
vt 0.591667 0.750000
vt 0.371154 0.504000
vt 0.379154 0.500564
vt 0.375000 0.504000
vt 0.375000 0.496154
vt 0.408333 0.500000
vt 0.620304 0.500022
vt 0.628846 0.500000
vt 0.625000 0.504000
vt 0.591667 0.496154
vt 0.591667 0.500000
vt 0.125000 0.504000
vt 0.375000 0.004000
vt 0.408333 1.000000
vt 0.591667 0.000000
vt 0.875000 0.746000
vt 0.625000 0.246000
vt 0.371154 0.500000
vt 0.375000 0.253846
vt 0.871154 0.500000
vt 0.625000 0.496154
vt 0.408333 0.750000
vt 0.128846 0.750000
vt 0.375000 0.753846
vt 0.628846 0.750000
vt 0.625000 0.996154
s 1
usemtl MM2_LobbyFabric
f 37/1/37 2/2/2 31/3/31
f 51/4/51 30/5/30 45/6/45
f 22/7/22 36/8/36 50/9/50
f 10/10/10 16/11/16 3/12/3
f 23/13/23 44/14/44 17/15/17
f 1/16/1 5/17/5 7/18/7
f 2/2/2 5/19/5 4/20/4
f 3/12/3 5/21/5 6/22/6
f 8/23/8 12/24/12 14/25/14
f 9/26/9 12/27/12 11/28/11
f 10/10/10 12/29/12 13/30/13
f 15/31/15 19/32/19 21/33/21
f 16/11/16 19/34/19 18/35/18
f 17/15/17 19/36/19 20/37/20
f 22/7/22 26/38/26 28/39/28
f 23/13/23 26/40/26 25/41/25
f 24/42/24 26/43/26 27/44/27
f 29/45/29 33/46/33 35/47/35
f 30/5/30 33/46/33 32/48/32
f 31/3/31 33/46/33 34/49/34
f 36/8/36 40/50/40 42/51/42
f 37/1/37 40/50/40 39/52/39
f 38/53/38 40/50/40 41/54/41
f 43/55/43 47/56/47 49/57/49
f 44/14/44 47/56/47 46/58/46
f 45/6/45 47/56/47 48/59/48
f 50/9/50 54/60/54 56/61/56
f 51/4/51 54/60/54 53/62/53
f 52/63/52 54/60/54 55/64/55
f 1/16/1 18/65/18 15/31/15
f 7/66/7 16/11/16 18/35/18
f 8/23/8 6/67/6 2/2/2
f 14/68/14 3/12/3 6/22/6
f 9/26/9 28/39/28 13/69/13
f 28/70/28 10/10/10 13/30/13
f 23/13/23 20/37/20 27/44/27
f 27/44/27 16/11/16 24/42/24
f 43/55/43 21/33/21 46/71/46
f 21/72/21 44/14/44 46/58/46
f 22/7/22 56/61/56 25/73/25
f 56/74/56 23/13/23 25/41/25
f 45/6/45 55/64/55 51/4/51
f 55/64/55 44/14/44 52/63/52
f 43/55/43 32/48/32 29/45/29
f 49/57/49 30/5/30 32/48/32
f 36/8/36 53/62/53 50/9/50
f 42/51/42 51/4/51 53/62/53
f 37/1/37 34/75/34 41/54/41
f 41/54/41 30/5/30 38/53/38
f 1/16/1 35/47/35 4/76/4
f 35/77/35 2/2/2 4/20/4
f 9/26/9 39/78/39 36/8/36
f 11/79/11 37/1/37 39/52/39
f 43/55/43 1/16/1 15/31/15
f 37/1/37 8/23/8 2/2/2
f 51/4/51 38/53/38 30/5/30
f 22/7/22 9/26/9 36/8/36
f 10/10/10 24/42/24 16/11/16
f 23/13/23 52/63/52 44/14/44
f 1/16/1 4/76/4 5/17/5
f 2/2/2 6/67/6 5/19/5
f 3/12/3 7/66/7 5/21/5
f 8/23/8 11/79/11 12/24/12
f 9/26/9 13/69/13 12/27/12
f 10/10/10 14/68/14 12/29/12
f 15/31/15 18/65/18 19/32/19
f 16/11/16 20/37/20 19/34/19
f 17/15/17 21/72/21 19/36/19
f 22/7/22 25/73/25 26/38/26
f 23/13/23 27/44/27 26/40/26
f 24/42/24 28/70/28 26/43/26
f 29/45/29 32/48/32 33/46/33
f 30/5/30 34/75/34 33/46/33
f 31/3/31 35/77/35 33/46/33
f 36/8/36 39/78/39 40/50/40
f 37/1/37 41/54/41 40/50/40
f 38/53/38 42/51/42 40/50/40
f 43/55/43 46/71/46 47/56/47
f 44/14/44 48/59/48 47/56/47
f 45/6/45 49/57/49 47/56/47
f 50/9/50 53/62/53 54/60/54
f 51/4/51 55/64/55 54/60/54
f 52/63/52 56/74/56 54/60/54
f 1/16/1 7/18/7 18/65/18
f 7/66/7 3/12/3 16/11/16
f 8/23/8 14/25/14 6/67/6
f 14/68/14 10/10/10 3/12/3
f 9/26/9 22/7/22 28/39/28
f 28/70/28 24/42/24 10/10/10
f 23/13/23 17/15/17 20/37/20
f 27/44/27 20/37/20 16/11/16
f 43/55/43 15/31/15 21/33/21
f 21/72/21 17/15/17 44/14/44
f 22/7/22 50/9/50 56/61/56
f 56/74/56 52/63/52 23/13/23
f 45/6/45 48/59/48 55/64/55
f 55/64/55 48/59/48 44/14/44
f 43/55/43 49/57/49 32/48/32
f 49/57/49 45/6/45 30/5/30
f 36/8/36 42/51/42 53/62/53
f 42/51/42 38/53/38 51/4/51
f 37/1/37 31/3/31 34/75/34
f 41/54/41 34/75/34 30/5/30
f 1/16/1 29/45/29 35/47/35
f 35/77/35 31/3/31 2/2/2
f 9/26/9 11/28/11 39/78/39
f 11/79/11 8/23/8 37/1/37
f 43/55/43 29/45/29 1/16/1
o LC_Back
v -0.252000 0.455000 -0.198000
v -0.252000 0.463000 -0.190000
v -0.260000 0.463000 -0.198000
v -0.252000 0.457343 -0.192343
v -0.256619 0.458381 -0.193381
v -0.257657 0.463000 -0.192343
v -0.257657 0.457343 -0.198000
v -0.252000 0.897000 -0.190000
v -0.252000 0.905000 -0.198000
v -0.260000 0.897000 -0.198000
v -0.252000 0.902657 -0.192343
v -0.256619 0.901619 -0.193381
v -0.257657 0.902657 -0.198000
v -0.257657 0.897000 -0.192343
v -0.252000 0.455000 -0.242000
v -0.260000 0.463000 -0.242000
v -0.252000 0.463000 -0.250000
v -0.257657 0.457343 -0.242000
v -0.256619 0.458381 -0.246619
v -0.257657 0.463000 -0.247657
v -0.252000 0.457343 -0.247657
v -0.252000 0.905000 -0.242000
v -0.252000 0.897000 -0.250000
v -0.260000 0.897000 -0.242000
v -0.252000 0.902657 -0.247657
v -0.256619 0.901619 -0.246619
v -0.257657 0.897000 -0.247657
v -0.257657 0.902657 -0.242000
v 0.252000 0.455000 -0.198000
v 0.260000 0.463000 -0.198000
v 0.252000 0.463000 -0.190000
v 0.257657 0.457343 -0.198000
v 0.256619 0.458381 -0.193381
v 0.257657 0.463000 -0.192343
v 0.252000 0.457343 -0.192343
v 0.252000 0.905000 -0.198000
v 0.252000 0.897000 -0.190000
v 0.260000 0.897000 -0.198000
v 0.252000 0.902657 -0.192343
v 0.256619 0.901619 -0.193381
v 0.257657 0.897000 -0.192343
v 0.257657 0.902657 -0.198000
v 0.252000 0.455000 -0.242000
v 0.252000 0.463000 -0.250000
v 0.260000 0.463000 -0.242000
v 0.252000 0.457343 -0.247657
v 0.256619 0.458381 -0.246619
v 0.257657 0.463000 -0.247657
v 0.257657 0.457343 -0.242000
v 0.252000 0.905000 -0.242000
v 0.260000 0.897000 -0.242000
v 0.252000 0.897000 -0.250000
v 0.257657 0.902657 -0.242000
v 0.256619 0.901619 -0.246619
v 0.257657 0.897000 -0.247657
v 0.252000 0.902657 -0.247657
vn -0.1794 -0.9673 0.1794
vn -0.1794 -0.1794 0.9673
vn -0.9673 -0.1794 0.1794
vn -0.1479 -0.6993 0.6993
vn -0.5774 -0.5774 0.5773
vn -0.6993 -0.1479 0.6993
vn -0.6993 -0.6993 0.1479
vn -0.1794 0.1794 0.9673
vn -0.1794 0.9673 0.1794
vn -0.9673 0.1794 0.1794
vn -0.1479 0.6993 0.6993
vn -0.5774 0.5774 0.5773
vn -0.6993 0.6993 0.1479
vn -0.6993 0.1479 0.6993
vn -0.1794 -0.9673 -0.1794
vn -0.9673 -0.1794 -0.1794
vn -0.1794 -0.1794 -0.9673
vn -0.6993 -0.6993 -0.1479
vn -0.5773 -0.5774 -0.5774
vn -0.6993 -0.1479 -0.6993
vn -0.1479 -0.6993 -0.6993
vn -0.1794 0.9673 -0.1794
vn -0.1794 0.1794 -0.9673
vn -0.9673 0.1794 -0.1794
vn -0.1479 0.6993 -0.6993
vn -0.5774 0.5774 -0.5773
vn -0.6993 0.1479 -0.6993
vn -0.6993 0.6993 -0.1479
vn 0.1794 -0.9673 0.1794
vn 0.9673 -0.1794 0.1794
vn 0.1794 -0.1794 0.9673
vn 0.6993 -0.6993 0.1479
vn 0.5773 -0.5774 0.5774
vn 0.6993 -0.1479 0.6993
vn 0.1479 -0.6993 0.6993
vn 0.1794 0.9673 0.1794
vn 0.1794 0.1794 0.9673
vn 0.9673 0.1794 0.1794
vn 0.1479 0.6993 0.6993
vn 0.5774 0.5774 0.5773
vn 0.6993 0.1479 0.6993
vn 0.6993 0.6993 0.1479
vn 0.1794 -0.9673 -0.1794
vn 0.1794 -0.1794 -0.9673
vn 0.9673 -0.1794 -0.1794
vn 0.1479 -0.6993 -0.6993
vn 0.5774 -0.5774 -0.5773
vn 0.6993 -0.1479 -0.6993
vn 0.6993 -0.6993 -0.1479
vn 0.1794 0.9673 -0.1794
vn 0.9673 0.1794 -0.1794
vn 0.1794 0.1794 -0.9673
vn 0.6993 0.6993 -0.1479
vn 0.5773 0.5774 -0.5774
vn 0.6993 0.1479 -0.6993
vn 0.1479 0.6993 -0.6993
vt 0.620556 0.753846
vt 0.379444 0.996154
vt 0.379444 0.753846
vt 0.620556 0.533333
vt 0.379444 0.716667
vt 0.379444 0.533333
vt 0.871154 0.533333
vt 0.628846 0.716667
vt 0.628846 0.533333
vt 0.620556 0.033333
vt 0.379444 0.216667
vt 0.379444 0.033333
vt 0.620556 0.253846
vt 0.379444 0.496154
vt 0.379444 0.253846
vt 0.128846 0.716667
vt 0.126626 0.750000
vt 0.125000 0.716667
vt 0.376878 1.000000
vt 0.375000 0.996154
vt 0.375000 0.014088
vt 0.379444 0.000000
vt 0.620556 0.996154
vt 0.625000 0.998374
vt 0.620556 1.000000
vt 0.871154 0.716667
vt 0.875000 0.735912
vt 0.871154 0.750000
vt 0.623122 0.000000
vt 0.625000 0.033333
vt 0.128846 0.533333
vt 0.125000 0.514088
vt 0.128846 0.500000
vt 0.376878 0.250000
vt 0.375000 0.216667
vt 0.375000 0.251626
vt 0.379444 0.250000
vt 0.873374 0.500000
vt 0.875000 0.533333
vt 0.623122 0.250000
vt 0.625000 0.253846
vt 0.620556 0.216667
vt 0.625000 0.235912
vt 0.620556 0.250000
vt 0.371154 0.716667
vt 0.375626 0.745846
vt 0.371154 0.750000
vt 0.375000 0.716667
vt 0.379444 0.750000
vt 0.624916 0.745304
vt 0.625000 0.716667
vt 0.625000 0.753846
vt 0.620556 0.716667
vt 0.620556 0.750000
vt 0.371154 0.533333
vt 0.375084 0.504696
vt 0.375000 0.533333
vt 0.375000 0.496154
vt 0.379444 0.500000
vt 0.624374 0.504154
vt 0.628846 0.500000
vt 0.625000 0.533333
vt 0.620556 0.496154
vt 0.620556 0.500000
vt 0.125000 0.533333
vt 0.375000 0.033333
vt 0.379444 1.000000
vt 0.620556 0.000000
vt 0.875000 0.716667
vt 0.625000 0.216667
vt 0.371154 0.500000
vt 0.375000 0.253846
vt 0.871154 0.500000
vt 0.625000 0.496154
vt 0.375000 0.533333
vt 0.379444 0.750000
vt 0.128846 0.750000
vt 0.375000 0.753846
vt 0.628846 0.750000
vt 0.625000 0.996154
vt 0.620556 0.500000
s 1
usemtl MM2_LobbyFabric
f 93/80/93 58/81/58 87/82/87
f 107/83/107 86/84/86 101/85/101
f 78/86/78 92/87/92 106/88/106
f 66/89/66 72/90/72 59/91/59
f 79/92/79 100/93/100 73/94/73
f 57/95/57 61/96/61 63/97/63
f 58/81/58 61/98/61 60/99/60
f 59/91/59 61/100/61 62/101/62
f 64/102/64 68/103/68 70/104/70
f 65/105/65 68/106/68 67/107/67
f 66/89/66 68/108/68 69/109/69
f 71/110/71 75/111/75 77/112/77
f 72/90/72 75/113/75 74/114/74
f 73/94/73 75/115/75 76/116/76
f 78/86/78 82/117/82 84/118/84
f 79/92/79 82/119/82 81/120/81
f 80/121/80 82/122/82 83/123/83
f 85/124/85 89/125/89 91/126/91
f 86/84/86 89/125/89 88/127/88
f 87/82/87 89/125/89 90/128/90
f 92/87/92 96/129/96 98/130/98
f 93/80/93 96/129/96 95/131/95
f 94/132/94 96/129/96 97/133/97
f 99/134/99 103/135/103 105/136/105
f 100/93/100 103/135/103 102/137/102
f 101/85/101 103/135/103 104/138/104
f 106/88/106 110/139/110 112/140/112
f 107/83/107 110/139/110 109/141/109
f 108/142/108 110/139/110 111/143/111
f 57/95/57 74/144/74 71/110/71
f 63/145/63 72/90/72 74/114/74
f 64/102/64 62/146/62 58/81/58
f 70/147/70 59/91/59 62/101/62
f 78/86/78 69/148/69 65/105/65
f 84/149/84 66/89/66 69/109/69
f 73/94/73 83/123/83 79/92/79
f 76/116/76 80/121/80 83/123/83
f 71/110/71 102/150/102 99/134/99
f 77/151/77 100/93/100 102/137/102
f 106/88/106 81/152/81 78/86/78
f 112/153/112 79/92/79 81/120/81
f 101/85/101 111/143/111 107/83/107
f 111/143/111 100/93/100 108/142/108
f 99/134/99 88/127/88 85/124/85
f 105/154/105 86/84/86 88/127/88
f 92/87/92 109/141/109 106/88/106
f 98/130/98 107/83/107 109/141/109
f 87/82/87 97/133/97 93/80/93
f 90/155/90 94/132/94 97/133/97
f 85/124/85 60/156/60 57/95/57
f 91/157/91 58/81/58 60/99/60
f 65/105/65 95/158/95 92/87/92
f 67/159/67 93/80/93 95/131/95
f 99/134/99 57/95/57 71/110/71
f 93/80/93 64/102/64 58/81/58
f 107/83/107 94/132/94 86/84/86
f 78/86/78 65/105/65 92/87/92
f 66/89/66 80/121/80 72/90/72
f 79/92/79 108/142/108 100/93/100
f 57/95/57 60/156/60 61/96/61
f 58/81/58 62/146/62 61/98/61
f 59/91/59 63/145/63 61/100/61
f 64/102/64 67/159/67 68/103/68
f 65/105/65 69/148/69 68/106/68
f 66/89/66 70/147/70 68/108/68
f 71/110/71 74/144/74 75/111/75
f 72/90/72 76/116/76 75/113/75
f 73/94/73 77/151/77 75/115/75
f 78/86/78 81/152/81 82/117/82
f 79/92/79 83/123/83 82/119/82
f 80/121/80 84/149/84 82/122/82
f 85/124/85 88/127/88 89/125/89
f 86/84/86 90/155/90 89/125/89
f 87/82/87 91/157/91 89/125/89
f 92/87/92 95/158/95 96/129/96
f 93/80/93 97/133/97 96/129/96
f 94/132/94 98/130/98 96/129/96
f 99/134/99 102/150/102 103/135/103
f 100/93/100 104/138/104 103/135/103
f 101/85/101 105/154/105 103/135/103
f 106/88/106 109/141/109 110/139/110
f 107/83/107 111/160/111 110/139/110
f 108/142/108 112/153/112 110/139/110
f 57/95/57 63/97/63 74/144/74
f 63/145/63 59/91/59 72/90/72
f 64/102/64 70/104/70 62/146/62
f 70/147/70 66/89/66 59/91/59
f 78/86/78 84/118/84 69/148/69
f 84/149/84 80/121/80 66/89/66
f 73/94/73 76/116/76 83/123/83
f 76/116/76 72/90/72 80/121/80
f 71/110/71 77/112/77 102/150/102
f 77/151/77 73/94/73 100/93/100
f 106/88/106 112/140/112 81/152/81
f 112/153/112 108/142/108 79/92/79
f 101/85/101 104/138/104 111/143/111
f 111/143/111 104/138/104 100/93/100
f 99/134/99 105/154/105 88/127/88
f 105/154/105 101/85/101 86/84/86
f 92/87/92 98/130/98 109/141/109
f 98/130/98 94/132/94 107/83/107
f 87/82/87 90/155/90 97/133/97
f 90/155/90 86/84/86 94/132/94
f 85/124/85 91/126/91 60/156/60
f 91/157/91 87/82/87 58/81/58
f 65/105/65 67/107/67 95/158/95
f 67/159/67 64/102/64 93/80/93
f 99/134/99 85/124/85 57/95/57
o LC_LegF_-0.22
v -0.220000 0.000000 0.162000
v -0.220000 0.420000 0.162000
v -0.211000 0.000000 0.164412
v -0.211000 0.420000 0.164412
v -0.204412 0.000000 0.171000
v -0.204412 0.420000 0.171000
v -0.202000 0.000000 0.180000
v -0.202000 0.420000 0.180000
v -0.204412 0.000000 0.189000
v -0.204412 0.420000 0.189000
v -0.211000 0.000000 0.195588
v -0.211000 0.420000 0.195588
v -0.220000 0.000000 0.198000
v -0.220000 0.420000 0.198000
v -0.229000 0.000000 0.195588
v -0.229000 0.420000 0.195588
v -0.235588 0.000000 0.189000
v -0.235588 0.420000 0.189000
v -0.238000 0.000000 0.180000
v -0.238000 0.420000 0.180000
v -0.235588 0.000000 0.171000
v -0.235588 0.420000 0.171000
v -0.229000 0.000000 0.164412
v -0.229000 0.420000 0.164412
vn 0.2588 -0.0000 -0.9659
vn 0.7071 -0.0000 -0.7071
vn 0.9659 -0.0000 -0.2588
vn 0.9659 -0.0000 0.2588
vn 0.7071 -0.0000 0.7071
vn 0.2588 -0.0000 0.9659
vn -0.2588 -0.0000 0.9659
vn -0.7071 -0.0000 0.7071
vn -0.9659 -0.0000 0.2588
vn -0.9659 -0.0000 -0.2588
vn -0.0000 1.0000 -0.0000
vn -0.7071 -0.0000 -0.7071
vn -0.2588 -0.0000 -0.9659
vn -0.0000 -1.0000 -0.0000
vt 1.000000 1.000000
vt 0.916667 0.500000
vt 1.000000 0.500000
vt 0.916667 1.000000
vt 0.833333 0.500000
vt 0.833333 1.000000
vt 0.750000 0.500000
vt 0.750000 1.000000
vt 0.666667 0.500000
vt 0.666667 1.000000
vt 0.583333 0.500000
vt 0.583333 1.000000
vt 0.500000 0.500000
vt 0.500000 1.000000
vt 0.416667 0.500000
vt 0.416667 1.000000
vt 0.333333 0.500000
vt 0.333333 1.000000
vt 0.250000 0.500000
vt 0.250000 1.000000
vt 0.166667 0.500000
vt 0.042154 0.370000
vt 0.250000 0.010000
vt 0.457846 0.370000
vt 0.166667 1.000000
vt 0.083333 0.500000
vt 0.083333 1.000000
vt 0.000000 0.500000
vt 0.990000 0.250000
vt 0.630000 0.042154
vt 0.630000 0.457846
vt 0.370000 0.457846
vt 0.250000 0.490000
vt 0.130000 0.457846
vt 0.010000 0.250000
vt 0.042154 0.130000
vt 0.130000 0.042154
vt 0.370000 0.042154
vt 0.457846 0.130000
vt 0.490000 0.250000
vt 0.000000 1.000000
vt 0.750000 0.490000
vt 0.870000 0.457846
vt 0.957846 0.370000
vt 0.957846 0.130000
vt 0.870000 0.042154
vt 0.750000 0.010000
vt 0.542154 0.130000
vt 0.510000 0.250000
vt 0.542154 0.370000
s 0
usemtl MM2_BrushedAlum
f 114/161/113 115/162/113 113/163/113
f 116/164/114 117/165/114 115/162/114
f 118/166/115 119/167/115 117/165/115
f 120/168/116 121/169/116 119/167/116
f 122/170/117 123/171/117 121/169/117
f 124/172/118 125/173/118 123/171/118
f 126/174/119 127/175/119 125/173/119
f 128/176/120 129/177/120 127/175/120
f 130/178/121 131/179/121 129/177/121
f 132/180/122 133/181/122 131/179/122
f 134/182/123 126/183/123 118/184/123
f 134/185/124 135/186/124 133/181/124
f 136/187/125 113/188/125 135/186/125
f 119/189/126 127/190/126 135/191/126
f 114/161/113 116/164/113 115/162/113
f 116/164/114 118/166/114 117/165/114
f 118/166/115 120/168/115 119/167/115
f 120/168/116 122/170/116 121/169/116
f 122/170/117 124/172/117 123/171/117
f 124/172/118 126/174/118 125/173/118
f 126/174/119 128/176/119 127/175/119
f 128/176/120 130/178/120 129/177/120
f 130/178/121 132/180/121 131/179/121
f 132/180/122 134/185/122 133/181/122
f 118/184/123 116/192/123 114/193/123
f 114/193/123 136/194/123 134/182/123
f 134/182/123 132/195/123 130/196/123
f 130/196/123 128/197/123 126/183/123
f 126/183/123 124/198/123 122/199/123
f 122/199/123 120/200/123 118/184/123
f 118/184/123 114/193/123 134/182/123
f 134/182/123 130/196/123 126/183/123
f 126/183/123 122/199/123 118/184/123
f 134/185/124 136/187/124 135/186/124
f 136/187/125 114/201/125 113/188/125
f 135/191/126 113/202/126 115/203/126
f 115/203/126 117/204/126 119/189/126
f 119/189/126 121/205/126 123/206/126
f 123/206/126 125/207/126 127/190/126
f 127/190/126 129/208/126 131/209/126
f 131/209/126 133/210/126 135/191/126
f 135/191/126 115/203/126 119/189/126
f 119/189/126 123/206/126 127/190/126
f 127/190/126 131/209/126 135/191/126
o LC_LegB_-0.22
v -0.220000 0.000000 -0.198000
v -0.220000 0.420000 -0.198000
v -0.211000 0.000000 -0.195588
v -0.211000 0.420000 -0.195588
v -0.204412 0.000000 -0.189000
v -0.204412 0.420000 -0.189000
v -0.202000 0.000000 -0.180000
v -0.202000 0.420000 -0.180000
v -0.204412 0.000000 -0.171000
v -0.204412 0.420000 -0.171000
v -0.211000 0.000000 -0.164412
v -0.211000 0.420000 -0.164412
v -0.220000 0.000000 -0.162000
v -0.220000 0.420000 -0.162000
v -0.229000 0.000000 -0.164412
v -0.229000 0.420000 -0.164412
v -0.235588 0.000000 -0.171000
v -0.235588 0.420000 -0.171000
v -0.238000 0.000000 -0.180000
v -0.238000 0.420000 -0.180000
v -0.235588 0.000000 -0.189000
v -0.235588 0.420000 -0.189000
v -0.229000 0.000000 -0.195588
v -0.229000 0.420000 -0.195588
vn 0.2588 -0.0000 -0.9659
vn 0.7071 -0.0000 -0.7071
vn 0.9659 -0.0000 -0.2588
vn 0.9659 -0.0000 0.2588
vn 0.7071 -0.0000 0.7071
vn 0.2588 -0.0000 0.9659
vn -0.2588 -0.0000 0.9659
vn -0.7071 -0.0000 0.7071
vn -0.9659 -0.0000 0.2588
vn -0.9659 -0.0000 -0.2588
vn -0.0000 1.0000 -0.0000
vn -0.7071 -0.0000 -0.7071
vn -0.2588 -0.0000 -0.9659
vn -0.0000 -1.0000 -0.0000
vt 1.000000 1.000000
vt 0.916667 0.500000
vt 1.000000 0.500000
vt 0.916667 1.000000
vt 0.833333 0.500000
vt 0.833333 1.000000
vt 0.750000 0.500000
vt 0.750000 1.000000
vt 0.666667 0.500000
vt 0.666667 1.000000
vt 0.583333 0.500000
vt 0.583333 1.000000
vt 0.500000 0.500000
vt 0.500000 1.000000
vt 0.416667 0.500000
vt 0.416667 1.000000
vt 0.333333 0.500000
vt 0.333333 1.000000
vt 0.250000 0.500000
vt 0.250000 1.000000
vt 0.166667 0.500000
vt 0.042154 0.370000
vt 0.250000 0.010000
vt 0.457846 0.370000
vt 0.166667 1.000000
vt 0.083333 0.500000
vt 0.083333 1.000000
vt 0.000000 0.500000
vt 0.990000 0.250000
vt 0.630000 0.042154
vt 0.630000 0.457846
vt 0.370000 0.457846
vt 0.250000 0.490000
vt 0.130000 0.457846
vt 0.010000 0.250000
vt 0.042154 0.130000
vt 0.130000 0.042154
vt 0.370000 0.042154
vt 0.457846 0.130000
vt 0.490000 0.250000
vt 0.000000 1.000000
vt 0.750000 0.490000
vt 0.870000 0.457846
vt 0.957846 0.370000
vt 0.957846 0.130000
vt 0.870000 0.042154
vt 0.750000 0.010000
vt 0.542154 0.130000
vt 0.510000 0.250000
vt 0.542154 0.370000
s 0
usemtl MM2_BrushedAlum
f 138/211/127 139/212/127 137/213/127
f 140/214/128 141/215/128 139/212/128
f 142/216/129 143/217/129 141/215/129
f 144/218/130 145/219/130 143/217/130
f 146/220/131 147/221/131 145/219/131
f 148/222/132 149/223/132 147/221/132
f 150/224/133 151/225/133 149/223/133
f 152/226/134 153/227/134 151/225/134
f 154/228/135 155/229/135 153/227/135
f 156/230/136 157/231/136 155/229/136
f 158/232/137 150/233/137 142/234/137
f 158/235/138 159/236/138 157/231/138
f 160/237/139 137/238/139 159/236/139
f 143/239/140 151/240/140 159/241/140
f 138/211/127 140/214/127 139/212/127
f 140/214/128 142/216/128 141/215/128
f 142/216/129 144/218/129 143/217/129
f 144/218/130 146/220/130 145/219/130
f 146/220/131 148/222/131 147/221/131
f 148/222/132 150/224/132 149/223/132
f 150/224/133 152/226/133 151/225/133
f 152/226/134 154/228/134 153/227/134
f 154/228/135 156/230/135 155/229/135
f 156/230/136 158/235/136 157/231/136
f 142/234/137 140/242/137 138/243/137
f 138/243/137 160/244/137 158/232/137
f 158/232/137 156/245/137 154/246/137
f 154/246/137 152/247/137 150/233/137
f 150/233/137 148/248/137 146/249/137
f 146/249/137 144/250/137 142/234/137
f 142/234/137 138/243/137 158/232/137
f 158/232/137 154/246/137 150/233/137
f 150/233/137 146/249/137 142/234/137
f 158/235/138 160/237/138 159/236/138
f 160/237/139 138/251/139 137/238/139
f 159/241/140 137/252/140 139/253/140
f 139/253/140 141/254/140 143/239/140
f 143/239/140 145/255/140 147/256/140
f 147/256/140 149/257/140 151/240/140
f 151/240/140 153/258/140 155/259/140
f 155/259/140 157/260/140 159/241/140
f 159/241/140 139/253/140 143/239/140
f 143/239/140 147/256/140 151/240/140
f 151/240/140 155/259/140 159/241/140
o LC_LegF_0.22
v 0.220000 0.000000 0.162000
v 0.220000 0.420000 0.162000
v 0.229000 0.000000 0.164412
v 0.229000 0.420000 0.164412
v 0.235588 0.000000 0.171000
v 0.235588 0.420000 0.171000
v 0.238000 0.000000 0.180000
v 0.238000 0.420000 0.180000
v 0.235588 0.000000 0.189000
v 0.235588 0.420000 0.189000
v 0.229000 0.000000 0.195588
v 0.229000 0.420000 0.195588
v 0.220000 0.000000 0.198000
v 0.220000 0.420000 0.198000
v 0.211000 0.000000 0.195588
v 0.211000 0.420000 0.195588
v 0.204412 0.000000 0.189000
v 0.204412 0.420000 0.189000
v 0.202000 0.000000 0.180000
v 0.202000 0.420000 0.180000
v 0.204412 0.000000 0.171000
v 0.204412 0.420000 0.171000
v 0.211000 0.000000 0.164412
v 0.211000 0.420000 0.164412
vn 0.2588 -0.0000 -0.9659
vn 0.7071 -0.0000 -0.7071
vn 0.9659 -0.0000 -0.2588
vn 0.9659 -0.0000 0.2588
vn 0.7071 -0.0000 0.7071
vn 0.2588 -0.0000 0.9659
vn -0.2588 -0.0000 0.9659
vn -0.7071 -0.0000 0.7071
vn -0.9659 -0.0000 0.2588
vn -0.9659 -0.0000 -0.2588
vn -0.0000 1.0000 -0.0000
vn -0.7071 -0.0000 -0.7071
vn -0.2588 -0.0000 -0.9659
vn -0.0000 -1.0000 -0.0000
vt 1.000000 1.000000
vt 0.916667 0.500000
vt 1.000000 0.500000
vt 0.916667 1.000000
vt 0.833333 0.500000
vt 0.833333 1.000000
vt 0.750000 0.500000
vt 0.750000 1.000000
vt 0.666667 0.500000
vt 0.666667 1.000000
vt 0.583333 0.500000
vt 0.583333 1.000000
vt 0.500000 0.500000
vt 0.500000 1.000000
vt 0.416667 0.500000
vt 0.416667 1.000000
vt 0.333333 0.500000
vt 0.333333 1.000000
vt 0.250000 0.500000
vt 0.250000 1.000000
vt 0.166667 0.500000
vt 0.042154 0.370000
vt 0.250000 0.010000
vt 0.457846 0.370000
vt 0.166667 1.000000
vt 0.083333 0.500000
vt 0.083333 1.000000
vt 0.000000 0.500000
vt 0.990000 0.250000
vt 0.630000 0.042154
vt 0.630000 0.457846
vt 0.370000 0.457846
vt 0.250000 0.490000
vt 0.130000 0.457846
vt 0.010000 0.250000
vt 0.042154 0.130000
vt 0.130000 0.042154
vt 0.370000 0.042154
vt 0.457846 0.130000
vt 0.490000 0.250000
vt 0.000000 1.000000
vt 0.750000 0.490000
vt 0.870000 0.457846
vt 0.957846 0.370000
vt 0.957846 0.130000
vt 0.870000 0.042154
vt 0.750000 0.010000
vt 0.542154 0.130000
vt 0.510000 0.250000
vt 0.542154 0.370000
s 0
usemtl MM2_BrushedAlum
f 162/261/141 163/262/141 161/263/141
f 164/264/142 165/265/142 163/262/142
f 166/266/143 167/267/143 165/265/143
f 168/268/144 169/269/144 167/267/144
f 170/270/145 171/271/145 169/269/145
f 172/272/146 173/273/146 171/271/146
f 174/274/147 175/275/147 173/273/147
f 176/276/148 177/277/148 175/275/148
f 178/278/149 179/279/149 177/277/149
f 180/280/150 181/281/150 179/279/150
f 182/282/151 174/283/151 166/284/151
f 182/285/152 183/286/152 181/281/152
f 184/287/153 161/288/153 183/286/153
f 167/289/154 175/290/154 183/291/154
f 162/261/141 164/264/141 163/262/141
f 164/264/142 166/266/142 165/265/142
f 166/266/143 168/268/143 167/267/143
f 168/268/144 170/270/144 169/269/144
f 170/270/145 172/272/145 171/271/145
f 172/272/146 174/274/146 173/273/146
f 174/274/147 176/276/147 175/275/147
f 176/276/148 178/278/148 177/277/148
f 178/278/149 180/280/149 179/279/149
f 180/280/150 182/285/150 181/281/150
f 166/284/151 164/292/151 162/293/151
f 162/293/151 184/294/151 182/282/151
f 182/282/151 180/295/151 178/296/151
f 178/296/151 176/297/151 174/283/151
f 174/283/151 172/298/151 170/299/151
f 170/299/151 168/300/151 166/284/151
f 166/284/151 162/293/151 182/282/151
f 182/282/151 178/296/151 174/283/151
f 174/283/151 170/299/151 166/284/151
f 182/285/152 184/287/152 183/286/152
f 184/287/153 162/301/153 161/288/153
f 183/291/154 161/302/154 163/303/154
f 163/303/154 165/304/154 167/289/154
f 167/289/154 169/305/154 171/306/154
f 171/306/154 173/307/154 175/290/154
f 175/290/154 177/308/154 179/309/154
f 179/309/154 181/310/154 183/291/154
f 183/291/154 163/303/154 167/289/154
f 167/289/154 171/306/154 175/290/154
f 175/290/154 179/309/154 183/291/154
o LC_LegB_0.22
v 0.220000 0.000000 -0.198000
v 0.220000 0.420000 -0.198000
v 0.229000 0.000000 -0.195588
v 0.229000 0.420000 -0.195588
v 0.235588 0.000000 -0.189000
v 0.235588 0.420000 -0.189000
v 0.238000 0.000000 -0.180000
v 0.238000 0.420000 -0.180000
v 0.235588 0.000000 -0.171000
v 0.235588 0.420000 -0.171000
v 0.229000 0.000000 -0.164412
v 0.229000 0.420000 -0.164412
v 0.220000 0.000000 -0.162000
v 0.220000 0.420000 -0.162000
v 0.211000 0.000000 -0.164412
v 0.211000 0.420000 -0.164412
v 0.204412 0.000000 -0.171000
v 0.204412 0.420000 -0.171000
v 0.202000 0.000000 -0.180000
v 0.202000 0.420000 -0.180000
v 0.204412 0.000000 -0.189000
v 0.204412 0.420000 -0.189000
v 0.211000 0.000000 -0.195588
v 0.211000 0.420000 -0.195588
vn 0.2588 -0.0000 -0.9659
vn 0.7071 -0.0000 -0.7071
vn 0.9659 -0.0000 -0.2588
vn 0.9659 -0.0000 0.2588
vn 0.7071 -0.0000 0.7071
vn 0.2588 -0.0000 0.9659
vn -0.2588 -0.0000 0.9659
vn -0.7071 -0.0000 0.7071
vn -0.9659 -0.0000 0.2588
vn -0.9659 -0.0000 -0.2588
vn -0.0000 1.0000 -0.0000
vn -0.7071 -0.0000 -0.7071
vn -0.2588 -0.0000 -0.9659
vn -0.0000 -1.0000 -0.0000
vt 1.000000 1.000000
vt 0.916667 0.500000
vt 1.000000 0.500000
vt 0.916667 1.000000
vt 0.833333 0.500000
vt 0.833333 1.000000
vt 0.750000 0.500000
vt 0.750000 1.000000
vt 0.666667 0.500000
vt 0.666667 1.000000
vt 0.583333 0.500000
vt 0.583333 1.000000
vt 0.500000 0.500000
vt 0.500000 1.000000
vt 0.416667 0.500000
vt 0.416667 1.000000
vt 0.333333 0.500000
vt 0.333333 1.000000
vt 0.250000 0.500000
vt 0.250000 1.000000
vt 0.166667 0.500000
vt 0.042154 0.370000
vt 0.250000 0.010000
vt 0.457846 0.370000
vt 0.166667 1.000000
vt 0.083333 0.500000
vt 0.083333 1.000000
vt 0.000000 0.500000
vt 0.990000 0.250000
vt 0.630000 0.042154
vt 0.630000 0.457846
vt 0.370000 0.457846
vt 0.250000 0.490000
vt 0.130000 0.457846
vt 0.010000 0.250000
vt 0.042154 0.130000
vt 0.130000 0.042154
vt 0.370000 0.042154
vt 0.457846 0.130000
vt 0.490000 0.250000
vt 0.000000 1.000000
vt 0.750000 0.490000
vt 0.870000 0.457846
vt 0.957846 0.370000
vt 0.957846 0.130000
vt 0.870000 0.042154
vt 0.750000 0.010000
vt 0.542154 0.130000
vt 0.510000 0.250000
vt 0.542154 0.370000
s 0
usemtl MM2_BrushedAlum
f 186/311/155 187/312/155 185/313/155
f 188/314/156 189/315/156 187/312/156
f 190/316/157 191/317/157 189/315/157
f 192/318/158 193/319/158 191/317/158
f 194/320/159 195/321/159 193/319/159
f 196/322/160 197/323/160 195/321/160
f 198/324/161 199/325/161 197/323/161
f 200/326/162 201/327/162 199/325/162
f 202/328/163 203/329/163 201/327/163
f 204/330/164 205/331/164 203/329/164
f 206/332/165 198/333/165 190/334/165
f 206/335/166 207/336/166 205/331/166
f 208/337/167 185/338/167 207/336/167
f 191/339/168 199/340/168 207/341/168
f 186/311/155 188/314/155 187/312/155
f 188/314/156 190/316/156 189/315/156
f 190/316/157 192/318/157 191/317/157
f 192/318/158 194/320/158 193/319/158
f 194/320/159 196/322/159 195/321/159
f 196/322/160 198/324/160 197/323/160
f 198/324/161 200/326/161 199/325/161
f 200/326/162 202/328/162 201/327/162
f 202/328/163 204/330/163 203/329/163
f 204/330/164 206/335/164 205/331/164
f 190/334/165 188/342/165 186/343/165
f 186/343/165 208/344/165 206/332/165
f 206/332/165 204/345/165 202/346/165
f 202/346/165 200/347/165 198/333/165
f 198/333/165 196/348/165 194/349/165
f 194/349/165 192/350/165 190/334/165
f 190/334/165 186/343/165 206/332/165
f 206/332/165 202/346/165 198/333/165
f 198/333/165 194/349/165 190/334/165
f 206/335/166 208/337/166 207/336/166
f 208/337/167 186/351/167 185/338/167
f 207/341/168 185/352/168 187/353/168
f 187/353/168 189/354/168 191/339/168
f 191/339/168 193/355/168 195/356/168
f 195/356/168 197/357/168 199/340/168
f 199/340/168 201/358/168 203/359/168
f 203/359/168 205/360/168 207/341/168
f 207/341/168 187/353/168 191/339/168
f 191/339/168 195/356/168 199/340/168
f 199/340/168 203/359/168 207/341/168
o LC_Arm_-0.28
v -0.300000 0.560000 0.210000
v -0.300000 0.600000 0.210000
v -0.300000 0.560000 -0.210000
v -0.300000 0.600000 -0.210000
v -0.260000 0.560000 0.210000
v -0.260000 0.600000 0.210000
v -0.260000 0.560000 -0.210000
v -0.260000 0.600000 -0.210000
vn -1.0000 -0.0000 -0.0000
vn -0.0000 -0.0000 -1.0000
vn 1.0000 -0.0000 -0.0000
vn -0.0000 -0.0000 1.0000
vn -0.0000 -1.0000 -0.0000
vn -0.0000 1.0000 -0.0000
vt 0.625000 0.000000
vt 0.375000 0.250000
vt 0.375000 0.000000
vt 0.625000 0.250000
vt 0.375000 0.500000
vt 0.625000 0.500000
vt 0.375000 0.750000
vt 0.625000 0.750000
vt 0.375000 1.000000
vt 0.125000 0.750000
vt 0.125000 0.500000
vt 0.875000 0.500000
vt 0.625000 1.000000
vt 0.875000 0.750000
s 0
usemtl MM2_BrushedAlum
f 210/361/169 211/362/169 209/363/169
f 212/364/170 215/365/170 211/362/170
f 216/366/171 213/367/171 215/365/171
f 214/368/172 209/369/172 213/367/172
f 215/365/173 209/370/173 211/371/173
f 212/372/174 214/368/174 216/366/174
f 210/361/169 212/364/169 211/362/169
f 212/364/170 216/366/170 215/365/170
f 216/366/171 214/368/171 213/367/171
f 214/368/172 210/373/172 209/369/172
f 215/365/173 213/367/173 209/370/173
f 212/372/174 210/374/174 214/368/174
o LC_Arm_0.28
v 0.260000 0.560000 0.210000
v 0.260000 0.600000 0.210000
v 0.260000 0.560000 -0.210000
v 0.260000 0.600000 -0.210000
v 0.300000 0.560000 0.210000
v 0.300000 0.600000 0.210000
v 0.300000 0.560000 -0.210000
v 0.300000 0.600000 -0.210000
vn -1.0000 -0.0000 -0.0000
vn -0.0000 -0.0000 -1.0000
vn 1.0000 -0.0000 -0.0000
vn -0.0000 -0.0000 1.0000
vn -0.0000 -1.0000 -0.0000
vn -0.0000 1.0000 -0.0000
vt 0.625000 0.000000
vt 0.375000 0.250000
vt 0.375000 0.000000
vt 0.625000 0.250000
vt 0.375000 0.500000
vt 0.625000 0.500000
vt 0.375000 0.750000
vt 0.625000 0.750000
vt 0.375000 1.000000
vt 0.125000 0.750000
vt 0.125000 0.500000
vt 0.875000 0.500000
vt 0.625000 1.000000
vt 0.875000 0.750000
s 0
usemtl MM2_BrushedAlum
f 218/375/175 219/376/175 217/377/175
f 220/378/176 223/379/176 219/376/176
f 224/380/177 221/381/177 223/379/177
f 222/382/178 217/383/178 221/381/178
f 223/379/179 217/384/179 219/385/179
f 220/386/180 222/382/180 224/380/180
f 218/375/175 220/378/175 219/376/175
f 220/378/176 224/380/176 223/379/176
f 224/380/177 222/382/177 221/381/177
f 222/382/178 218/387/178 217/383/178
f 223/379/179 221/381/179 217/384/179
f 220/386/180 218/388/180 222/382/180
