# Blender 4.2.8 LTS
# www.blender.org
mtllib hm_bank_stanchion_v2.mtl
o ST_Base
v 0.000000 0.000000 -0.160000
v 0.000000 0.040000 -0.160000
v 0.041411 0.000000 -0.154548
v 0.041411 0.040000 -0.154548
v 0.080000 0.000000 -0.138564
v 0.080000 0.040000 -0.138564
v 0.113137 0.000000 -0.113137
v 0.113137 0.040000 -0.113137
v 0.138564 0.000000 -0.080000
v 0.138564 0.040000 -0.080000
v 0.154548 0.000000 -0.041411
v 0.154548 0.040000 -0.041411
v 0.160000 0.000000 0.000000
v 0.160000 0.040000 0.000000
v 0.154548 0.000000 0.041411
v 0.154548 0.040000 0.041411
v 0.138564 0.000000 0.080000
v 0.138564 0.040000 0.080000
v 0.113137 0.000000 0.113137
v 0.113137 0.040000 0.113137
v 0.080000 0.000000 0.138564
v 0.080000 0.040000 0.138564
v 0.041411 0.000000 0.154548
v 0.041411 0.040000 0.154548
v 0.000000 0.000000 0.160000
v 0.000000 0.040000 0.160000
v -0.041411 0.000000 0.154548
v -0.041411 0.040000 0.154548
v -0.080000 0.000000 0.138564
v -0.080000 0.040000 0.138564
v -0.113137 0.000000 0.113137
v -0.113137 0.040000 0.113137
v -0.138564 0.000000 0.080000
v -0.138564 0.040000 0.080000
v -0.154548 0.000000 0.041411
v -0.154548 0.040000 0.041411
v -0.160000 0.000000 0.000000
v -0.160000 0.040000 0.000000
v -0.154548 0.000000 -0.041411
v -0.154548 0.040000 -0.041411
v -0.138564 0.000000 -0.080000
v -0.138564 0.040000 -0.080000
v -0.113137 0.000000 -0.113137
v -0.113137 0.040000 -0.113137
v -0.080000 0.000000 -0.138564
v -0.080000 0.040000 -0.138564
v -0.041411 0.000000 -0.154548
v -0.041411 0.040000 -0.154548
vn 0.1305 -0.0000 -0.9914
vn 0.3827 -0.0000 -0.9239
vn 0.6088 -0.0000 -0.7934
vn 0.7934 -0.0000 -0.6088
vn 0.9239 -0.0000 -0.3827
vn 0.9914 -0.0000 -0.1305
vn 0.9914 -0.0000 0.1305
vn 0.9239 -0.0000 0.3827
vn 0.7934 -0.0000 0.6088
vn 0.6088 -0.0000 0.7934
vn 0.3827 -0.0000 0.9239
vn 0.1305 -0.0000 0.9914
vn -0.1305 -0.0000 0.9914
vn -0.3827 -0.0000 0.9239
vn -0.6088 -0.0000 0.7934
vn -0.7934 -0.0000 0.6088
vn -0.9239 -0.0000 0.3827
vn -0.9914 -0.0000 0.1305
vn -0.9914 -0.0000 -0.1305
vn -0.9239 -0.0000 -0.3827
vn -0.7934 -0.0000 -0.6088
vn -0.6088 -0.0000 -0.7934
vn -0.0000 1.0000 -0.0000
vn -0.3827 -0.0000 -0.9239
vn -0.1305 -0.0000 -0.9914
vn -0.0000 -1.0000 -0.0000
vt 1.000000 1.000000
vt 0.958333 0.500000
vt 1.000000 0.500000
vt 0.958333 1.000000
vt 0.916667 0.500000
vt 0.916667 1.000000
vt 0.875000 0.500000
vt 0.875000 1.000000
vt 0.833333 0.500000
vt 0.833333 1.000000
vt 0.791667 0.500000
vt 0.791667 1.000000
vt 0.750000 0.500000
vt 0.750000 1.000000
vt 0.708333 0.500000
vt 0.708333 1.000000
vt 0.666667 0.500000
vt 0.666667 1.000000
vt 0.625000 0.500000
vt 0.625000 1.000000
vt 0.583333 0.500000
vt 0.583333 1.000000
vt 0.541666 0.500000
vt 0.541666 1.000000
vt 0.500000 0.500000
vt 0.500000 1.000000
vt 0.458333 0.500000
vt 0.458333 1.000000
vt 0.416666 0.500000
vt 0.416666 1.000000
vt 0.375000 0.500000
vt 0.375000 1.000000
vt 0.333333 0.500000
vt 0.333333 1.000000
vt 0.291667 0.500000
vt 0.291667 1.000000
vt 0.250000 0.500000
vt 0.250000 1.000000
vt 0.208333 0.500000
vt 0.208333 1.000000
vt 0.166666 0.500000
vt 0.166666 1.000000
vt 0.125000 0.500000
vt 0.125000 1.000000
vt 0.083333 0.500000
vt 0.010000 0.250000
vt 0.370000 0.042154
vt 0.370000 0.457846
vt 0.083333 1.000000
vt 0.041666 0.500000
vt 0.041666 1.000000
vt -0.000000 0.500000
vt 0.981822 0.187883
vt 0.580294 0.080294
vt 0.687883 0.481822
vt 0.312117 0.481822
vt 0.250000 0.490000
vt 0.187883 0.481822
vt 0.130000 0.457846
vt 0.080294 0.419706
vt 0.042154 0.370000
vt 0.018178 0.312117
vt 0.018178 0.187883
vt 0.042154 0.130000
vt 0.080294 0.080294
vt 0.130000 0.042154
vt 0.187883 0.018178
vt 0.250000 0.010000
vt 0.312117 0.018178
vt 0.419706 0.080294
vt 0.457846 0.130000
vt 0.481822 0.187883
vt 0.490000 0.250000
vt 0.481822 0.312117
vt 0.457846 0.370000
vt 0.419706 0.419706
vt -0.000000 1.000000
vt 0.750000 0.490000
vt 0.812117 0.481822
vt 0.870000 0.457846
vt 0.919706 0.419706
vt 0.957846 0.370000
vt 0.981822 0.312117
vt 0.990000 0.250000
vt 0.957846 0.130000
vt 0.919706 0.080294
vt 0.870000 0.042154
vt 0.812117 0.018178
vt 0.750000 0.010000
vt 0.687883 0.018178
vt 0.630000 0.042154
vt 0.542154 0.130000
vt 0.518178 0.187883
vt 0.510000 0.250000
vt 0.518178 0.312117
vt 0.542154 0.370000
vt 0.580294 0.419706
vt 0.630000 0.457846
s 0
usemtl MM2_GraphiteSteel
f 2/1/1 3/2/1 1/3/1
f 4/4/2 5/5/2 3/2/2
f 6/6/3 7/7/3 5/5/3
f 8/8/4 9/9/4 7/7/4
f 10/10/5 11/11/5 9/9/5
f 12/12/6 13/13/6 11/11/6
f 14/14/7 15/15/7 13/13/7
f 16/16/8 17/17/8 15/15/8
f 18/18/9 19/19/9 17/17/9
f 20/20/10 21/21/10 19/19/10
f 22/22/11 23/23/11 21/21/11
f 24/24/12 25/25/12 23/23/12
f 26/26/13 27/27/13 25/25/13
f 28/28/14 29/29/14 27/27/14
f 30/30/15 31/31/15 29/29/15
f 32/32/16 33/33/16 31/31/16
f 34/34/17 35/35/17 33/33/17
f 36/36/18 37/37/18 35/35/18
f 38/38/19 39/39/19 37/37/19
f 40/40/20 41/41/20 39/39/20
f 42/42/21 43/43/21 41/41/21
f 44/44/22 45/45/22 43/43/22
f 38/46/23 22/47/23 6/48/23
f 46/49/24 47/50/24 45/45/24
f 48/51/25 1/52/25 47/50/25
f 15/53/26 31/54/26 47/55/26
f 2/1/1 4/4/1 3/2/1
f 4/4/2 6/6/2 5/5/2
f 6/6/3 8/8/3 7/7/3
f 8/8/4 10/10/4 9/9/4
f 10/10/5 12/12/5 11/11/5
f 12/12/6 14/14/6 13/13/6
f 14/14/7 16/16/7 15/15/7
f 16/16/8 18/18/8 17/17/8
f 18/18/9 20/20/9 19/19/9
f 20/20/10 22/22/10 21/21/10
f 22/22/11 24/24/11 23/23/11
f 24/24/12 26/26/12 25/25/12
f 26/26/13 28/28/13 27/27/13
f 28/28/14 30/30/14 29/29/14
f 30/30/15 32/32/15 31/31/15
f 32/32/16 34/34/16 33/33/16
f 34/34/17 36/36/17 35/35/17
f 36/36/18 38/38/18 37/37/18
f 38/38/19 40/40/19 39/39/19
f 40/40/20 42/42/20 41/41/20
f 42/42/21 44/44/21 43/43/21
f 44/44/22 46/49/22 45/45/22
f 6/48/23 4/56/23 2/57/23
f 2/57/23 48/58/23 46/59/23
f 46/59/23 44/60/23 42/61/23
f 42/61/23 40/62/23 38/46/23
f 38/46/23 36/63/23 34/64/23
f 34/64/23 32/65/23 30/66/23
f 30/66/23 28/67/23 26/68/23
f 26/68/23 24/69/23 22/47/23
f 22/47/23 20/70/23 18/71/23
f 18/71/23 16/72/23 14/73/23
f 14/73/23 12/74/23 10/75/23
f 10/75/23 8/76/23 6/48/23
f 6/48/23 2/57/23 46/59/23
f 46/59/23 42/61/23 38/46/23
f 38/46/23 34/64/23 30/66/23
f 30/66/23 26/68/23 22/47/23
f 22/47/23 18/71/23 14/73/23
f 14/73/23 10/75/23 6/48/23
f 6/48/23 46/59/23 38/46/23
f 38/46/23 30/66/23 22/47/23
f 22/47/23 14/73/23 6/48/23
f 46/49/24 48/51/24 47/50/24
f 48/51/25 2/77/25 1/52/25
f 47/55/26 1/78/26 3/79/26
f 3/79/26 5/80/26 7/81/26
f 7/81/26 9/82/26 11/83/26
f 11/83/26 13/84/26 15/53/26
f 15/53/26 17/85/26 19/86/26
f 19/86/26 21/87/26 23/88/26
f 23/88/26 25/89/26 27/90/26
f 27/90/26 29/91/26 31/54/26
f 31/54/26 33/92/26 35/93/26
f 35/93/26 37/94/26 39/95/26
f 39/95/26 41/96/26 43/97/26
f 43/97/26 45/98/26 47/55/26
f 47/55/26 3/79/26 7/81/26
f 7/81/26 11/83/26 15/53/26
f 15/53/26 19/86/26 23/88/26
f 23/88/26 27/90/26 31/54/26
f 31/54/26 35/93/26 39/95/26
f 39/95/26 43/97/26 47/55/26
f 47/55/26 7/81/26 15/53/26
f 15/53/26 23/88/26 31/54/26
f 31/54/26 39/95/26 47/55/26
o ST_Pole
v 0.000000 0.025000 -0.028000
v 0.000000 0.975000 -0.028000
v 0.010715 0.025000 -0.025869
v 0.010715 0.975000 -0.025869
v 0.019799 0.025000 -0.019799
v 0.019799 0.975000 -0.019799
v 0.025869 0.025000 -0.010715
v 0.025869 0.975000 -0.010715
v 0.028000 0.025000 0.000000
v 0.028000 0.975000 0.000000
v 0.025869 0.025000 0.010715
v 0.025869 0.975000 0.010715
v 0.019799 0.025000 0.019799
v 0.019799 0.975000 0.019799
v 0.010715 0.025000 0.025869
v 0.010715 0.975000 0.025869
v 0.000000 0.025000 0.028000
v 0.000000 0.975000 0.028000
v -0.010715 0.025000 0.025869
v -0.010715 0.975000 0.025869
v -0.019799 0.025000 0.019799
v -0.019799 0.975000 0.019799
v -0.025869 0.025000 0.010715
v -0.025869 0.975000 0.010715
v -0.028000 0.025000 0.000000
v -0.028000 0.975000 0.000000
v -0.025869 0.025000 -0.010715
v -0.025869 0.975000 -0.010715
v -0.019799 0.025000 -0.019799
v -0.019799 0.975000 -0.019799
v -0.010715 0.025000 -0.025869
v -0.010715 0.975000 -0.025869
vn -0.0000 -0.6657 -0.7462
vn -0.0000 0.6657 -0.7462
vn 0.2856 -0.6657 -0.6894
vn 0.2856 0.6657 -0.6894
vn 0.5276 -0.6657 -0.5276
vn 0.5277 0.6657 -0.5276
vn 0.6894 -0.6657 -0.2856
vn 0.6894 0.6657 -0.2856
vn 0.7462 -0.6657 -0.0000
vn 0.7462 0.6657 -0.0000
vn 0.6894 -0.6657 0.2856
vn 0.6894 0.6657 0.2856
vn 0.5276 -0.6657 0.5276
vn 0.5277 0.6657 0.5277
vn 0.2856 -0.6657 0.6894
vn 0.2856 0.6657 0.6894
vn -0.0000 -0.6657 0.7462
vn -0.0000 0.6657 0.7462
vn -0.2856 -0.6657 0.6894
vn -0.2856 0.6657 0.6894
vn -0.5276 -0.6657 0.5276
vn -0.5277 0.6657 0.5276
vn -0.6894 -0.6657 0.2856
vn -0.6894 0.6657 0.2856
vn -0.7462 -0.6657 -0.0000
vn -0.7462 0.6657 -0.0000
vn -0.6894 -0.6657 -0.2856
vn -0.6894 0.6657 -0.2856
vn -0.5276 -0.6657 -0.5276
vn -0.5277 0.6657 -0.5277
vn -0.2856 -0.6657 -0.6894
vn -0.2856 0.6657 -0.6894
vt 1.000000 1.000000
vt 0.937500 0.500000
vt 1.000000 0.500000
vt 0.937500 1.000000
vt 0.875000 0.500000
vt 0.875000 1.000000
vt 0.812500 0.500000
vt 0.812500 1.000000
vt 0.750000 0.500000
vt 0.750000 1.000000
vt 0.687500 0.500000
vt 0.687500 1.000000
vt 0.625000 0.500000
vt 0.625000 1.000000
vt 0.562500 0.500000
vt 0.562500 1.000000
vt 0.500000 0.500000
vt 0.500000 1.000000
vt 0.437500 0.500000
vt 0.437500 1.000000
vt 0.375000 0.500000
vt 0.375000 1.000000
vt 0.312500 0.500000
vt 0.312500 1.000000
vt 0.250000 0.500000
vt 0.250000 1.000000
vt 0.187500 0.500000
vt 0.187500 1.000000
vt 0.125000 0.500000
vt 0.080294 0.080294
vt 0.419706 0.080294
vt 0.419706 0.419706
vt 0.125000 1.000000
vt 0.062500 0.500000
vt 0.062500 1.000000
vt 0.000000 0.500000
vt 0.841844 0.028269
vt 0.528269 0.158156
vt 0.658156 0.471731
vt 0.341844 0.471731
vt 0.250000 0.490000
vt 0.158156 0.471731
vt 0.080294 0.419706
vt 0.028269 0.341844
vt 0.010000 0.250000
vt 0.028269 0.158156
vt 0.158156 0.028269
vt 0.250000 0.010000
vt 0.341844 0.028269
vt 0.471731 0.158156
vt 0.490000 0.250000
vt 0.471731 0.341844
vt 0.000000 1.000000
vt 0.750000 0.490000
vt 0.841844 0.471731
vt 0.919706 0.419706
vt 0.971731 0.341844
vt 0.990000 0.250000
vt 0.971731 0.158156
vt 0.919706 0.080294
vt 0.750000 0.010000
vt 0.658156 0.028269
vt 0.580294 0.080294
vt 0.510000 0.250000
vt 0.528269 0.341844
vt 0.580294 0.419706
s 1
usemtl MM2_Chrome
f 50/99/28 51/100/29 49/101/27
f 52/102/30 53/103/31 51/100/29
f 54/104/32 55/105/33 53/103/31
f 56/106/34 57/107/35 55/105/33
f 58/108/36 59/109/37 57/107/35
f 60/110/38 61/111/39 59/109/37
f 62/112/40 63/113/41 61/111/39
f 64/114/42 65/115/43 63/113/41
f 66/116/44 67/117/45 65/115/43
f 68/118/46 69/119/47 67/117/45
f 70/120/48 71/121/49 69/119/47
f 72/122/50 73/123/51 71/121/49
f 74/124/52 75/125/53 73/123/51
f 76/126/54 77/127/55 75/125/53
f 70/128/48 62/129/40 54/130/32
f 78/131/56 79/132/57 77/127/55
f 80/133/58 49/134/27 79/132/57
f 63/135/41 71/136/49 79/137/57
f 50/99/28 52/102/30 51/100/29
f 52/102/30 54/104/32 53/103/31
f 54/104/32 56/106/34 55/105/33
f 56/106/34 58/108/36 57/107/35
f 58/108/36 60/110/38 59/109/37
f 60/110/38 62/112/40 61/111/39
f 62/112/40 64/114/42 63/113/41
f 64/114/42 66/116/44 65/115/43
f 66/116/44 68/118/46 67/117/45
f 68/118/46 70/120/48 69/119/47
f 70/120/48 72/122/50 71/121/49
f 72/122/50 74/124/52 73/123/51
f 74/124/52 76/126/54 75/125/53
f 76/126/54 78/131/56 77/127/55
f 54/130/32 52/138/30 50/139/28
f 50/139/28 80/140/58 78/141/56
f 78/141/56 76/142/54 74/143/52
f 74/143/52 72/144/50 70/128/48
f 70/128/48 68/145/46 66/146/44
f 66/146/44 64/147/42 62/129/40
f 62/129/40 60/148/38 58/149/36
f 58/149/36 56/150/34 54/130/32
f 54/130/32 50/139/28 78/141/56
f 78/141/56 74/143/52 70/128/48
f 70/128/48 66/146/44 62/129/40
f 62/129/40 58/149/36 54/130/32
f 54/130/32 78/141/56 70/128/48
f 78/131/56 80/133/58 79/132/57
f 80/133/58 50/151/28 49/134/27
f 79/137/57 49/152/27 51/153/29
f 51/153/29 53/154/31 55/155/33
f 55/155/33 57/156/35 59/157/37
f 59/157/37 61/158/39 63/135/41
f 63/135/41 65/159/43 67/160/45
f 67/160/45 69/161/47 71/136/49
f 71/136/49 73/162/51 75/163/53
f 75/163/53 77/164/55 79/137/57
f 79/137/57 51/153/29 55/155/33
f 55/155/33 59/157/37 63/135/41
f 63/135/41 67/160/45 71/136/49
f 71/136/49 75/163/53 79/137/57
f 79/137/57 55/155/33 63/135/41
o ST_Head
v 0.000000 0.950000 -0.045000
v 0.000000 1.010000 -0.045000
v 0.017221 0.950000 -0.041575
v 0.017221 1.010000 -0.041575
v 0.031820 0.950000 -0.031820
v 0.031820 1.010000 -0.031820
v 0.041575 0.950000 -0.017221
v 0.041575 1.010000 -0.017221
v 0.045000 0.950000 0.000000
v 0.045000 1.010000 0.000000
v 0.041575 0.950000 0.017221
v 0.041575 1.010000 0.017221
v 0.031820 0.950000 0.031820
v 0.031820 1.010000 0.031820
v 0.017221 0.950000 0.041575
v 0.017221 1.010000 0.041575
v 0.000000 0.950000 0.045000
v 0.000000 1.010000 0.045000
v -0.017221 0.950000 0.041575
v -0.017221 1.010000 0.041575
v -0.031820 0.950000 0.031820
v -0.031820 1.010000 0.031820
v -0.041575 0.950000 0.017221
v -0.041575 1.010000 0.017221
v -0.045000 0.950000 0.000000
v -0.045000 1.010000 0.000000
v -0.041575 0.950000 -0.017221
v -0.041575 1.010000 -0.017221
v -0.031820 0.950000 -0.031820
v -0.031820 1.010000 -0.031820
v -0.017221 0.950000 -0.041575
v -0.017221 1.010000 -0.041575
vn 0.1951 -0.0000 -0.9808
vn 0.5556 -0.0000 -0.8315
vn 0.8315 -0.0000 -0.5556
vn 0.9808 -0.0000 -0.1951
vn 0.9808 -0.0000 0.1951
vn 0.8315 -0.0000 0.5556
vn 0.5556 -0.0000 0.8315
vn 0.1951 -0.0000 0.9808
vn -0.1951 -0.0000 0.9808
vn -0.5556 -0.0000 0.8315
vn -0.8315 -0.0000 0.5556
vn -0.9808 -0.0000 0.1951
vn -0.9808 -0.0000 -0.1951
vn -0.8315 -0.0000 -0.5556
vn -0.0000 1.0000 -0.0000
vn -0.5556 -0.0000 -0.8315
vn -0.1951 -0.0000 -0.9808
vn -0.0000 -1.0000 -0.0000
vt 1.000000 1.000000
vt 0.937500 0.500000
vt 1.000000 0.500000
vt 0.937500 1.000000
vt 0.875000 0.500000
vt 0.875000 1.000000
vt 0.812500 0.500000
vt 0.812500 1.000000
vt 0.750000 0.500000
vt 0.750000 1.000000
vt 0.687500 0.500000
vt 0.687500 1.000000
vt 0.625000 0.500000
vt 0.625000 1.000000
vt 0.562500 0.500000
vt 0.562500 1.000000
vt 0.500000 0.500000
vt 0.500000 1.000000
vt 0.437500 0.500000
vt 0.437500 1.000000
vt 0.375000 0.500000
vt 0.375000 1.000000
vt 0.312500 0.500000
vt 0.312500 1.000000
vt 0.250000 0.500000
vt 0.250000 1.000000
vt 0.187500 0.500000
vt 0.187500 1.000000
vt 0.125000 0.500000
vt 0.080294 0.080294
vt 0.419706 0.080294
vt 0.419706 0.419706
vt 0.125000 1.000000
vt 0.062500 0.500000
vt 0.062500 1.000000
vt 0.000000 0.500000
vt 0.841844 0.028269
vt 0.528269 0.158156
vt 0.658156 0.471731
vt 0.341844 0.471731
vt 0.250000 0.490000
vt 0.158156 0.471731
vt 0.080294 0.419706
vt 0.028269 0.341844
vt 0.010000 0.250000
vt 0.028269 0.158156
vt 0.158156 0.028269
vt 0.250000 0.010000
vt 0.341844 0.028269
vt 0.471731 0.158156
vt 0.490000 0.250000
vt 0.471731 0.341844
vt 0.000000 1.000000
vt 0.750000 0.490000
vt 0.841844 0.471731
vt 0.919706 0.419706
vt 0.971731 0.341844
vt 0.990000 0.250000
vt 0.971731 0.158156
vt 0.919706 0.080294
vt 0.750000 0.010000
vt 0.658156 0.028269
vt 0.580294 0.080294
vt 0.510000 0.250000
vt 0.528269 0.341844
vt 0.580294 0.419706
s 0
usemtl MM2_Chrome
f 82/165/59 83/166/59 81/167/59
f 84/168/60 85/169/60 83/166/60
f 86/170/61 87/171/61 85/169/61
f 88/172/62 89/173/62 87/171/62
f 90/174/63 91/175/63 89/173/63
f 92/176/64 93/177/64 91/175/64
f 94/178/65 95/179/65 93/177/65
f 96/180/66 97/181/66 95/179/66
f 98/182/67 99/183/67 97/181/67
f 100/184/68 101/185/68 99/183/68
f 102/186/69 103/187/69 101/185/69
f 104/188/70 105/189/70 103/187/70
f 106/190/71 107/191/71 105/189/71
f 108/192/72 109/193/72 107/191/72
f 102/194/73 94/195/73 86/196/73
f 110/197/74 111/198/74 109/193/74
f 112/199/75 81/200/75 111/198/75
f 95/201/76 103/202/76 111/203/76
f 82/165/59 84/168/59 83/166/59
f 84/168/60 86/170/60 85/169/60
f 86/170/61 88/172/61 87/171/61
f 88/172/62 90/174/62 89/173/62
f 90/174/63 92/176/63 91/175/63
f 92/176/64 94/178/64 93/177/64
f 94/178/65 96/180/65 95/179/65
f 96/180/66 98/182/66 97/181/66
f 98/182/67 100/184/67 99/183/67
f 100/184/68 102/186/68 101/185/68
f 102/186/69 104/188/69 103/187/69
f 104/188/70 106/190/70 105/189/70
f 106/190/71 108/192/71 107/191/71
f 108/192/72 110/197/72 109/193/72
f 86/196/73 84/204/73 82/205/73
f 82/205/73 112/206/73 110/207/73
f 110/207/73 108/208/73 106/209/73
f 106/209/73 104/210/73 102/194/73
f 102/194/73 100/211/73 98/212/73
f 98/212/73 96/213/73 94/195/73
f 94/195/73 92/214/73 90/215/73
f 90/215/73 88/216/73 86/196/73
f 86/196/73 82/205/73 110/207/73
f 110/207/73 106/209/73 102/194/73
f 102/194/73 98/212/73 94/195/73
f 94/195/73 90/215/73 86/196/73
f 86/196/73 110/207/73 102/194/73
f 110/197/74 112/199/74 111/198/74
f 112/199/75 82/217/75 81/200/75
f 111/203/76 81/218/76 83/219/76
f 83/219/76 85/220/76 87/221/76
f 87/221/76 89/222/76 91/223/76
f 91/223/76 93/224/76 95/201/76
f 95/201/76 97/225/76 99/226/76
f 99/226/76 101/227/76 103/202/76
f 103/202/76 105/228/76 107/229/76
f 107/229/76 109/230/76 111/203/76
f 111/203/76 83/219/76 87/221/76
f 87/221/76 91/223/76 95/201/76
f 95/201/76 99/226/76 103/202/76
f 103/202/76 107/229/76 111/203/76
f 111/203/76 87/221/76 95/201/76
o ST_Hook
v 0.050000 0.900000 0.000000
v 0.057071 0.902929 0.000000
v 0.060000 0.910000 0.000000
v 0.057071 0.917071 0.000000
v 0.050000 0.920000 0.000000
v 0.042929 0.917071 0.000000
v 0.040000 0.910000 0.000000
v 0.042929 0.902929 0.000000
v 0.050000 0.903806 -0.019134
v 0.057071 0.906512 -0.018013
v 0.060000 0.913045 -0.015307
v 0.057071 0.919578 -0.012601
v 0.050000 0.922284 -0.011481
v 0.042929 0.919578 -0.012601
v 0.040000 0.913045 -0.015307
v 0.042929 0.906512 -0.018013
v 0.050000 0.914645 -0.035355
v 0.057071 0.916716 -0.033284
v 0.060000 0.921716 -0.028284
v 0.057071 0.926716 -0.023284
v 0.050000 0.928787 -0.021213
v 0.042929 0.926716 -0.023284
v 0.040000 0.921716 -0.028284
v 0.042929 0.916716 -0.033284
v 0.050000 0.930866 -0.046194
v 0.057071 0.931987 -0.043488
v 0.060000 0.934693 -0.036955
v 0.057071 0.937399 -0.030422
v 0.050000 0.938519 -0.027716
v 0.042929 0.937399 -0.030422
v 0.040000 0.934693 -0.036955
v 0.042929 0.931987 -0.043488
v 0.050000 0.950000 -0.050000
v 0.057071 0.950000 -0.047071
v 0.060000 0.950000 -0.040000
v 0.057071 0.950000 -0.032929
v 0.050000 0.950000 -0.030000
v 0.042929 0.950000 -0.032929
v 0.040000 0.950000 -0.040000
v 0.042929 0.950000 -0.047071
v 0.050000 0.969134 -0.046194
v 0.057071 0.968013 -0.043488
v 0.060000 0.965307 -0.036955
v 0.057071 0.962601 -0.030422
v 0.050000 0.961480 -0.027716
v 0.042929 0.962601 -0.030422
v 0.040000 0.965307 -0.036955
v 0.042929 0.968013 -0.043488
v 0.050000 0.985355 -0.035355
v 0.057071 0.983284 -0.033284
v 0.060000 0.978284 -0.028284
v 0.057071 0.973284 -0.023284
v 0.050000 0.971213 -0.021213
v 0.042929 0.973284 -0.023284
v 0.040000 0.978284 -0.028284
v 0.042929 0.983284 -0.033284
v 0.050000 0.996194 -0.019134
v 0.057071 0.993488 -0.018013
v 0.060000 0.986955 -0.015307
v 0.057071 0.980422 -0.012601
v 0.050000 0.977716 -0.011481
v 0.042929 0.980422 -0.012601
v 0.040000 0.986955 -0.015307
v 0.042929 0.993488 -0.018013
v 0.050000 1.000000 -0.000000
v 0.057071 0.997071 -0.000000
v 0.060000 0.990000 -0.000000
v 0.057071 0.982929 -0.000000
v 0.050000 0.980000 -0.000000
v 0.042929 0.982929 -0.000000
v 0.040000 0.990000 -0.000000
v 0.042929 0.997071 -0.000000
v 0.050000 0.996194 0.019134
v 0.057071 0.993488 0.018013
v 0.060000 0.986955 0.015307
v 0.057071 0.980422 0.012601
v 0.050000 0.977716 0.011480
v 0.042929 0.980422 0.012601
v 0.040000 0.986955 0.015307
v 0.042929 0.993488 0.018013
v 0.050000 0.985355 0.035355
v 0.057071 0.983284 0.033284
v 0.060000 0.978284 0.028284
v 0.057071 0.973284 0.023284
v 0.050000 0.971213 0.021213
v 0.042929 0.973284 0.023284
v 0.040000 0.978284 0.028284
v 0.042929 0.983284 0.033284
v 0.050000 0.969134 0.046194
v 0.057071 0.968013 0.043488
v 0.060000 0.965307 0.036955
v 0.057071 0.962601 0.030422
v 0.050000 0.961480 0.027716
v 0.042929 0.962601 0.030422
v 0.040000 0.965307 0.036955
v 0.042929 0.968013 0.043488
v 0.050000 0.950000 0.050000
v 0.057071 0.950000 0.047071
v 0.060000 0.950000 0.040000
v 0.057071 0.950000 0.032929
v 0.050000 0.950000 0.030000
v 0.042929 0.950000 0.032929
v 0.040000 0.950000 0.040000
v 0.042929 0.950000 0.047071
v 0.050000 0.930866 0.046194
v 0.057071 0.931987 0.043488
v 0.060000 0.934693 0.036955
v 0.057071 0.937399 0.030422
v 0.050000 0.938519 0.027716
v 0.042929 0.937399 0.030422
v 0.040000 0.934693 0.036955
v 0.042929 0.931987 0.043488
v 0.050000 0.914645 0.035355
v 0.057071 0.916716 0.033284
v 0.060000 0.921716 0.028284
v 0.057071 0.926716 0.023284
v 0.050000 0.928787 0.021213
v 0.042929 0.926716 0.023284
v 0.040000 0.921716 0.028284
v 0.042929 0.916716 0.033284
v 0.050000 0.903806 0.019134
v 0.057071 0.906512 0.018013
v 0.060000 0.913045 0.015307
v 0.057071 0.919578 0.012601
v 0.050000 0.922284 0.011481
v 0.042929 0.919578 0.012601
v 0.040000 0.913045 0.015307
v 0.042929 0.906512 0.018013
vn 0.3764 -0.9087 -0.1807
vn 0.9212 -0.3816 -0.0759
vn 0.9212 0.3816 0.0759
vn 0.3764 0.9087 0.1807
vn -0.3764 0.9087 0.1807
vn -0.9212 0.3816 0.0759
vn -0.9212 -0.3816 -0.0759
vn -0.3764 -0.9087 -0.1807
vn 0.3764 -0.7703 -0.5147
vn 0.9212 -0.3235 -0.2161
vn 0.9212 0.3235 0.2161
vn 0.3764 0.7703 0.5147
vn -0.3764 0.7703 0.5147
vn -0.9212 0.3235 0.2161
vn -0.9212 -0.3235 -0.2161
vn -0.3764 -0.7703 -0.5147
vn 0.3764 -0.5147 -0.7703
vn 0.9212 -0.2161 -0.3235
vn 0.9212 0.2161 0.3235
vn 0.3764 0.5147 0.7703
vn -0.3764 0.5147 0.7703
vn -0.9212 0.2161 0.3235
vn -0.9212 -0.2161 -0.3235
vn -0.3764 -0.5147 -0.7703
vn 0.3764 -0.1807 -0.9087
vn 0.9212 -0.0759 -0.3816
vn 0.9212 0.0759 0.3816
vn 0.3764 0.1807 0.9087
vn -0.3764 0.1807 0.9087
vn -0.9212 0.0759 0.3816
vn -0.9212 -0.0759 -0.3816
vn -0.3764 -0.1807 -0.9087
vn 0.3764 0.1807 -0.9087
vn 0.9212 0.0759 -0.3816
vn 0.9212 -0.0759 0.3816
vn 0.3764 -0.1807 0.9087
vn -0.3764 -0.1807 0.9087
vn -0.9212 -0.0759 0.3816
vn -0.9212 0.0759 -0.3816
vn -0.3764 0.1807 -0.9087
vn 0.3764 0.5147 -0.7703
vn 0.9212 0.2161 -0.3235
vn 0.9212 -0.2161 0.3235
vn 0.3764 -0.5147 0.7703
vn -0.3764 -0.5147 0.7703
vn -0.9212 -0.2161 0.3235
vn -0.9212 0.2161 -0.3235
vn -0.3764 0.5147 -0.7703
vn 0.3764 0.7703 -0.5147
vn 0.9212 0.3235 -0.2161
vn 0.9212 -0.3235 0.2161
vn 0.3764 -0.7703 0.5147
vn -0.3764 -0.7703 0.5147
vn -0.9212 -0.3235 0.2161
vn -0.9212 0.3235 -0.2161
vn -0.3764 0.7703 -0.5147
vn 0.3764 0.9087 -0.1807
vn 0.9212 0.3816 -0.0759
vn 0.9212 -0.3816 0.0759
vn 0.3764 -0.9087 0.1807
vn -0.3764 -0.9087 0.1807
vn -0.9212 -0.3816 0.0759
vn -0.9212 0.3816 -0.0759
vn -0.3764 0.9087 -0.1807
vt 0.562500 0.500000
vt 0.500000 0.625000
vt 0.500000 0.500000
vt 0.562500 0.625000
vt 0.500000 0.750000
vt 0.562500 0.750000
vt 0.500000 0.875000
vt 0.562500 0.875000
vt 0.500000 1.000000
vt 0.562500 0.000000
vt 0.500000 0.125000
vt 0.500000 0.000000
vt 0.562500 0.125000
vt 0.500000 0.250000
vt 0.562500 0.250000
vt 0.500000 0.375000
vt 0.562500 0.375000
vt 0.625000 0.500000
vt 0.625000 0.750000
vt 0.625000 0.875000
vt 0.562500 1.000000
vt 0.625000 0.000000
vt 0.625000 0.250000
vt 0.687500 0.500000
vt 0.625000 0.625000
vt 0.687500 0.625000
vt 0.687500 0.750000
vt 0.687500 0.875000
vt 0.625000 1.000000
vt 0.687500 0.000000
vt 0.625000 0.125000
vt 0.687500 0.125000
vt 0.687500 0.250000
vt 0.625000 0.375000
vt 0.687500 0.375000
vt 0.750000 0.625000
vt 0.750000 0.750000
vt 0.750000 0.875000
vt 0.687500 1.000000
vt 0.750000 0.125000
vt 0.750000 0.250000
vt 0.750000 0.375000
vt 0.750000 0.500000
vt 0.812500 0.625000
vt 0.812500 0.750000
vt 0.812500 0.875000
vt 0.750000 1.000000
vt 0.750000 0.000000
vt 0.812500 0.125000
vt 0.812500 0.250000
vt 0.812500 0.375000
vt 0.875000 0.500000
vt 0.812500 0.500000
vt 0.875000 0.625000
vt 0.875000 0.750000
vt 0.875000 0.875000
vt 0.812500 1.000000
vt 0.875000 0.000000
vt 0.812500 0.000000
vt 0.875000 0.125000
vt 0.875000 0.250000
vt 0.875000 0.375000
vt 0.937500 0.625000
vt 0.937500 0.750000
vt 0.937500 1.000000
vt 0.875000 1.000000
vt 0.937500 0.000000
vt 0.937500 0.125000
vt 0.937500 0.375000
vt 1.000000 0.500000
vt 0.937500 0.500000
vt 1.000000 0.625000
vt 1.000000 0.750000
vt 0.937500 0.875000
vt 1.000000 0.875000
vt 1.000000 0.000000
vt 1.000000 0.250000
vt 0.937500 0.250000
vt 1.000000 0.375000
vt 0.062500 0.500000
vt 0.000000 0.625000
vt 0.000000 0.500000
vt 0.062500 0.625000
vt 0.000000 0.750000
vt 0.062500 0.750000
vt 0.000000 0.875000
vt 0.062500 1.000000
vt 0.000000 1.000000
vt 0.062500 0.000000
vt 0.000000 0.125000
vt 0.000000 0.000000
vt 0.062500 0.125000
vt 0.000000 0.250000
vt 0.062500 0.250000
vt 0.000000 0.375000
vt 0.062500 0.375000
vt 0.125000 0.500000
vt 0.125000 0.750000
vt 0.062500 0.875000
vt 0.125000 0.875000
vt 0.125000 0.125000
vt 0.125000 0.250000
vt 0.125000 0.375000
vt 0.187500 0.500000
vt 0.125000 0.625000
vt 0.187500 0.625000
vt 0.187500 0.875000
vt 0.125000 1.000000
vt 0.187500 0.000000
vt 0.125000 0.000000
vt 0.187500 0.125000
vt 0.187500 0.250000
vt 0.187500 0.375000
vt 0.250000 0.500000
vt 0.250000 0.625000
vt 0.187500 0.750000
vt 0.250000 0.750000
vt 0.250000 0.875000
vt 0.187500 1.000000
vt 0.250000 0.000000
vt 0.250000 0.125000
vt 0.250000 0.250000
vt 0.312500 0.500000
vt 0.312500 0.625000
vt 0.312500 0.750000
vt 0.312500 0.875000
vt 0.250000 1.000000
vt 0.312500 0.000000
vt 0.312500 0.125000
vt 0.312500 0.250000
vt 0.250000 0.375000
vt 0.312500 0.375000
vt 0.375000 0.625000
vt 0.375000 0.750000
vt 0.375000 1.000000
vt 0.312500 1.000000
vt 0.375000 0.000000
vt 0.375000 0.250000
vt 0.375000 0.375000
vt 0.375000 0.500000
vt 0.437500 0.625000
vt 0.437500 0.750000
vt 0.375000 0.875000
vt 0.437500 0.875000
vt 0.437500 0.000000
vt 0.375000 0.125000
vt 0.437500 0.250000
vt 0.437500 0.500000
vt 0.437500 1.000000
vt 0.437500 0.125000
vt 0.437500 0.375000
vt 1.000000 1.000000
vt 1.000000 0.125000
s 0
usemtl MM2_Chrome
f 121/231/77 114/232/77 113/233/77
f 122/234/78 115/235/78 114/232/78
f 123/236/79 116/237/79 115/235/79
f 124/238/80 117/239/80 116/237/80
f 125/240/81 118/241/81 117/242/81
f 126/243/82 119/244/82 118/241/82
f 127/245/83 120/246/83 119/244/83
f 128/247/84 113/233/84 120/246/84
f 129/248/85 122/234/85 121/231/85
f 122/234/86 131/249/86 123/236/86
f 131/249/87 124/238/87 123/236/87
f 132/250/88 125/251/88 124/238/88
f 133/252/89 126/243/89 125/240/89
f 126/243/90 135/253/90 127/245/90
f 135/253/91 128/247/91 127/245/91
f 128/247/92 129/248/92 121/231/92
f 137/254/93 130/255/93 129/248/93
f 138/256/94 131/249/94 130/255/94
f 139/257/95 132/250/95 131/249/95
f 140/258/96 133/259/96 132/250/96
f 141/260/97 134/261/97 133/252/97
f 142/262/98 135/253/98 134/261/98
f 143/263/99 136/264/99 135/253/99
f 144/265/100 129/248/100 136/264/100
f 137/254/101 146/266/101 138/256/101
f 146/266/102 139/257/102 138/256/102
f 147/267/103 140/258/103 139/257/103
f 148/268/104 141/269/104 140/258/104
f 141/260/105 150/270/105 142/262/105
f 150/270/106 143/263/106 142/262/106
f 151/271/107 144/265/107 143/263/107
f 152/272/108 137/254/108 144/265/108
f 145/273/109 154/274/109 146/266/109
f 154/274/110 147/267/110 146/266/110
f 155/275/111 148/268/111 147/267/111
f 156/276/112 149/277/112 148/268/112
f 149/278/113 158/279/113 150/270/113
f 158/279/114 151/271/114 150/270/114
f 159/280/115 152/272/115 151/271/115
f 160/281/116 145/273/116 152/272/116
f 161/282/117 154/274/117 153/283/117
f 162/284/118 155/275/118 154/274/118
f 163/285/119 156/276/119 155/275/119
f 164/286/120 157/287/120 156/276/120
f 165/288/121 158/279/121 157/289/121
f 166/290/122 159/280/122 158/279/122
f 167/291/123 160/281/123 159/280/123
f 168/292/124 153/283/124 160/281/124
f 161/282/125 170/293/125 162/284/125
f 170/293/126 163/285/126 162/284/126
f 171/294/127 164/286/127 163/285/127
f 164/286/128 173/295/128 165/296/128
f 173/297/129 166/290/129 165/288/129
f 174/298/130 167/291/130 166/290/130
f 167/291/131 176/299/131 168/292/131
f 176/299/132 161/282/132 168/292/132
f 177/300/133 170/293/133 169/301/133
f 178/302/134 171/294/134 170/293/134
f 179/303/135 172/304/135 171/294/135
f 180/305/136 173/295/136 172/304/136
f 181/306/137 174/298/137 173/297/137
f 174/298/138 183/307/138 175/308/138
f 183/307/139 176/299/139 175/308/139
f 184/309/140 169/301/140 176/299/140
f 185/310/80 178/311/80 177/312/80
f 186/313/79 179/314/79 178/311/79
f 187/315/78 180/316/78 179/314/78
f 180/316/77 189/317/77 181/318/77
f 189/319/84 182/320/84 181/321/84
f 190/322/83 183/323/83 182/320/83
f 191/324/82 184/325/82 183/323/82
f 192/326/81 177/312/81 184/325/81
f 193/327/88 186/313/88 185/310/88
f 186/313/87 195/328/87 187/315/87
f 195/328/86 188/329/86 187/315/86
f 196/330/85 189/317/85 188/329/85
f 189/319/92 198/331/92 190/322/92
f 198/331/91 191/324/91 190/322/91
f 199/332/90 192/326/90 191/324/90
f 200/333/89 185/310/89 192/326/89
f 201/334/96 194/335/96 193/327/96
f 202/336/95 195/328/95 194/335/95
f 195/328/94 204/337/94 196/330/94
f 204/337/93 197/338/93 196/330/93
f 205/339/100 198/331/100 197/340/100
f 206/341/99 199/332/99 198/331/99
f 207/342/98 200/333/98 199/332/98
f 208/343/97 193/327/97 200/333/97
f 209/344/104 202/336/104 201/334/104
f 210/345/103 203/346/103 202/336/103
f 211/347/102 204/337/102 203/346/102
f 212/348/101 205/349/101 204/337/101
f 213/350/108 206/341/108 205/339/108
f 214/351/107 207/342/107 206/341/107
f 215/352/106 208/343/106 207/342/106
f 208/343/105 209/344/105 201/334/105
f 217/353/112 210/345/112 209/344/112
f 218/354/111 211/347/111 210/345/111
f 219/355/110 212/348/110 211/347/110
f 220/356/109 213/357/109 212/348/109
f 221/358/116 214/351/116 213/350/116
f 222/359/115 215/352/115 214/351/115
f 223/360/114 216/361/114 215/352/114
f 224/362/113 209/344/113 216/361/113
f 217/353/120 226/363/120 218/354/120
f 226/363/119 219/355/119 218/354/119
f 227/364/118 220/356/118 219/355/118
f 220/356/117 229/365/117 221/366/117
f 229/367/124 222/359/124 221/358/124
f 222/359/123 231/368/123 223/360/123
f 223/360/122 232/369/122 224/362/122
f 224/362/121 225/370/121 217/353/121
f 225/370/128 234/371/128 226/363/128
f 234/371/127 227/364/127 226/363/127
f 235/372/126 228/373/126 227/364/126
f 236/374/125 229/365/125 228/373/125
f 237/375/132 230/376/132 229/367/132
f 230/376/131 239/377/131 231/368/131
f 239/377/130 232/369/130 231/368/130
f 232/369/129 233/378/129 225/370/129
f 113/233/136 234/371/136 233/378/136
f 114/232/135 235/372/135 234/371/135
f 115/235/134 236/374/134 235/372/134
f 116/237/133 237/379/133 236/374/133
f 117/242/140 238/380/140 237/375/140
f 118/241/139 239/377/139 238/380/139
f 239/377/138 120/246/138 240/381/138
f 120/246/137 233/378/137 240/381/137
f 121/231/77 122/234/77 114/232/77
f 122/234/78 123/236/78 115/235/78
f 123/236/79 124/238/79 116/237/79
f 124/238/80 125/251/80 117/239/80
f 125/240/81 126/243/81 118/241/81
f 126/243/82 127/245/82 119/244/82
f 127/245/83 128/247/83 120/246/83
f 128/247/84 121/231/84 113/233/84
f 129/248/85 130/255/85 122/234/85
f 122/234/86 130/255/86 131/249/86
f 131/249/87 132/250/87 124/238/87
f 132/250/88 133/259/88 125/251/88
f 133/252/89 134/261/89 126/243/89
f 126/243/90 134/261/90 135/253/90
f 135/253/91 136/264/91 128/247/91
f 128/247/92 136/264/92 129/248/92
f 137/254/93 138/256/93 130/255/93
f 138/256/94 139/257/94 131/249/94
f 139/257/95 140/258/95 132/250/95
f 140/258/96 141/269/96 133/259/96
f 141/260/97 142/262/97 134/261/97
f 142/262/98 143/263/98 135/253/98
f 143/263/99 144/265/99 136/264/99
f 144/265/100 137/254/100 129/248/100
f 137/254/101 145/273/101 146/266/101
f 146/266/102 147/267/102 139/257/102
f 147/267/103 148/268/103 140/258/103
f 148/268/104 149/277/104 141/269/104
f 141/260/105 149/278/105 150/270/105
f 150/270/106 151/271/106 143/263/106
f 151/271/107 152/272/107 144/265/107
f 152/272/108 145/273/108 137/254/108
f 145/273/109 153/283/109 154/274/109
f 154/274/110 155/275/110 147/267/110
f 155/275/111 156/276/111 148/268/111
f 156/276/112 157/287/112 149/277/112
f 149/278/113 157/289/113 158/279/113
f 158/279/114 159/280/114 151/271/114
f 159/280/115 160/281/115 152/272/115
f 160/281/116 153/283/116 145/273/116
f 161/282/117 162/284/117 154/274/117
f 162/284/118 163/285/118 155/275/118
f 163/285/119 164/286/119 156/276/119
f 164/286/120 165/296/120 157/287/120
f 165/288/121 166/290/121 158/279/121
f 166/290/122 167/291/122 159/280/122
f 167/291/123 168/292/123 160/281/123
f 168/292/124 161/282/124 153/283/124
f 161/282/125 169/301/125 170/293/125
f 170/293/126 171/294/126 163/285/126
f 171/294/127 172/304/127 164/286/127
f 164/286/128 172/304/128 173/295/128
f 173/297/129 174/298/129 166/290/129
f 174/298/130 175/308/130 167/291/130
f 167/291/131 175/308/131 176/299/131
f 176/299/132 169/301/132 161/282/132
f 177/300/133 178/302/133 170/293/133
f 178/302/134 179/303/134 171/294/134
f 179/303/135 180/305/135 172/304/135
f 180/305/136 181/382/136 173/295/136
f 181/306/137 182/383/137 174/298/137
f 174/298/138 182/383/138 183/307/138
f 183/307/139 184/309/139 176/299/139
f 184/309/140 177/300/140 169/301/140
f 185/310/80 186/313/80 178/311/80
f 186/313/79 187/315/79 179/314/79
f 187/315/78 188/329/78 180/316/78
f 180/316/77 188/329/77 189/317/77
f 189/319/84 190/322/84 182/320/84
f 190/322/83 191/324/83 183/323/83
f 191/324/82 192/326/82 184/325/82
f 192/326/81 185/310/81 177/312/81
f 193/327/88 194/335/88 186/313/88
f 186/313/87 194/335/87 195/328/87
f 195/328/86 196/330/86 188/329/86
f 196/330/85 197/338/85 189/317/85
f 189/319/92 197/340/92 198/331/92
f 198/331/91 199/332/91 191/324/91
f 199/332/90 200/333/90 192/326/90
f 200/333/89 193/327/89 185/310/89
f 201/334/96 202/336/96 194/335/96
f 202/336/95 203/346/95 195/328/95
f 195/328/94 203/346/94 204/337/94
f 204/337/93 205/349/93 197/338/93
f 205/339/100 206/341/100 198/331/100
f 206/341/99 207/342/99 199/332/99
f 207/342/98 208/343/98 200/333/98
f 208/343/97 201/334/97 193/327/97
f 209/344/104 210/345/104 202/336/104
f 210/345/103 211/347/103 203/346/103
f 211/347/102 212/348/102 204/337/102
f 212/348/101 213/357/101 205/349/101
f 213/350/108 214/351/108 206/341/108
f 214/351/107 215/352/107 207/342/107
f 215/352/106 216/361/106 208/343/106
f 208/343/105 216/361/105 209/344/105
f 217/353/112 218/354/112 210/345/112
f 218/354/111 219/355/111 211/347/111
f 219/355/110 220/356/110 212/348/110
f 220/356/109 221/366/109 213/357/109
f 221/358/116 222/359/116 214/351/116
f 222/359/115 223/360/115 215/352/115
f 223/360/114 224/362/114 216/361/114
f 224/362/113 217/353/113 209/344/113
f 217/353/120 225/370/120 226/363/120
f 226/363/119 227/364/119 219/355/119
f 227/364/118 228/373/118 220/356/118
f 220/356/117 228/373/117 229/365/117
f 229/367/124 230/376/124 222/359/124
f 222/359/123 230/376/123 231/368/123
f 223/360/122 231/368/122 232/369/122
f 224/362/121 232/369/121 225/370/121
f 225/370/128 233/378/128 234/371/128
f 234/371/127 235/372/127 227/364/127
f 235/372/126 236/374/126 228/373/126
f 236/374/125 237/379/125 229/365/125
f 237/375/132 238/380/132 230/376/132
f 230/376/131 238/380/131 239/377/131
f 239/377/130 240/381/130 232/369/130
f 232/369/129 240/381/129 233/378/129
f 113/233/136 114/232/136 234/371/136
f 114/232/135 115/235/135 235/372/135
f 115/235/134 116/237/134 236/374/134
f 116/237/133 117/239/133 237/379/133
f 117/242/140 118/241/140 238/380/140
f 118/241/139 119/244/139 239/377/139
f 239/377/138 119/244/138 120/246/138
f 120/246/137 113/233/137 233/378/137
o ST_Rope
v 0.000000 0.950000 -0.012000
v 0.900000 0.950000 -0.012000
v 0.000000 0.942947 -0.009708
v 0.900000 0.942947 -0.009708
v 0.000000 0.938587 -0.003708
v 0.900000 0.938587 -0.003708
v 0.000000 0.938587 0.003708
v 0.900000 0.938587 0.003708
v 0.000000 0.942947 0.009708
v 0.900000 0.942947 0.009708
v 0.000000 0.950000 0.012000
v 0.900000 0.950000 0.012000
v 0.000000 0.957053 0.009708
v 0.900000 0.957053 0.009708
v 0.000000 0.961413 0.003708
v 0.900000 0.961413 0.003708
v 0.000000 0.961413 -0.003708
v 0.900000 0.961413 -0.003708
v 0.000000 0.957053 -0.009708
v 0.900000 0.957053 -0.009708
vn -0.0000 -0.3090 -0.9511
vn -0.0000 -0.8090 -0.5878
vn -0.0000 -1.0000 -0.0000
vn -0.0000 -0.8090 0.5878
vn -0.0000 -0.3090 0.9511
vn -0.0000 0.3090 0.9511
vn -0.0000 0.8090 0.5878
vn -0.0000 1.0000 -0.0000
vn 1.0000 -0.0000 -0.0000
vn -0.0000 0.8090 -0.5878
vn -0.0000 0.3090 -0.9511
vn -1.0000 -0.0000 -0.0000
vt 1.000000 1.000000
vt 0.900000 0.500000
vt 1.000000 0.500000
vt 0.900000 1.000000
vt 0.800000 0.500000
vt 0.800000 1.000000
vt 0.700000 0.500000
vt 0.700000 1.000000
vt 0.600000 0.500000
vt 0.600000 1.000000
vt 0.500000 0.500000
vt 0.500000 1.000000
vt 0.400000 0.500000
vt 0.400000 1.000000
vt 0.300000 0.500000
vt 0.300000 1.000000
vt 0.200000 0.500000
vt 0.021746 0.324164
vt 0.391068 0.055836
vt 0.478254 0.324164
vt 0.200000 1.000000
vt 0.100000 0.500000
vt 0.100000 1.000000
vt -0.000000 0.500000
vt 0.978254 0.175836
vt 0.521746 0.175836
vt 0.608932 0.444164
vt 0.391068 0.444164
vt 0.250000 0.490000
vt 0.108932 0.444164
vt 0.021746 0.175836
vt 0.108932 0.055836
vt 0.250000 0.010000
vt 0.478254 0.175836
vt -0.000000 1.000000
vt 0.750000 0.490000
vt 0.891068 0.444164
vt 0.978254 0.324164
vt 0.891068 0.055836
vt 0.750000 0.010000
vt 0.608932 0.055836
vt 0.521746 0.324164
s 0
usemtl MM2_Rope
f 242/384/141 243/385/141 241/386/141
f 244/387/142 245/388/142 243/385/142
f 246/389/143 247/390/143 245/388/143
f 248/391/144 249/392/144 247/390/144
f 250/393/145 251/394/145 249/392/145
f 252/395/146 253/396/146 251/394/146
f 254/397/147 255/398/147 253/396/147
f 256/399/148 257/400/148 255/398/148
f 258/401/149 250/402/149 246/403/149
f 258/404/150 259/405/150 257/400/150
f 260/406/151 241/407/151 259/405/151
f 247/408/152 255/409/152 259/410/152
f 242/384/141 244/387/141 243/385/141
f 244/387/142 246/389/142 245/388/142
f 246/389/143 248/391/143 247/390/143
f 248/391/144 250/393/144 249/392/144
f 250/393/145 252/395/145 251/394/145
f 252/395/146 254/397/146 253/396/146
f 254/397/147 256/399/147 255/398/147
f 256/399/148 258/404/148 257/400/148
f 246/403/149 244/411/149 242/412/149
f 242/412/149 260/413/149 258/401/149
f 258/401/149 256/414/149 254/415/149
f 254/415/149 252/416/149 250/402/149
f 250/402/149 248/417/149 246/403/149
f 246/403/149 242/412/149 258/401/149
f 258/401/149 254/415/149 250/402/149
f 258/404/150 260/406/150 259/405/150
f 260/406/151 242/418/151 241/407/151
f 259/410/152 241/419/152 243/420/152
f 243/420/152 245/421/152 247/408/152
f 247/408/152 249/422/152 251/423/152
f 251/423/152 253/424/152 255/409/152
f 255/409/152 257/425/152 259/410/152
f 259/410/152 243/420/152 247/408/152
f 247/408/152 251/423/152 255/409/152
