# Blender 4.2.8 LTS
# www.blender.org
mtllib hm_prop_drain_grate_v2.mtl
o Drain_Frame
v -0.270000 -0.003000 0.170000
v -0.270000 0.002000 0.175000
v -0.275000 0.002000 0.170000
v -0.270000 0.032000 0.175000
v -0.270000 0.037000 0.170000
v -0.275000 0.032000 0.170000
v -0.270000 -0.003000 -0.170000
v -0.275000 0.002000 -0.170000
v -0.270000 0.002000 -0.175000
v -0.270000 0.037000 -0.170000
v -0.270000 0.032000 -0.175000
v -0.275000 0.032000 -0.170000
v 0.270000 -0.003000 0.170000
v 0.275000 0.002000 0.170000
v 0.270000 0.002000 0.175000
v 0.270000 0.037000 0.170000
v 0.270000 0.032000 0.175000
v 0.275000 0.032000 0.170000
v 0.270000 -0.003000 -0.170000
v 0.270000 0.002000 -0.175000
v 0.275000 0.002000 -0.170000
v 0.270000 0.037000 -0.170000
v 0.275000 0.032000 -0.170000
v 0.270000 0.032000 -0.175000
vn -0.0000 -0.0000 1.0000
vn 1.0000 -0.0000 -0.0000
vn -0.0000 1.0000 -0.0000
vn -1.0000 -0.0000 -0.0000
vn -0.0000 -0.0000 -1.0000
vn -0.5774 -0.5774 0.5773
vn -0.5774 0.5773 0.5773
vn -0.5774 -0.5774 -0.5774
vn -0.5774 0.5773 -0.5774
vn 0.5774 -0.5774 0.5773
vn 0.5774 0.5773 0.5773
vn 0.5774 -0.5774 -0.5774
vn 0.5774 0.5773 -0.5774
vn -0.7071 -0.7071 -0.0000
vn -0.7071 -0.0000 0.7071
vn -0.7071 0.7071 -0.0000
vn -0.7071 -0.0000 -0.7071
vn -0.0000 -0.7071 -0.7071
vn -0.0000 0.7071 -0.7071
vn 0.7071 -0.0000 -0.7071
vn 0.7071 -0.7071 -0.0000
vn 0.7071 0.7071 -0.0000
vn 0.7071 -0.0000 0.7071
vn -0.0000 -0.7071 0.7071
vn -0.0000 0.7071 0.7071
vn -0.0000 -1.0000 -0.0000
vt 0.593750 0.752273
vt 0.406250 0.997727
vt 0.406250 0.752273
vt 0.593750 0.503571
vt 0.406250 0.746429
vt 0.406250 0.503571
vt 0.872727 0.503571
vt 0.627273 0.746429
vt 0.627273 0.503571
vt 0.593750 0.003571
vt 0.406250 0.246429
vt 0.406250 0.003571
vt 0.593750 0.252273
vt 0.406250 0.497727
vt 0.406250 0.252273
vt 0.127273 0.746429
vt 0.127273 0.750000
vt 0.125000 0.746429
vt 0.593750 0.997727
vt 0.625000 0.997727
vt 0.593750 1.000000
vt 0.127273 0.503571
vt 0.125000 0.503571
vt 0.127273 0.500000
vt 0.625000 0.252273
vt 0.593750 0.250000
vt 0.372727 0.746429
vt 0.375000 0.746429
vt 0.372727 0.750000
vt 0.625000 0.752273
vt 0.593750 0.750000
vt 0.372727 0.503571
vt 0.372727 0.500000
vt 0.375000 0.503571
vt 0.625000 0.503571
vt 0.593750 0.500000
vt 0.593750 0.000000
vt 0.406250 0.000000
vt 0.625000 0.246429
vt 0.625000 0.003571
vt 0.593750 0.246429
vt 0.625000 0.497727
vt 0.593750 0.497727
vt 0.593750 0.746429
vt 0.872727 0.746429
s 0
usemtl HM_Grate
f 17/1/1 2/2/1 15/3/1
f 23/4/2 14/5/2 21/6/2
f 10/7/3 16/8/3 22/9/3
f 6/10/4 8/11/4 3/12/4
f 11/13/5 20/14/5 9/15/5
f 1/16/6 2/17/6 3/18/6
f 4/19/7 5/20/7 6/21/7
f 7/22/8 8/23/8 9/24/8
f 10/25/9 11/13/9 12/26/9
f 13/27/10 14/28/10 15/29/10
f 16/30/11 17/1/11 18/31/11
f 19/32/12 20/33/12 21/34/12
f 22/35/13 23/4/13 24/36/13
f 1/16/14 8/23/14 7/22/14
f 4/37/15 3/12/15 2/38/15
f 10/39/16 6/10/16 5/40/16
f 9/15/17 12/41/17 11/13/17
f 7/22/18 20/33/18 19/32/18
f 22/42/19 11/13/19 10/25/19
f 21/6/20 24/43/20 23/4/20
f 19/32/21 14/5/21 13/27/21
f 16/8/22 23/4/22 22/9/22
f 15/3/23 18/44/23 17/1/23
f 13/27/24 2/17/24 1/16/24
f 5/20/25 17/1/25 16/30/25
f 19/32/26 1/16/26 7/22/26
f 17/1/1 4/19/1 2/2/1
f 23/4/2 18/44/2 14/5/2
f 10/7/3 5/45/3 16/8/3
f 6/10/4 12/41/4 8/11/4
f 11/13/5 24/43/5 20/14/5
f 1/16/14 3/18/14 8/23/14
f 4/37/15 6/10/15 3/12/15
f 10/39/16 12/41/16 6/10/16
f 9/15/17 8/11/17 12/41/17
f 7/22/18 9/24/18 20/33/18
f 22/42/19 24/43/19 11/13/19
f 21/6/20 20/14/20 24/43/20
f 19/32/21 21/6/21 14/5/21
f 16/8/22 18/44/22 23/4/22
f 15/3/23 14/5/23 18/44/23
f 13/27/24 15/29/24 2/17/24
f 5/20/25 4/19/25 17/1/25
f 19/32/26 13/27/26 1/16/26
o Drain_Bar_0
v -0.240000 0.012000 0.147500
v -0.240000 0.042000 0.147500
v -0.240000 0.012000 0.122500
v -0.240000 0.042000 0.122500
v 0.240000 0.012000 0.147500
v 0.240000 0.042000 0.147500
v 0.240000 0.012000 0.122500
v 0.240000 0.042000 0.122500
vn -1.0000 -0.0000 -0.0000
vn -0.0000 -0.0000 -1.0000
vn 1.0000 -0.0000 -0.0000
vn -0.0000 -0.0000 1.0000
vn -0.0000 -1.0000 -0.0000
vn -0.0000 1.0000 -0.0000
vt 0.625000 0.000000
vt 0.375000 0.250000
vt 0.375000 0.000000
vt 0.625000 0.250000
vt 0.375000 0.500000
vt 0.625000 0.500000
vt 0.375000 0.750000
vt 0.625000 0.750000
vt 0.375000 1.000000
vt 0.125000 0.750000
vt 0.125000 0.500000
vt 0.875000 0.500000
vt 0.625000 1.000000
vt 0.875000 0.750000
s 0
usemtl HM_Manhole
f 26/46/27 27/47/27 25/48/27
f 28/49/28 31/50/28 27/47/28
f 32/51/29 29/52/29 31/50/29
f 30/53/30 25/54/30 29/52/30
f 31/50/31 25/55/31 27/56/31
f 28/57/32 30/53/32 32/51/32
f 26/46/27 28/49/27 27/47/27
f 28/49/28 32/51/28 31/50/28
f 32/51/29 30/53/29 29/52/29
f 30/53/30 26/58/30 25/54/30
f 31/50/31 29/52/31 25/55/31
f 28/57/32 26/59/32 30/53/32
o Drain_Bar_1
v -0.240000 0.012000 0.102500
v -0.240000 0.042000 0.102500
v -0.240000 0.012000 0.077500
v -0.240000 0.042000 0.077500
v 0.240000 0.012000 0.102500
v 0.240000 0.042000 0.102500
v 0.240000 0.012000 0.077500
v 0.240000 0.042000 0.077500
vn -1.0000 -0.0000 -0.0000
vn -0.0000 -0.0000 -1.0000
vn 1.0000 -0.0000 -0.0000
vn -0.0000 -0.0000 1.0000
vn -0.0000 -1.0000 -0.0000
vn -0.0000 1.0000 -0.0000
vt 0.625000 0.000000
vt 0.375000 0.250000
vt 0.375000 0.000000
vt 0.625000 0.250000
vt 0.375000 0.500000
vt 0.625000 0.500000
vt 0.375000 0.750000
vt 0.625000 0.750000
vt 0.375000 1.000000
vt 0.125000 0.750000
vt 0.125000 0.500000
vt 0.875000 0.500000
vt 0.625000 1.000000
vt 0.875000 0.750000
s 0
usemtl HM_Manhole
f 34/60/33 35/61/33 33/62/33
f 36/63/34 39/64/34 35/61/34
f 40/65/35 37/66/35 39/64/35
f 38/67/36 33/68/36 37/66/36
f 39/64/37 33/69/37 35/70/37
f 36/71/38 38/67/38 40/65/38
f 34/60/33 36/63/33 35/61/33
f 36/63/34 40/65/34 39/64/34
f 40/65/35 38/67/35 37/66/35
f 38/67/36 34/72/36 33/68/36
f 39/64/37 37/66/37 33/69/37
f 36/71/38 34/73/38 38/67/38
o Drain_Bar_2
v -0.240000 0.012000 0.057500
v -0.240000 0.042000 0.057500
v -0.240000 0.012000 0.032500
v -0.240000 0.042000 0.032500
v 0.240000 0.012000 0.057500
v 0.240000 0.042000 0.057500
v 0.240000 0.012000 0.032500
v 0.240000 0.042000 0.032500
vn -1.0000 -0.0000 -0.0000
vn -0.0000 -0.0000 -1.0000
vn 1.0000 -0.0000 -0.0000
vn -0.0000 -0.0000 1.0000
vn -0.0000 -1.0000 -0.0000
vn -0.0000 1.0000 -0.0000
vt 0.625000 0.000000
vt 0.375000 0.250000
vt 0.375000 0.000000
vt 0.625000 0.250000
vt 0.375000 0.500000
vt 0.625000 0.500000
vt 0.375000 0.750000
vt 0.625000 0.750000
vt 0.375000 1.000000
vt 0.125000 0.750000
vt 0.125000 0.500000
vt 0.875000 0.500000
vt 0.625000 1.000000
vt 0.875000 0.750000
s 0
usemtl HM_Manhole
f 42/74/39 43/75/39 41/76/39
f 44/77/40 47/78/40 43/75/40
f 48/79/41 45/80/41 47/78/41
f 46/81/42 41/82/42 45/80/42
f 47/78/43 41/83/43 43/84/43
f 44/85/44 46/81/44 48/79/44
f 42/74/39 44/77/39 43/75/39
f 44/77/40 48/79/40 47/78/40
f 48/79/41 46/81/41 45/80/41
f 46/81/42 42/86/42 41/82/42
f 47/78/43 45/80/43 41/83/43
f 44/85/44 42/87/44 46/81/44
o Drain_Bar_3
v -0.240000 0.012000 0.012500
v -0.240000 0.042000 0.012500
v -0.240000 0.012000 -0.012500
v -0.240000 0.042000 -0.012500
v 0.240000 0.012000 0.012500
v 0.240000 0.042000 0.012500
v 0.240000 0.012000 -0.012500
v 0.240000 0.042000 -0.012500
vn -1.0000 -0.0000 -0.0000
vn -0.0000 -0.0000 -1.0000
vn 1.0000 -0.0000 -0.0000
vn -0.0000 -0.0000 1.0000
vn -0.0000 -1.0000 -0.0000
vn -0.0000 1.0000 -0.0000
vt 0.625000 0.000000
vt 0.375000 0.250000
vt 0.375000 0.000000
vt 0.625000 0.250000
vt 0.375000 0.500000
vt 0.625000 0.500000
vt 0.375000 0.750000
vt 0.625000 0.750000
vt 0.375000 1.000000
vt 0.125000 0.750000
vt 0.125000 0.500000
vt 0.875000 0.500000
vt 0.625000 1.000000
vt 0.875000 0.750000
s 0
usemtl HM_Manhole
f 50/88/45 51/89/45 49/90/45
f 52/91/46 55/92/46 51/89/46
f 56/93/47 53/94/47 55/92/47
f 54/95/48 49/96/48 53/94/48
f 55/92/49 49/97/49 51/98/49
f 52/99/50 54/95/50 56/93/50
f 50/88/45 52/91/45 51/89/45
f 52/91/46 56/93/46 55/92/46
f 56/93/47 54/95/47 53/94/47
f 54/95/48 50/100/48 49/96/48
f 55/92/49 53/94/49 49/97/49
f 52/99/50 50/101/50 54/95/50
o Drain_Bar_4
v -0.240000 0.012000 -0.032500
v -0.240000 0.042000 -0.032500
v -0.240000 0.012000 -0.057500
v -0.240000 0.042000 -0.057500
v 0.240000 0.012000 -0.032500
v 0.240000 0.042000 -0.032500
v 0.240000 0.012000 -0.057500
v 0.240000 0.042000 -0.057500
vn -1.0000 -0.0000 -0.0000
vn -0.0000 -0.0000 -1.0000
vn 1.0000 -0.0000 -0.0000
vn -0.0000 -0.0000 1.0000
vn -0.0000 -1.0000 -0.0000
vn -0.0000 1.0000 -0.0000
vt 0.625000 0.000000
vt 0.375000 0.250000
vt 0.375000 0.000000
vt 0.625000 0.250000
vt 0.375000 0.500000
vt 0.625000 0.500000
vt 0.375000 0.750000
vt 0.625000 0.750000
vt 0.375000 1.000000
vt 0.125000 0.750000
vt 0.125000 0.500000
vt 0.875000 0.500000
vt 0.625000 1.000000
vt 0.875000 0.750000
s 0
usemtl HM_Manhole
f 58/102/51 59/103/51 57/104/51
f 60/105/52 63/106/52 59/103/52
f 64/107/53 61/108/53 63/106/53
f 62/109/54 57/110/54 61/108/54
f 63/106/55 57/111/55 59/112/55
f 60/113/56 62/109/56 64/107/56
f 58/102/51 60/105/51 59/103/51
f 60/105/52 64/107/52 63/106/52
f 64/107/53 62/109/53 61/108/53
f 62/109/54 58/114/54 57/110/54
f 63/106/55 61/108/55 57/111/55
f 60/113/56 58/115/56 62/109/56
o Drain_Bar_5
v -0.240000 0.012000 -0.077500
v -0.240000 0.042000 -0.077500
v -0.240000 0.012000 -0.102500
v -0.240000 0.042000 -0.102500
v 0.240000 0.012000 -0.077500
v 0.240000 0.042000 -0.077500
v 0.240000 0.012000 -0.102500
v 0.240000 0.042000 -0.102500
vn -1.0000 -0.0000 -0.0000
vn -0.0000 -0.0000 -1.0000
vn 1.0000 -0.0000 -0.0000
vn -0.0000 -0.0000 1.0000
vn -0.0000 -1.0000 -0.0000
vn -0.0000 1.0000 -0.0000
vt 0.625000 0.000000
vt 0.375000 0.250000
vt 0.375000 0.000000
vt 0.625000 0.250000
vt 0.375000 0.500000
vt 0.625000 0.500000
vt 0.375000 0.750000
vt 0.625000 0.750000
vt 0.375000 1.000000
vt 0.125000 0.750000
vt 0.125000 0.500000
vt 0.875000 0.500000
vt 0.625000 1.000000
vt 0.875000 0.750000
s 0
usemtl HM_Manhole
f 66/116/57 67/117/57 65/118/57
f 68/119/58 71/120/58 67/117/58
f 72/121/59 69/122/59 71/120/59
f 70/123/60 65/124/60 69/122/60
f 71/120/61 65/125/61 67/126/61
f 68/127/62 70/123/62 72/121/62
f 66/116/57 68/119/57 67/117/57
f 68/119/58 72/121/58 71/120/58
f 72/121/59 70/123/59 69/122/59
f 70/123/60 66/128/60 65/124/60
f 71/120/61 69/122/61 65/125/61
f 68/127/62 66/129/62 70/123/62
o Drain_Bar_6
v -0.240000 0.012000 -0.122500
v -0.240000 0.042000 -0.122500
v -0.240000 0.012000 -0.147500
v -0.240000 0.042000 -0.147500
v 0.240000 0.012000 -0.122500
v 0.240000 0.042000 -0.122500
v 0.240000 0.012000 -0.147500
v 0.240000 0.042000 -0.147500
vn -1.0000 -0.0000 -0.0000
vn -0.0000 -0.0000 -1.0000
vn 1.0000 -0.0000 -0.0000
vn -0.0000 -0.0000 1.0000
vn -0.0000 -1.0000 -0.0000
vn -0.0000 1.0000 -0.0000
vt 0.625000 0.000000
vt 0.375000 0.250000
vt 0.375000 0.000000
vt 0.625000 0.250000
vt 0.375000 0.500000
vt 0.625000 0.500000
vt 0.375000 0.750000
vt 0.625000 0.750000
vt 0.375000 1.000000
vt 0.125000 0.750000
vt 0.125000 0.500000
vt 0.875000 0.500000
vt 0.625000 1.000000
vt 0.875000 0.750000
s 0
usemtl HM_Manhole
f 74/130/63 75/131/63 73/132/63
f 76/133/64 79/134/64 75/131/64
f 80/135/65 77/136/65 79/134/65
f 78/137/66 73/138/66 77/136/66
f 79/134/67 73/139/67 75/140/67
f 76/141/68 78/137/68 80/135/68
f 74/130/63 76/133/63 75/131/63
f 76/133/64 80/135/64 79/134/64
f 80/135/65 78/137/65 77/136/65
f 78/137/66 74/142/66 73/138/66
f 79/134/67 77/136/67 73/139/67
f 76/141/68 74/143/68 78/137/68
o hm_prop_drain_grate_v2_Shadow
v -0.345000 -0.007000 0.230000
v -0.345000 -0.003000 0.230000
v -0.345000 -0.007000 -0.230000
v -0.345000 -0.003000 -0.230000
v 0.345000 -0.007000 0.230000
v 0.345000 -0.003000 0.230000
v 0.345000 -0.007000 -0.230000
v 0.345000 -0.003000 -0.230000
vn -1.0000 -0.0000 -0.0000
vn -0.0000 -0.0000 -1.0000
vn 1.0000 -0.0000 -0.0000
vn -0.0000 -0.0000 1.0000
vn -0.0000 -1.0000 -0.0000
vn -0.0000 1.0000 -0.0000
vt 0.625000 0.000000
vt 0.375000 0.250000
vt 0.375000 0.000000
vt 0.625000 0.250000
vt 0.375000 0.500000
vt 0.625000 0.500000
vt 0.375000 0.750000
vt 0.625000 0.750000
vt 0.375000 1.000000
vt 0.125000 0.750000
vt 0.125000 0.500000
vt 0.875000 0.500000
vt 0.625000 1.000000
vt 0.875000 0.750000
s 0
usemtl HM_ShadowCard
f 82/144/69 83/145/69 81/146/69
f 84/147/70 87/148/70 83/145/70
f 88/149/71 85/150/71 87/148/71
f 86/151/72 81/152/72 85/150/72
f 87/148/73 81/153/73 83/154/73
f 84/155/74 86/151/74 88/149/74
f 82/144/69 84/147/69 83/145/69
f 84/147/70 88/149/70 87/148/70
f 88/149/71 86/151/71 85/150/71
f 86/151/72 82/156/72 81/152/72
f 87/148/73 85/150/73 81/153/73
f 84/155/74 82/157/74 86/151/74
o hm_prop_drain_grate_v2_Dirt
v -0.315000 -0.006000 0.210000
v -0.315000 0.000000 0.210000
v -0.315000 -0.006000 -0.210000
v -0.315000 0.000000 -0.210000
v 0.315000 -0.006000 0.210000
v 0.315000 0.000000 0.210000
v 0.315000 -0.006000 -0.210000
v 0.315000 0.000000 -0.210000
vn -1.0000 -0.0000 -0.0000
vn -0.0000 -0.0000 -1.0000
vn 1.0000 -0.0000 -0.0000
vn -0.0000 -0.0000 1.0000
vn -0.0000 -1.0000 -0.0000
vn -0.0000 1.0000 -0.0000
vt 0.625000 0.000000
vt 0.375000 0.250000
vt 0.375000 0.000000
vt 0.625000 0.250000
vt 0.375000 0.500000
vt 0.625000 0.500000
vt 0.375000 0.750000
vt 0.625000 0.750000
vt 0.375000 1.000000
vt 0.125000 0.750000
vt 0.125000 0.500000
vt 0.875000 0.500000
vt 0.625000 1.000000
vt 0.875000 0.750000
s 0
usemtl HM_DirtHalo
f 90/158/75 91/159/75 89/160/75
f 92/161/76 95/162/76 91/159/76
f 96/163/77 93/164/77 95/162/77
f 94/165/78 89/166/78 93/164/78
f 95/162/79 89/167/79 91/168/79
f 92/169/80 94/165/80 96/163/80
f 90/158/75 92/161/75 91/159/75
f 92/161/76 96/163/76 95/162/76
f 96/163/77 94/165/77 93/164/77
f 94/165/78 90/170/78 89/166/78
f 95/162/79 93/164/79 89/167/79
f 92/169/80 90/171/80 94/165/80
o hm_prop_drain_grate_v2_SaltRing
v -0.336000 -0.006000 0.224000
v -0.336000 -0.002000 0.224000
v -0.336000 -0.006000 -0.224000
v -0.336000 -0.002000 -0.224000
v 0.336000 -0.006000 0.224000
v 0.336000 -0.002000 0.224000
v 0.336000 -0.006000 -0.224000
v 0.336000 -0.002000 -0.224000
vn -1.0000 -0.0000 -0.0000
vn -0.0000 -0.0000 -1.0000
vn 1.0000 -0.0000 -0.0000
vn -0.0000 -0.0000 1.0000
vn -0.0000 -1.0000 -0.0000
vn -0.0000 1.0000 -0.0000
vt 0.625000 0.000000
vt 0.375000 0.250000
vt 0.375000 0.000000
vt 0.625000 0.250000
vt 0.375000 0.500000
vt 0.625000 0.500000
vt 0.375000 0.750000
vt 0.625000 0.750000
vt 0.375000 1.000000
vt 0.125000 0.750000
vt 0.125000 0.500000
vt 0.875000 0.500000
vt 0.625000 1.000000
vt 0.875000 0.750000
s 0
usemtl HM_Salt
f 98/172/81 99/173/81 97/174/81
f 100/175/82 103/176/82 99/173/82
f 104/177/83 101/178/83 103/176/83
f 102/179/84 97/180/84 101/178/84
f 103/176/85 97/181/85 99/182/85
f 100/183/86 102/179/86 104/177/86
f 98/172/81 100/175/81 99/173/81
f 100/175/82 104/177/82 103/176/82
f 104/177/83 102/179/83 101/178/83
f 102/179/84 98/184/84 97/180/84
f 103/176/85 101/178/85 97/181/85
f 100/183/86 98/185/86 102/179/86
o hm_prop_drain_grate_v2_Scuff_0
v 0.135000 -0.003500 0.184000
v 0.135000 -0.000500 0.184000
v 0.135000 -0.003500 0.136000
v 0.135000 -0.000500 0.136000
v 0.285000 -0.003500 0.184000
v 0.285000 -0.000500 0.184000
v 0.285000 -0.003500 0.136000
v 0.285000 -0.000500 0.136000
vn -1.0000 -0.0000 -0.0000
vn -0.0000 -0.0000 -1.0000
vn 1.0000 -0.0000 -0.0000
vn -0.0000 -0.0000 1.0000
vn -0.0000 -1.0000 -0.0000
vn -0.0000 1.0000 -0.0000
vt 0.625000 0.000000
vt 0.375000 0.250000
vt 0.375000 0.000000
vt 0.625000 0.250000
vt 0.375000 0.500000
vt 0.625000 0.500000
vt 0.375000 0.750000
vt 0.625000 0.750000
vt 0.375000 1.000000
vt 0.125000 0.750000
vt 0.125000 0.500000
vt 0.875000 0.500000
vt 0.625000 1.000000
vt 0.875000 0.750000
s 0
usemtl HM_Scuff
f 106/186/87 107/187/87 105/188/87
f 108/189/88 111/190/88 107/187/88
f 112/191/89 109/192/89 111/190/89
f 110/193/90 105/194/90 109/192/90
f 111/190/91 105/195/91 107/196/91
f 108/197/92 110/193/92 112/191/92
f 106/186/87 108/189/87 107/187/87
f 108/189/88 112/191/88 111/190/88
f 112/191/89 110/193/89 109/192/89
f 110/193/90 106/198/90 105/194/90
f 111/190/91 109/192/91 105/195/91
f 108/197/92 106/199/92 110/193/92
o hm_prop_drain_grate_v2_Scuff_1
v -0.240000 -0.003500 -0.120000
v -0.240000 -0.000500 -0.120000
v -0.240000 -0.003500 -0.160000
v -0.240000 -0.000500 -0.160000
v -0.120000 -0.003500 -0.120000
v -0.120000 -0.000500 -0.120000
v -0.120000 -0.003500 -0.160000
v -0.120000 -0.000500 -0.160000
vn -1.0000 -0.0000 -0.0000
vn -0.0000 -0.0000 -1.0000
vn 1.0000 -0.0000 -0.0000
vn -0.0000 -0.0000 1.0000
vn -0.0000 -1.0000 -0.0000
vn -0.0000 1.0000 -0.0000
vt 0.625000 0.000000
vt 0.375000 0.250000
vt 0.375000 0.000000
vt 0.625000 0.250000
vt 0.375000 0.500000
vt 0.625000 0.500000
vt 0.375000 0.750000
vt 0.625000 0.750000
vt 0.375000 1.000000
vt 0.125000 0.750000
vt 0.125000 0.500000
vt 0.875000 0.500000
vt 0.625000 1.000000
vt 0.875000 0.750000
s 0
usemtl HM_Scuff
f 114/200/93 115/201/93 113/202/93
f 116/203/94 119/204/94 115/201/94
f 120/205/95 117/206/95 119/204/95
f 118/207/96 113/208/96 117/206/96
f 119/204/97 113/209/97 115/210/97
f 116/211/98 118/207/98 120/205/98
f 114/200/93 116/203/93 115/201/93
f 116/203/94 120/205/94 119/204/94
f 120/205/95 118/207/95 117/206/95
f 118/207/96 114/212/96 113/208/96
f 119/204/97 117/206/97 113/209/97
f 116/211/98 114/213/98 118/207/98
o hm_prop_drain_grate_v2_Scuff_2
v -0.105000 -0.003500 0.208000
v -0.105000 -0.000500 0.208000
v -0.105000 -0.003500 0.176000
v -0.105000 -0.000500 0.176000
v 0.105000 -0.003500 0.208000
v 0.105000 -0.000500 0.208000
v 0.105000 -0.003500 0.176000
v 0.105000 -0.000500 0.176000
vn -1.0000 -0.0000 -0.0000
vn -0.0000 -0.0000 -1.0000
vn 1.0000 -0.0000 -0.0000
vn -0.0000 -0.0000 1.0000
vn -0.0000 -1.0000 -0.0000
vn -0.0000 1.0000 -0.0000
vt 0.625000 0.000000
vt 0.375000 0.250000
vt 0.375000 0.000000
vt 0.625000 0.250000
vt 0.375000 0.500000
vt 0.625000 0.500000
vt 0.375000 0.750000
vt 0.625000 0.750000
vt 0.375000 1.000000
vt 0.125000 0.750000
vt 0.125000 0.500000
vt 0.875000 0.500000
vt 0.625000 1.000000
vt 0.875000 0.750000
s 0
usemtl HM_Scuff
f 122/214/99 123/215/99 121/216/99
f 124/217/100 127/218/100 123/215/100
f 128/219/101 125/220/101 127/218/101
f 126/221/102 121/222/102 125/220/102
f 127/218/103 121/223/103 123/224/103
f 124/225/104 126/221/104 128/219/104
f 122/214/99 124/217/99 123/215/99
f 124/217/100 128/219/100 127/218/100
f 128/219/101 126/221/101 125/220/101
f 126/221/102 122/226/102 121/222/102
f 127/218/103 125/220/103 121/223/103
f 124/225/104 122/227/104 126/221/104
